NimbusMonL-Regu.ufo
<glyph name="exclam" format="1">
  <advance width="600"/>
  <unicode hex="0021"/>
  <outline>
    <contour>
      <point x="339" y="563" type="line"/>
      <point x="339" y="579" type="line" smooth="yes"/>
      <point x="339" y="601"/>
      <point x="322" y="618"/>
      <point x="300" y="618" type="curve" smooth="yes"/>
      <point x="277" y="618"/>
      <point x="260" y="601"/>
      <point x="260" y="579" type="curve" smooth="yes"/>
      <point x="260" y="575"/>
      <point x="260" y="570"/>
      <point x="261" y="563" type="curve"/>
      <point x="279" y="237" type="line" smooth="yes"/>
      <point x="280" y="218"/>
      <point x="286" y="209"/>
      <point x="299" y="209" type="curve" smooth="yes"/>
      <point x="313" y="209"/>
      <point x="319" y="217"/>
      <point x="320" y="237" type="curve" smooth="yes"/>
    </contour>
    <contour>
      <point x="292" y="85" type="line" smooth="yes"/>
      <point x="263" y="85"/>
      <point x="240" y="63"/>
      <point x="240" y="35" type="curve" smooth="yes"/>
      <point x="240" y="7"/>
      <point x="263" y="-15"/>
      <point x="292" y="-15" type="curve" smooth="yes"/>
      <point x="306" y="-15" type="line" smooth="yes"/>
      <point x="336" y="-15"/>
      <point x="360" y="7"/>
      <point x="360" y="35" type="curve" smooth="yes"/>
      <point x="360" y="63"/>
      <point x="336" y="85"/>
      <point x="306" y="85" type="curve" smooth="yes"/>
    </contour>
  </outline>
</glyph>
<glyph name="quotedbl" format="1">
  <advance width="600"/>
  <unicode hex="0022"/>
  <outline>
    <contour>
      <point x="146" y="604" type="line"/>
      <point x="180" y="351" type="line" smooth="yes"/>
      <point x="183" y="326"/>
      <point x="192" y="316"/>
      <point x="210" y="316" type="curve" smooth="yes"/>
      <point x="228" y="316"/>
      <point x="237" y="326"/>
      <point x="240" y="351" type="curve" smooth="yes"/>
      <point x="274" y="604" type="line"/>
    </contour>
    <contour>
      <point x="326" y="604" type="line"/>
      <point x="360" y="351" type="line" smooth="yes"/>
      <point x="363" y="326"/>
      <point x="373" y="316"/>
      <point x="390" y="316" type="curve" smooth="yes"/>
      <point x="408" y="316"/>
      <point x="417" y="326"/>
      <point x="420" y="351" type="curve" smooth="yes"/>
      <point x="454" y="604" type="line"/>
    </contour>
  </outline>
</glyph>
<glyph name="numbersign" format="1">
  <advance width="600"/>
  <unicode hex="0023"/>
  <outline>
    <contour>
      <point x="394" y="356" type="line"/>
      <point x="481" y="356" type="line" smooth="yes"/>
      <point x="499" y="356"/>
      <point x="508" y="363"/>
      <point x="508" y="377" type="curve" smooth="yes"/>
      <point x="508" y="390"/>
      <point x="499" y="397"/>
      <point x="481" y="397" type="curve" smooth="yes"/>
      <point x="397" y="397" type="line"/>
      <point x="413" y="619" type="line" smooth="yes"/>
      <point x="414" y="636"/>
      <point x="407" y="647"/>
      <point x="393" y="647" type="curve" smooth="yes"/>
      <point x="380" y="647"/>
      <point x="374" y="640"/>
      <point x="373" y="623" type="curve" smooth="yes"/>
      <point x="357" y="397" type="line"/>
      <point x="256" y="397" type="line"/>
      <point x="271" y="619" type="line"/>
      <point x="272" y="626" type="line"/>
      <point x="273" y="637"/>
      <point x="263" y="647"/>
      <point x="252" y="647" type="curve" smooth="yes"/>
      <point x="239" y="647"/>
      <point x="232" y="640"/>
      <point x="231" y="623" type="curve" smooth="yes"/>
      <point x="215" y="397" type="line"/>
      <point x="140" y="397" type="line" smooth="yes"/>
      <point x="121" y="397"/>
      <point x="112" y="390"/>
      <point x="112" y="377" type="curve" smooth="yes"/>
      <point x="112" y="363"/>
      <point x="121" y="356"/>
      <point x="140" y="356" type="curve" smooth="yes"/>
      <point x="212" y="356" type="line"/>
      <point x="203" y="231" type="line"/>
      <point x="119" y="231" type="line" smooth="yes"/>
      <point x="101" y="231"/>
      <point x="92" y="223"/>
      <point x="92" y="210" type="curve" smooth="yes"/>
      <point x="92" y="197"/>
      <point x="101" y="189"/>
      <point x="119" y="189" type="curve" smooth="yes"/>
      <point x="201" y="189" type="line"/>
      <point x="184" y="-33" type="line"/>
      <point x="184" y="-41" type="line" smooth="yes"/>
      <point x="184" y="-53"/>
      <point x="194" y="-62"/>
      <point x="205" y="-62" type="curve" smooth="yes"/>
      <point x="218" y="-62"/>
      <point x="225" y="-53"/>
      <point x="226" y="-36" type="curve" smooth="yes"/>
      <point x="242" y="189" type="line"/>
      <point x="342" y="189" type="line"/>
      <point x="326" y="-33" type="line"/>
      <point x="326" y="-41" type="line"/>
      <point x="325" y="-51"/>
      <point x="335" y="-62"/>
      <point x="346" y="-62" type="curve" smooth="yes"/>
      <point x="359" y="-62"/>
      <point x="367" y="-53"/>
      <point x="367" y="-36" type="curve"/>
      <point x="383" y="189" type="line"/>
      <point x="461" y="189" type="line" smooth="yes"/>
      <point x="479" y="189"/>
      <point x="488" y="197"/>
      <point x="488" y="210" type="curve" smooth="yes"/>
      <point x="488" y="223"/>
      <point x="479" y="231"/>
      <point x="461" y="231" type="curve" smooth="yes"/>
      <point x="386" y="231" type="line"/>
    </contour>
    <contour>
      <point x="354" y="356" type="line"/>
      <point x="345" y="231" type="line"/>
      <point x="244" y="231" type="line"/>
      <point x="252" y="356" type="line"/>
    </contour>
  </outline>
</glyph>
<glyph name="dollar" format="1">
  <advance width="600"/>
  <unicode hex="0024"/>
  <outline>
    <contour>
      <point x="280" y="576" type="line"/>
      <point x="197" y="566"/>
      <point x="136" y="507"/>
      <point x="136" y="434" type="curve" smooth="yes"/>
      <point x="136" y="397"/>
      <point x="154" y="360"/>
      <point x="183" y="341" type="curve" smooth="yes"/>
      <point x="209" y="325"/>
      <point x="238" y="316"/>
      <point x="302" y="303" type="curve" smooth="yes"/>
      <point x="369" y="290"/>
      <point x="385" y="285"/>
      <point x="408" y="272" type="curve" smooth="yes"/>
      <point x="432" y="257"/>
      <point x="447" y="231"/>
      <point x="447" y="201" type="curve" smooth="yes"/>
      <point x="447" y="138"/>
      <point x="383" y="93"/>
      <point x="299" y="93" type="curve" smooth="yes"/>
      <point x="225" y="93"/>
      <point x="158" y="130"/>
      <point x="154" y="174" type="curve" smooth="yes"/>
      <point x="152" y="191"/>
      <point x="147" y="198"/>
      <point x="133" y="198" type="curve" smooth="yes"/>
      <point x="120" y="198"/>
      <point x="113" y="189"/>
      <point x="113" y="171" type="curve" smooth="yes"/>
      <point x="113" y="92" type="line" smooth="yes"/>
      <point x="113" y="74"/>
      <point x="120" y="66"/>
      <point x="133" y="66" type="curve" smooth="yes"/>
      <point x="147" y="66"/>
      <point x="154" y="74"/>
      <point x="154" y="92" type="curve" smooth="yes"/>
      <point x="154" y="108" type="line"/>
      <point x="180" y="79"/>
      <point x="234" y="56"/>
      <point x="280" y="53" type="curve"/>
      <point x="280" y="-66" type="line" smooth="yes"/>
      <point x="280" y="-83"/>
      <point x="286" y="-92"/>
      <point x="301" y="-92" type="curve" smooth="yes"/>
      <point x="314" y="-92"/>
      <point x="322" y="-83"/>
      <point x="322" y="-66" type="curve" smooth="yes"/>
      <point x="322" y="53" type="line"/>
      <point x="424" y="66"/>
      <point x="487" y="123"/>
      <point x="487" y="201" type="curve" smooth="yes"/>
      <point x="487" y="244"/>
      <point x="468" y="280"/>
      <point x="438" y="301" type="curve" smooth="yes"/>
      <point x="410" y="320"/>
      <point x="383" y="328"/>
      <point x="312" y="342" type="curve" smooth="yes"/>
      <point x="252" y="353"/>
      <point x="232" y="359"/>
      <point x="212" y="371" type="curve" smooth="yes"/>
      <point x="191" y="383"/>
      <point x="177" y="408"/>
      <point x="177" y="434" type="curve" smooth="yes"/>
      <point x="177" y="492"/>
      <point x="233" y="538"/>
      <point x="302" y="538" type="curve" smooth="yes"/>
      <point x="363" y="538"/>
      <point x="420" y="507"/>
      <point x="425" y="471" type="curve" smooth="yes"/>
      <point x="427" y="455"/>
      <point x="433" y="449"/>
      <point x="447" y="449" type="curve" smooth="yes"/>
      <point x="459" y="449"/>
      <point x="466" y="458"/>
      <point x="466" y="476" type="curve" smooth="yes"/>
      <point x="466" y="536" type="line" smooth="yes"/>
      <point x="466" y="553"/>
      <point x="460" y="563"/>
      <point x="447" y="563" type="curve" smooth="yes"/>
      <point x="433" y="563"/>
      <point x="426" y="553"/>
      <point x="425" y="534" type="curve"/>
      <point x="390" y="562"/>
      <point x="367" y="572"/>
      <point x="322" y="576" type="curve"/>
      <point x="322" y="627" type="line" smooth="yes"/>
      <point x="322" y="646"/>
      <point x="314" y="655"/>
      <point x="301" y="655" type="curve" smooth="yes"/>
      <point x="286" y="655"/>
      <point x="280" y="646"/>
      <point x="280" y="627" type="curve" smooth="yes"/>
    </contour>
  </outline>
</glyph>
<glyph name="percent" format="1">
  <advance width="600"/>
  <unicode hex="0025"/>
  <outline>
    <contour>
      <point x="360" y="235" type="curve" smooth="yes"/>
      <point x="294" y="235"/>
      <point x="239" y="180"/>
      <point x="239" y="112" type="curve" smooth="yes"/>
      <point x="239" y="44"/>
      <point x="294" y="-12"/>
      <point x="362" y="-12" type="curve" smooth="yes"/>
      <point x="428" y="-12"/>
      <point x="484" y="44"/>
      <point x="484" y="110" type="curve" smooth="yes"/>
      <point x="484" y="181"/>
      <point x="430" y="235"/>
    </contour>
    <contour>
      <point x="360" y="198" type="curve" smooth="yes"/>
      <point x="409" y="198"/>
      <point x="447" y="160"/>
      <point x="447" y="110" type="curve" smooth="yes"/>
      <point x="447" y="66"/>
      <point x="408" y="25"/>
      <point x="362" y="25" type="curve" smooth="yes"/>
      <point x="316" y="25"/>
      <point x="277" y="66"/>
      <point x="277" y="112" type="curve" smooth="yes"/>
      <point x="277" y="160"/>
      <point x="316" y="198"/>
    </contour>
    <contour>
      <point x="237" y="610" type="curve" smooth="yes"/>
      <point x="170" y="610"/>
      <point x="115" y="555"/>
      <point x="115" y="487" type="curve" smooth="yes"/>
      <point x="115" y="419"/>
      <point x="170" y="363"/>
      <point x="238" y="363" type="curve" smooth="yes"/>
      <point x="303" y="363"/>
      <point x="360" y="419"/>
      <point x="360" y="485" type="curve" smooth="yes"/>
      <point x="360" y="556"/>
      <point x="306" y="610"/>
    </contour>
    <contour>
      <point x="237" y="573" type="curve" smooth="yes"/>
      <point x="285" y="573"/>
      <point x="322" y="535"/>
      <point x="322" y="485" type="curve" smooth="yes"/>
      <point x="322" y="441"/>
      <point x="283" y="400"/>
      <point x="238" y="400" type="curve" smooth="yes"/>
      <point x="191" y="400"/>
      <point x="153" y="441"/>
      <point x="153" y="487" type="curve" smooth="yes"/>
      <point x="153" y="534"/>
      <point x="191" y="573"/>
    </contour>
    <contour>
      <point x="495" y="343" type="line"/>
      <point x="508" y="348"/>
      <point x="513" y="354"/>
      <point x="513" y="363" type="curve" smooth="yes"/>
      <point x="513" y="373"/>
      <point x="505" y="382"/>
      <point x="496" y="382" type="curve" smooth="yes"/>
      <point x="492" y="382"/>
      <point x="488" y="381"/>
      <point x="484" y="380" type="curve"/>
      <point x="106" y="258" type="line" smooth="yes"/>
      <point x="92" y="254"/>
      <point x="87" y="248"/>
      <point x="87" y="238" type="curve" smooth="yes"/>
      <point x="87" y="228"/>
      <point x="96" y="218"/>
      <point x="104" y="218" type="curve" smooth="yes"/>
      <point x="106" y="218"/>
      <point x="110" y="220"/>
      <point x="117" y="222" type="curve" smooth="yes"/>
    </contour>
  </outline>
</glyph>
<glyph name="ampersand" format="1">
  <advance width="600"/>
  <unicode hex="0026"/>
  <outline>
    <contour>
      <point x="393" y="0" type="line"/>
      <point x="471" y="0" type="line" smooth="yes"/>
      <point x="489" y="0"/>
      <point x="498" y="7"/>
      <point x="498" y="21" type="curve" smooth="yes"/>
      <point x="498" y="34"/>
      <point x="489" y="41"/>
      <point x="471" y="41" type="curve" smooth="yes"/>
      <point x="413" y="41" type="line"/>
      <point x="386" y="83" type="line"/>
      <point x="407" y="110"/>
      <point x="425" y="157"/>
      <point x="439" y="208" type="curve"/>
      <point x="471" y="208" type="line" smooth="yes"/>
      <point x="489" y="208"/>
      <point x="498" y="215"/>
      <point x="498" y="229" type="curve" smooth="yes"/>
      <point x="498" y="242"/>
      <point x="489" y="249"/>
      <point x="471" y="249" type="curve" smooth="yes"/>
      <point x="408" y="249" type="line"/>
      <point x="398" y="201"/>
      <point x="382" y="158"/>
      <point x="362" y="121" type="curve"/>
      <point x="251" y="299" type="line" smooth="yes"/>
      <point x="218" y="350"/>
      <point x="208" y="375"/>
      <point x="208" y="398" type="curve" smooth="yes"/>
      <point x="208" y="441"/>
      <point x="246" y="478"/>
      <point x="289" y="478" type="curve" smooth="yes"/>
      <point x="312" y="478"/>
      <point x="331" y="470"/>
      <point x="352" y="451" type="curve"/>
      <point x="383" y="468" type="line" smooth="yes"/>
      <point x="396" y="475"/>
      <point x="400" y="481"/>
      <point x="400" y="489" type="curve" smooth="yes"/>
      <point x="400" y="500"/>
      <point x="391" y="510"/>
      <point x="381" y="510" type="curve" smooth="yes"/>
      <point x="377" y="510"/>
      <point x="371" y="508"/>
      <point x="365" y="505" type="curve"/>
      <point x="356" y="499" type="line"/>
      <point x="333" y="513"/>
      <point x="312" y="519"/>
      <point x="289" y="519" type="curve" smooth="yes"/>
      <point x="222" y="519"/>
      <point x="166" y="465"/>
      <point x="166" y="400" type="curve" smooth="yes"/>
      <point x="166" y="371"/>
      <point x="171" y="360"/>
      <point x="216" y="286" type="curve"/>
      <point x="147" y="266"/>
      <point x="95" y="214"/>
      <point x="95" y="142" type="curve" smooth="yes"/>
      <point x="95" y="53"/>
      <point x="166" y="-16"/>
      <point x="250" y="-16" type="curve" smooth="yes"/>
      <point x="296" y="-16"/>
      <point x="333" y="5"/>
      <point x="362" y="49" type="curve"/>
    </contour>
    <contour>
      <point x="339" y="86" type="line"/>
      <point x="316" y="47"/>
      <point x="284" y="25"/>
      <point x="249" y="25" type="curve" smooth="yes"/>
      <point x="188" y="25"/>
      <point x="136" y="76"/>
      <point x="136" y="142" type="curve" smooth="yes"/>
      <point x="136" y="200"/>
      <point x="180" y="239"/>
      <point x="233" y="251" type="curve"/>
    </contour>
  </outline>
</glyph>
<glyph name="quotesingle" format="1">
  <advance width="600"/>
  <unicode hex="0027"/>
  <outline>
    <contour>
      <point x="235" y="604" type="line"/>
      <point x="269" y="351" type="line" smooth="yes"/>
      <point x="273" y="326"/>
      <point x="282" y="316"/>
      <point x="300" y="316" type="curve" smooth="yes"/>
      <point x="318" y="316"/>
      <point x="326" y="326"/>
      <point x="330" y="351" type="curve" smooth="yes"/>
      <point x="364" y="604" type="line"/>
    </contour>
  </outline>
</glyph>
<glyph name="parenleft" format="1">
  <advance width="600"/>
  <unicode hex="0028"/>
  <outline>
    <contour>
      <point x="413" y="604" type="curve" smooth="yes"/>
      <point x="403" y="604"/>
      <point x="396" y="597"/>
      <point x="379" y="570" type="curve" smooth="yes"/>
      <point x="308" y="460"/>
      <point x="269" y="343"/>
      <point x="269" y="243" type="curve" smooth="yes"/>
      <point x="269" y="140"/>
      <point x="302" y="36"/>
      <point x="370" y="-76" type="curve" smooth="yes"/>
      <point x="393" y="-114"/>
      <point x="402" y="-124"/>
      <point x="411" y="-124" type="curve" smooth="yes"/>
      <point x="424" y="-124"/>
      <point x="433" y="-115"/>
      <point x="433" y="-104" type="curve" smooth="yes"/>
      <point x="433" y="-100"/>
      <point x="432" y="-98"/>
      <point x="430" y="-93" type="curve"/>
      <point x="360" y="32"/>
      <point x="330" y="133"/>
      <point x="330" y="240" type="curve" smooth="yes"/>
      <point x="330" y="347"/>
      <point x="360" y="451"/>
      <point x="430" y="573" type="curve"/>
      <point x="432" y="578"/>
      <point x="433" y="580"/>
      <point x="433" y="584" type="curve" smooth="yes"/>
      <point x="433" y="595"/>
      <point x="424" y="604"/>
    </contour>
  </outline>
</glyph>
<glyph name="parenright" format="1">
  <advance width="600"/>
  <unicode hex="0029"/>
  <outline>
    <contour>
      <point x="188" y="604" type="curve" smooth="yes"/>
      <point x="177" y="604"/>
      <point x="167" y="595"/>
      <point x="167" y="584" type="curve" smooth="yes"/>
      <point x="167" y="580"/>
      <point x="167" y="578"/>
      <point x="170" y="573" type="curve" smooth="yes"/>
      <point x="240" y="448"/>
      <point x="269" y="348"/>
      <point x="269" y="240" type="curve" smooth="yes"/>
      <point x="269" y="133"/>
      <point x="239" y="29"/>
      <point x="170" y="-93" type="curve" smooth="yes"/>
      <point x="167" y="-98"/>
      <point x="167" y="-100"/>
      <point x="167" y="-104" type="curve" smooth="yes"/>
      <point x="167" y="-115"/>
      <point x="176" y="-124"/>
      <point x="187" y="-124" type="curve" smooth="yes"/>
      <point x="197" y="-124"/>
      <point x="204" y="-117"/>
      <point x="221" y="-90" type="curve" smooth="yes"/>
      <point x="292" y="19"/>
      <point x="331" y="137"/>
      <point x="331" y="237" type="curve" smooth="yes"/>
      <point x="331" y="340"/>
      <point x="299" y="445"/>
      <point x="231" y="557" type="curve" smooth="yes"/>
      <point x="208" y="595"/>
      <point x="198" y="604"/>
    </contour>
  </outline>
</glyph>
<glyph name="asterisk" format="1">
  <advance width="600"/>
  <unicode hex="002A"/>
  <outline>
    <contour>
      <point x="279" y="438" type="line"/>
      <point x="146" y="481" type="line"/>
      <point x="140" y="482"/>
      <point x="137" y="483"/>
      <point x="133" y="483" type="curve" smooth="yes"/>
      <point x="123" y="483"/>
      <point x="113" y="475"/>
      <point x="113" y="464" type="curve" smooth="yes"/>
      <point x="113" y="453"/>
      <point x="121" y="444"/>
      <point x="129" y="443" type="curve"/>
      <point x="133" y="442" type="line"/>
      <point x="266" y="400" type="line"/>
      <point x="184" y="288" type="line"/>
      <point x="178" y="278"/>
      <point x="177" y="275"/>
      <point x="177" y="271" type="curve" smooth="yes"/>
      <point x="177" y="258"/>
      <point x="186" y="250"/>
      <point x="197" y="250" type="curve" smooth="yes"/>
      <point x="205" y="250"/>
      <point x="210" y="254"/>
      <point x="218" y="265" type="curve" smooth="yes"/>
      <point x="299" y="376" type="line"/>
      <point x="381" y="265" type="line" smooth="yes"/>
      <point x="390" y="252"/>
      <point x="393" y="250"/>
      <point x="400" y="250" type="curve" smooth="yes"/>
      <point x="411" y="250"/>
      <point x="421" y="258"/>
      <point x="421" y="269" type="curve" smooth="yes"/>
      <point x="421" y="275"/>
      <point x="417" y="282"/>
      <point x="414" y="288" type="curve"/>
      <point x="333" y="400" type="line"/>
      <point x="466" y="442" type="line" smooth="yes"/>
      <point x="481" y="447"/>
      <point x="487" y="453"/>
      <point x="487" y="464" type="curve" smooth="yes"/>
      <point x="487" y="475"/>
      <point x="478" y="484"/>
      <point x="468" y="484" type="curve" smooth="yes"/>
      <point x="465" y="484"/>
      <point x="458" y="483"/>
      <point x="453" y="481" type="curve"/>
      <point x="320" y="438" type="line"/>
      <point x="320" y="576" type="line" smooth="yes"/>
      <point x="320" y="595"/>
      <point x="313" y="604"/>
      <point x="300" y="604" type="curve" smooth="yes"/>
      <point x="286" y="604"/>
      <point x="279" y="595"/>
      <point x="279" y="576" type="curve" smooth="yes"/>
    </contour>
  </outline>
</glyph>
<glyph name="plus" format="1">
  <advance width="600"/>
  <unicode hex="002B"/>
  <outline>
    <contour>
      <point x="320" y="231" type="line"/>
      <point x="490" y="231" type="line" smooth="yes"/>
      <point x="508" y="231"/>
      <point x="518" y="238"/>
      <point x="518" y="252" type="curve" smooth="yes"/>
      <point x="518" y="265"/>
      <point x="508" y="272"/>
      <point x="490" y="272" type="curve" smooth="yes"/>
      <point x="320" y="272" type="line"/>
      <point x="320" y="453" type="line" smooth="yes"/>
      <point x="320" y="471"/>
      <point x="313" y="481"/>
      <point x="300" y="481" type="curve" smooth="yes"/>
      <point x="286" y="481"/>
      <point x="279" y="471"/>
      <point x="279" y="453" type="curve" smooth="yes"/>
      <point x="279" y="272" type="line"/>
      <point x="109" y="272" type="line" smooth="yes"/>
      <point x="91" y="272"/>
      <point x="83" y="265"/>
      <point x="83" y="252" type="curve" smooth="yes"/>
      <point x="83" y="238"/>
      <point x="91" y="231"/>
      <point x="109" y="231" type="curve" smooth="yes"/>
      <point x="279" y="231" type="line"/>
      <point x="279" y="49" type="line" smooth="yes"/>
      <point x="279" y="32"/>
      <point x="286" y="22"/>
      <point x="300" y="22" type="curve" smooth="yes"/>
      <point x="313" y="22"/>
      <point x="320" y="32"/>
      <point x="320" y="49" type="curve" smooth="yes"/>
    </contour>
  </outline>
</glyph>
<glyph name="comma" format="1">
  <advance width="600"/>
  <unicode hex="002C"/>
  <outline>
    <contour>
      <point x="208" y="144" type="line"/>
      <point x="137" y="-106" type="line" smooth="yes"/>
      <point x="136" y="-109"/>
      <point x="135" y="-112"/>
      <point x="135" y="-117" type="curve" smooth="yes"/>
      <point x="135" y="-132"/>
      <point x="148" y="-144"/>
      <point x="164" y="-144" type="curve" smooth="yes"/>
      <point x="177" y="-144"/>
      <point x="184" y="-140"/>
      <point x="195" y="-120" type="curve" smooth="yes"/>
      <point x="340" y="144" type="line"/>
    </contour>
  </outline>
</glyph>
<glyph name="hyphen" format="1">
  <advance width="600"/>
  <unicode hex="002D"/>
  <outline>
    <contour>
      <point x="501" y="231" type="line" smooth="yes"/>
      <point x="519" y="231"/>
      <point x="528" y="238"/>
      <point x="528" y="252" type="curve" smooth="yes"/>
      <point x="528" y="265"/>
      <point x="519" y="272"/>
      <point x="501" y="272" type="curve" smooth="yes"/>
      <point x="100" y="272" type="line" smooth="yes"/>
      <point x="81" y="272"/>
      <point x="72" y="265"/>
      <point x="72" y="252" type="curve" smooth="yes"/>
      <point x="72" y="238"/>
      <point x="81" y="231"/>
      <point x="100" y="231" type="curve" smooth="yes"/>
    </contour>
  </outline>
</glyph>
<glyph name="period" format="1">
  <advance width="600"/>
  <unicode hex="002E"/>
  <outline>
    <contour>
      <point x="295" y="117" type="line" smooth="yes"/>
      <point x="256" y="117"/>
      <point x="226" y="89"/>
      <point x="226" y="51" type="curve" smooth="yes"/>
      <point x="226" y="15"/>
      <point x="256" y="-15"/>
      <point x="295" y="-15" type="curve" smooth="yes"/>
      <point x="305" y="-15" type="line" smooth="yes"/>
      <point x="343" y="-15"/>
      <point x="374" y="13"/>
      <point x="374" y="51" type="curve" smooth="yes"/>
      <point x="374" y="89"/>
      <point x="343" y="117"/>
      <point x="305" y="117" type="curve" smooth="yes"/>
    </contour>
  </outline>
</glyph>
<glyph name="slash" format="1">
  <advance width="600"/>
  <unicode hex="002F"/>
  <outline>
    <contour>
      <point x="482" y="633" type="line"/>
      <point x="485" y="641"/>
      <point x="487" y="644"/>
      <point x="487" y="649" type="curve" smooth="yes"/>
      <point x="487" y="659"/>
      <point x="477" y="667"/>
      <point x="467" y="667" type="curve" smooth="yes"/>
      <point x="458" y="667"/>
      <point x="451" y="664"/>
      <point x="445" y="650" type="curve" smooth="yes"/>
      <point x="118" y="-46" type="line"/>
      <point x="114" y="-53"/>
      <point x="113" y="-58"/>
      <point x="113" y="-62" type="curve" smooth="yes"/>
      <point x="113" y="-72"/>
      <point x="123" y="-81"/>
      <point x="133" y="-81" type="curve" smooth="yes"/>
      <point x="143" y="-81"/>
      <point x="148" y="-76"/>
      <point x="155" y="-63" type="curve"/>
    </contour>
  </outline>
</glyph>
<glyph name="zero" format="1">
  <advance width="600"/>
  <unicode hex="0030"/>
  <outline>
    <contour>
      <point x="487" y="351" type="line" smooth="yes"/>
      <point x="487" y="510"/>
      <point x="411" y="618"/>
      <point x="300" y="618" type="curve" smooth="yes"/>
      <point x="189" y="618"/>
      <point x="113" y="510"/>
      <point x="113" y="351" type="curve" smooth="yes"/>
      <point x="113" y="251" type="line" smooth="yes"/>
      <point x="113" y="93"/>
      <point x="189" y="-15"/>
      <point x="300" y="-15" type="curve" smooth="yes"/>
      <point x="411" y="-15"/>
      <point x="487" y="93"/>
      <point x="487" y="251" type="curve" smooth="yes"/>
    </contour>
    <contour>
      <point x="154" y="346" type="line" smooth="yes"/>
      <point x="154" y="410"/>
      <point x="172" y="478"/>
      <point x="201" y="524" type="curve"/>
      <point x="225" y="558"/>
      <point x="258" y="576"/>
      <point x="300" y="576" type="curve" smooth="yes"/>
      <point x="342" y="576"/>
      <point x="376" y="558"/>
      <point x="398" y="524" type="curve" smooth="yes"/>
      <point x="428" y="478"/>
      <point x="447" y="410"/>
      <point x="447" y="346" type="curve" smooth="yes"/>
      <point x="447" y="257" type="line" smooth="yes"/>
      <point x="447" y="193"/>
      <point x="428" y="125"/>
      <point x="398" y="79" type="curve" smooth="yes"/>
      <point x="376" y="45"/>
      <point x="342" y="25"/>
      <point x="300" y="25" type="curve" smooth="yes"/>
      <point x="258" y="25"/>
      <point x="225" y="45"/>
      <point x="201" y="79" type="curve"/>
      <point x="172" y="125"/>
      <point x="154" y="193"/>
      <point x="154" y="257" type="curve" smooth="yes"/>
    </contour>
  </outline>
</glyph>
<glyph name="one" format="1">
  <advance width="600"/>
  <unicode hex="0031"/>
  <outline>
    <contour>
      <point x="322" y="612" type="line"/>
      <point x="136" y="553" type="line"/>
      <point x="120" y="549"/>
      <point x="115" y="542"/>
      <point x="115" y="532" type="curve" smooth="yes"/>
      <point x="115" y="522"/>
      <point x="125" y="512"/>
      <point x="133" y="512" type="curve" smooth="yes"/>
      <point x="136" y="512"/>
      <point x="144" y="515"/>
      <point x="148" y="515" type="curve"/>
      <point x="280" y="557" type="line"/>
      <point x="280" y="41" type="line"/>
      <point x="141" y="41" type="line" smooth="yes"/>
      <point x="123" y="41"/>
      <point x="113" y="34"/>
      <point x="113" y="21" type="curve" smooth="yes"/>
      <point x="113" y="7"/>
      <point x="123" y="0"/>
      <point x="141" y="0" type="curve" smooth="yes"/>
      <point x="460" y="0" type="line" smooth="yes"/>
      <point x="478" y="0"/>
      <point x="487" y="7"/>
      <point x="487" y="21" type="curve" smooth="yes"/>
      <point x="487" y="34"/>
      <point x="478" y="41"/>
      <point x="460" y="41" type="curve" smooth="yes"/>
      <point x="322" y="41" type="line"/>
    </contour>
  </outline>
</glyph>
<glyph name="two" format="1">
  <advance width="600"/>
  <unicode hex="0032"/>
  <outline>
    <contour>
      <point x="131" y="41" type="line"/>
      <point x="131" y="44" type="line"/>
      <point x="188" y="92"/>
      <point x="251" y="150"/>
      <point x="339" y="237" type="curve" smooth="yes"/>
      <point x="462" y="358"/>
      <point x="482" y="387"/>
      <point x="482" y="447" type="curve" smooth="yes"/>
      <point x="482" y="536"/>
      <point x="396" y="618"/>
      <point x="299" y="618" type="curve" smooth="yes"/>
      <point x="237" y="618"/>
      <point x="181" y="590"/>
      <point x="144" y="542" type="curve" smooth="yes"/>
      <point x="125" y="518"/>
      <point x="112" y="488"/>
      <point x="112" y="470" type="curve" smooth="yes"/>
      <point x="112" y="461"/>
      <point x="121" y="451"/>
      <point x="131" y="451" type="curve" smooth="yes"/>
      <point x="142" y="451"/>
      <point x="148" y="458"/>
      <point x="152" y="472" type="curve" smooth="yes"/>
      <point x="167" y="532"/>
      <point x="231" y="576"/>
      <point x="299" y="576" type="curve" smooth="yes"/>
      <point x="374" y="576"/>
      <point x="441" y="516"/>
      <point x="441" y="447" type="curve" smooth="yes"/>
      <point x="441" y="402"/>
      <point x="422" y="374"/>
      <point x="328" y="282" type="curve" smooth="yes"/>
      <point x="92" y="59" type="line"/>
      <point x="92" y="0" type="line"/>
      <point x="485" y="0" type="line"/>
      <point x="485" y="76" type="line" smooth="yes"/>
      <point x="485" y="95"/>
      <point x="479" y="104"/>
      <point x="466" y="104" type="curve" smooth="yes"/>
      <point x="451" y="104"/>
      <point x="445" y="95"/>
      <point x="445" y="76" type="curve" smooth="yes"/>
      <point x="445" y="41" type="line"/>
    </contour>
  </outline>
</glyph>
<glyph name="three" format="1">
  <advance width="600"/>
  <unicode hex="0033"/>
  <outline>
    <contour>
      <point x="359" y="328" type="curve"/>
      <point x="360" y="329"/>
      <point x="363" y="330"/>
      <point x="364" y="330" type="curve"/>
      <point x="424" y="356"/>
      <point x="462" y="407"/>
      <point x="462" y="464" type="curve" smooth="yes"/>
      <point x="462" y="551"/>
      <point x="386" y="618"/>
      <point x="286" y="618" type="curve" smooth="yes"/>
      <point x="234" y="618"/>
      <point x="184" y="602"/>
      <point x="144" y="572" type="curve" smooth="yes"/>
      <point x="124" y="556"/>
      <point x="110" y="538"/>
      <point x="110" y="528" type="curve" smooth="yes"/>
      <point x="110" y="518"/>
      <point x="119" y="508"/>
      <point x="130" y="508" type="curve" smooth="yes"/>
      <point x="138" y="508"/>
      <point x="141" y="511"/>
      <point x="150" y="523" type="curve"/>
      <point x="180" y="557"/>
      <point x="229" y="576"/>
      <point x="285" y="576" type="curve" smooth="yes"/>
      <point x="362" y="576"/>
      <point x="421" y="528"/>
      <point x="421" y="464" type="curve" smooth="yes"/>
      <point x="421" y="421"/>
      <point x="393" y="382"/>
      <point x="351" y="364" type="curve" smooth="yes"/>
      <point x="330" y="354"/>
      <point x="314" y="353"/>
      <point x="265" y="353" type="curve" smooth="yes"/>
      <point x="248" y="353"/>
      <point x="237" y="346"/>
      <point x="237" y="333" type="curve" smooth="yes"/>
      <point x="237" y="319"/>
      <point x="246" y="312"/>
      <point x="265" y="312" type="curve" smooth="yes"/>
      <point x="360" y="312"/>
      <point x="443" y="246"/>
      <point x="443" y="167" type="curve" smooth="yes"/>
      <point x="443" y="91"/>
      <point x="367" y="25"/>
      <point x="275" y="25" type="curve" smooth="yes"/>
      <point x="220" y="25"/>
      <point x="164" y="45"/>
      <point x="117" y="81" type="curve" smooth="yes"/>
      <point x="110" y="86"/>
      <point x="106" y="89"/>
      <point x="100" y="89" type="curve" smooth="yes"/>
      <point x="90" y="89"/>
      <point x="81" y="79"/>
      <point x="81" y="69" type="curve" smooth="yes"/>
      <point x="81" y="56"/>
      <point x="93" y="42"/>
      <point x="127" y="25" type="curve" smooth="yes"/>
      <point x="178" y="-2"/>
      <point x="226" y="-15"/>
      <point x="275" y="-15" type="curve" smooth="yes"/>
      <point x="390" y="-15"/>
      <point x="484" y="67"/>
      <point x="484" y="167" type="curve" smooth="yes"/>
      <point x="484" y="235"/>
      <point x="437" y="296"/>
    </contour>
  </outline>
</glyph>
<glyph name="four" format="1">
  <advance width="600"/>
  <unicode hex="0034"/>
  <outline>
    <contour>
      <point x="386" y="169" type="line"/>
      <point x="386" y="41" type="line"/>
      <point x="295" y="41" type="line" smooth="yes"/>
      <point x="277" y="41"/>
      <point x="268" y="34"/>
      <point x="268" y="21" type="curve" smooth="yes"/>
      <point x="268" y="7"/>
      <point x="277" y="0"/>
      <point x="295" y="0" type="curve" smooth="yes"/>
      <point x="476" y="0" type="line" smooth="yes"/>
      <point x="494" y="0"/>
      <point x="502" y="7"/>
      <point x="502" y="21" type="curve" smooth="yes"/>
      <point x="502" y="34"/>
      <point x="494" y="41"/>
      <point x="476" y="41" type="curve" smooth="yes"/>
      <point x="427" y="41" type="line"/>
      <point x="427" y="169" type="line"/>
      <point x="476" y="169" type="line" smooth="yes"/>
      <point x="494" y="169"/>
      <point x="502" y="176"/>
      <point x="502" y="189" type="curve" smooth="yes"/>
      <point x="502" y="203"/>
      <point x="494" y="210"/>
      <point x="476" y="210" type="curve" smooth="yes"/>
      <point x="427" y="210" type="line"/>
      <point x="427" y="604" type="line"/>
      <point x="343" y="604" type="line"/>
      <point x="115" y="216" type="line"/>
      <point x="115" y="169" type="line"/>
    </contour>
    <contour>
      <point x="386" y="210" type="line"/>
      <point x="154" y="210" type="line"/>
      <point x="362" y="563" type="line"/>
      <point x="386" y="563" type="line"/>
    </contour>
  </outline>
</glyph>
<glyph name="five" format="1">
  <advance width="600"/>
  <unicode hex="0035"/>
  <outline>
    <contour>
      <point x="186" y="563" type="line"/>
      <point x="427" y="563" type="line" smooth="yes"/>
      <point x="447" y="563"/>
      <point x="455" y="570"/>
      <point x="455" y="584" type="curve" smooth="yes"/>
      <point x="455" y="597"/>
      <point x="447" y="604"/>
      <point x="427" y="604" type="curve" smooth="yes"/>
      <point x="144" y="604" type="line"/>
      <point x="144" y="335" type="line" smooth="yes"/>
      <point x="144" y="322"/>
      <point x="153" y="313"/>
      <point x="164" y="313" type="curve" smooth="yes"/>
      <point x="169" y="313"/>
      <point x="174" y="316"/>
      <point x="186" y="322" type="curve" smooth="yes"/>
      <point x="228" y="343"/>
      <point x="272" y="354"/>
      <point x="312" y="354" type="curve" smooth="yes"/>
      <point x="396" y="354"/>
      <point x="454" y="292"/>
      <point x="454" y="203" type="curve" smooth="yes"/>
      <point x="454" y="98"/>
      <point x="387" y="25"/>
      <point x="289" y="25" type="curve" smooth="yes"/>
      <point x="231" y="25"/>
      <point x="177" y="49"/>
      <point x="129" y="93" type="curve"/>
      <point x="123" y="100"/>
      <point x="118" y="102"/>
      <point x="112" y="102" type="curve" smooth="yes"/>
      <point x="101" y="102"/>
      <point x="92" y="93"/>
      <point x="92" y="83" type="curve" smooth="yes"/>
      <point x="92" y="70"/>
      <point x="106" y="55"/>
      <point x="138" y="34" type="curve" smooth="yes"/>
      <point x="188" y="1"/>
      <point x="238" y="-15"/>
      <point x="291" y="-15" type="curve" smooth="yes"/>
      <point x="410" y="-15"/>
      <point x="495" y="75"/>
      <point x="495" y="201" type="curve" smooth="yes"/>
      <point x="495" y="313"/>
      <point x="420" y="394"/>
      <point x="318" y="394" type="curve" smooth="yes"/>
      <point x="274" y="394"/>
      <point x="237" y="386"/>
      <point x="186" y="365" type="curve"/>
    </contour>
  </outline>
</glyph>
<glyph name="six" format="1">
  <advance width="600"/>
  <unicode hex="0036"/>
  <outline>
    <contour>
      <point x="140" y="242" type="curve"/>
      <point x="138" y="261"/>
      <point x="137" y="275"/>
      <point x="137" y="285" type="curve" smooth="yes"/>
      <point x="137" y="350"/>
      <point x="154" y="411"/>
      <point x="182" y="455" type="curve" smooth="yes"/>
      <point x="231" y="530"/>
      <point x="309" y="576"/>
      <point x="386" y="576" type="curve" smooth="yes"/>
      <point x="405" y="576"/>
      <point x="424" y="574"/>
      <point x="433" y="569" type="curve"/>
      <point x="441" y="564"/>
      <point x="445" y="563"/>
      <point x="450" y="563" type="curve" smooth="yes"/>
      <point x="461" y="563"/>
      <point x="468" y="572"/>
      <point x="468" y="583" type="curve" smooth="yes"/>
      <point x="468" y="602"/>
      <point x="433" y="618"/>
      <point x="390" y="618" type="curve" smooth="yes"/>
      <point x="325" y="618"/>
      <point x="260" y="593"/>
      <point x="208" y="547" type="curve" smooth="yes"/>
      <point x="133" y="484"/>
      <point x="98" y="398"/>
      <point x="98" y="282" type="curve" smooth="yes"/>
      <point x="98" y="107"/>
      <point x="181" y="-15"/>
      <point x="299" y="-15" type="curve" smooth="yes"/>
      <point x="396" y="-15"/>
      <point x="472" y="70"/>
      <point x="472" y="178" type="curve" smooth="yes"/>
      <point x="472" y="280"/>
      <point x="396" y="364"/>
      <point x="305" y="364" type="curve" smooth="yes"/>
      <point x="234" y="364"/>
      <point x="180" y="324"/>
    </contour>
    <contour>
      <point x="144" y="188" type="curve"/>
      <point x="169" y="232"/>
      <point x="180" y="250"/>
      <point x="195" y="266" type="curve" smooth="yes"/>
      <point x="227" y="302"/>
      <point x="267" y="323"/>
      <point x="303" y="323" type="curve" smooth="yes"/>
      <point x="374" y="323"/>
      <point x="431" y="257"/>
      <point x="431" y="178" type="curve" smooth="yes"/>
      <point x="431" y="92"/>
      <point x="374" y="25"/>
      <point x="300" y="25" type="curve" smooth="yes"/>
      <point x="232" y="25"/>
      <point x="181" y="72"/>
      <point x="154" y="155" type="curve"/>
      <point x="150" y="164"/>
      <point x="150" y="165"/>
    </contour>
  </outline>
</glyph>
<glyph name="seven" format="1">
  <advance width="600"/>
  <unicode hex="0037"/>
  <outline>
    <contour>
      <point x="462" y="545" type="line"/>
      <point x="302" y="32" type="line"/>
      <point x="301" y="28"/>
      <point x="300" y="22"/>
      <point x="300" y="19" type="curve" smooth="yes"/>
      <point x="300" y="8"/>
      <point x="309" y="-1"/>
      <point x="320" y="-1" type="curve" smooth="yes"/>
      <point x="330" y="-1"/>
      <point x="335" y="4"/>
      <point x="340" y="19" type="curve" smooth="yes"/>
      <point x="502" y="539" type="line"/>
      <point x="502" y="604" type="line"/>
      <point x="130" y="604" type="line"/>
      <point x="130" y="528" type="line" smooth="yes"/>
      <point x="130" y="508"/>
      <point x="137" y="500"/>
      <point x="150" y="500" type="curve" smooth="yes"/>
      <point x="164" y="500"/>
      <point x="171" y="508"/>
      <point x="171" y="528" type="curve" smooth="yes"/>
      <point x="171" y="563" type="line"/>
      <point x="462" y="563" type="line"/>
    </contour>
  </outline>
</glyph>
<glyph name="eight" format="1">
  <advance width="600"/>
  <unicode hex="0038"/>
  <outline>
    <contour>
      <point x="375" y="313" type="curve"/>
      <point x="447" y="350"/>
      <point x="477" y="392"/>
      <point x="477" y="453" type="curve" smooth="yes"/>
      <point x="477" y="542"/>
      <point x="396" y="618"/>
      <point x="300" y="618" type="curve" smooth="yes"/>
      <point x="204" y="618"/>
      <point x="123" y="542"/>
      <point x="123" y="453" type="curve" smooth="yes"/>
      <point x="123" y="392"/>
      <point x="155" y="350"/>
      <point x="225" y="313" type="curve"/>
      <point x="152" y="279"/>
      <point x="113" y="227"/>
      <point x="113" y="161" type="curve" smooth="yes"/>
      <point x="113" y="64"/>
      <point x="197" y="-15"/>
      <point x="300" y="-15" type="curve" smooth="yes"/>
      <point x="403" y="-15"/>
      <point x="487" y="64"/>
      <point x="487" y="161" type="curve" smooth="yes"/>
      <point x="487" y="227"/>
      <point x="448" y="280"/>
    </contour>
    <contour>
      <point x="300" y="576" type="curve" smooth="yes"/>
      <point x="376" y="576"/>
      <point x="436" y="521"/>
      <point x="436" y="450" type="curve" smooth="yes"/>
      <point x="436" y="385"/>
      <point x="375" y="333"/>
      <point x="300" y="333" type="curve" smooth="yes"/>
      <point x="225" y="333"/>
      <point x="164" y="385"/>
      <point x="164" y="451" type="curve" smooth="yes"/>
      <point x="164" y="521"/>
      <point x="225" y="576"/>
    </contour>
    <contour>
      <point x="300" y="292" type="curve" smooth="yes"/>
      <point x="383" y="292"/>
      <point x="447" y="235"/>
      <point x="447" y="160" type="curve" smooth="yes"/>
      <point x="447" y="86"/>
      <point x="380" y="25"/>
      <point x="300" y="25" type="curve" smooth="yes"/>
      <point x="218" y="25"/>
      <point x="154" y="86"/>
      <point x="154" y="161" type="curve" smooth="yes"/>
      <point x="154" y="235"/>
      <point x="218" y="292"/>
    </contour>
  </outline>
</glyph>
<glyph name="nine" format="1">
  <advance width="600"/>
  <unicode hex="0039"/>
  <outline>
    <contour>
      <point x="444" y="360" type="curve"/>
      <point x="445" y="342"/>
      <point x="447" y="326"/>
      <point x="447" y="318" type="curve" smooth="yes"/>
      <point x="447" y="254"/>
      <point x="428" y="192"/>
      <point x="400" y="148" type="curve" smooth="yes"/>
      <point x="352" y="73"/>
      <point x="273" y="25"/>
      <point x="197" y="25" type="curve" smooth="yes"/>
      <point x="178" y="25"/>
      <point x="160" y="29"/>
      <point x="150" y="34" type="curve"/>
      <point x="142" y="39"/>
      <point x="138" y="40"/>
      <point x="133" y="40" type="curve" smooth="yes"/>
      <point x="123" y="40"/>
      <point x="114" y="32"/>
      <point x="114" y="19" type="curve" smooth="yes"/>
      <point x="114" y="1"/>
      <point x="150" y="-15"/>
      <point x="193" y="-15" type="curve" smooth="yes"/>
      <point x="258" y="-15"/>
      <point x="323" y="10"/>
      <point x="376" y="56" type="curve" smooth="yes"/>
      <point x="450" y="119"/>
      <point x="485" y="205"/>
      <point x="485" y="322" type="curve" smooth="yes"/>
      <point x="485" y="496"/>
      <point x="402" y="618"/>
      <point x="284" y="618" type="curve" smooth="yes"/>
      <point x="187" y="618"/>
      <point x="110" y="533"/>
      <point x="110" y="425" type="curve" smooth="yes"/>
      <point x="110" y="323"/>
      <point x="187" y="239"/>
      <point x="278" y="239" type="curve" smooth="yes"/>
      <point x="350" y="239"/>
      <point x="403" y="279"/>
    </contour>
    <contour>
      <point x="438" y="415" type="curve"/>
      <point x="414" y="371"/>
      <point x="403" y="353"/>
      <point x="388" y="337" type="curve" smooth="yes"/>
      <point x="356" y="301"/>
      <point x="316" y="280"/>
      <point x="279" y="280" type="curve" smooth="yes"/>
      <point x="209" y="280"/>
      <point x="152" y="346"/>
      <point x="152" y="425" type="curve" smooth="yes"/>
      <point x="152" y="511"/>
      <point x="209" y="576"/>
      <point x="283" y="576" type="curve" smooth="yes"/>
      <point x="351" y="576"/>
      <point x="402" y="532"/>
      <point x="428" y="448" type="curve"/>
      <point x="432" y="439"/>
      <point x="432" y="438"/>
    </contour>
  </outline>
</glyph>
<glyph name="colon" format="1">
  <advance width="600"/>
  <unicode hex="003A"/>
  <outline>
    <contour>
      <point x="295" y="117" type="line" smooth="yes"/>
      <point x="256" y="117"/>
      <point x="226" y="89"/>
      <point x="226" y="51" type="curve" smooth="yes"/>
      <point x="226" y="15"/>
      <point x="256" y="-15"/>
      <point x="295" y="-15" type="curve" smooth="yes"/>
      <point x="305" y="-15" type="line" smooth="yes"/>
      <point x="343" y="-15"/>
      <point x="374" y="13"/>
      <point x="374" y="51" type="curve" smooth="yes"/>
      <point x="374" y="89"/>
      <point x="343" y="117"/>
      <point x="305" y="117" type="curve" smooth="yes"/>
    </contour>
    <contour>
      <point x="295" y="417" type="line" smooth="yes"/>
      <point x="256" y="417"/>
      <point x="226" y="388"/>
      <point x="226" y="351" type="curve" smooth="yes"/>
      <point x="226" y="314"/>
      <point x="256" y="285"/>
      <point x="295" y="285" type="curve" smooth="yes"/>
      <point x="305" y="285" type="line" smooth="yes"/>
      <point x="343" y="285"/>
      <point x="374" y="314"/>
      <point x="374" y="351" type="curve" smooth="yes"/>
      <point x="374" y="388"/>
      <point x="343" y="417"/>
      <point x="305" y="417" type="curve" smooth="yes"/>
    </contour>
  </outline>
</glyph>
<glyph name="semicolon" format="1">
  <advance width="600"/>
  <unicode hex="003B"/>
  <outline>
    <contour>
      <point x="235" y="144" type="line"/>
      <point x="165" y="-106" type="line" smooth="yes"/>
      <point x="164" y="-109"/>
      <point x="163" y="-112"/>
      <point x="163" y="-117" type="curve" smooth="yes"/>
      <point x="163" y="-132"/>
      <point x="176" y="-144"/>
      <point x="192" y="-144" type="curve" smooth="yes"/>
      <point x="205" y="-144"/>
      <point x="214" y="-140"/>
      <point x="223" y="-120" type="curve"/>
      <point x="368" y="144" type="line"/>
    </contour>
    <contour>
      <point x="295" y="417" type="line" smooth="yes"/>
      <point x="256" y="417"/>
      <point x="226" y="388"/>
      <point x="226" y="351" type="curve" smooth="yes"/>
      <point x="226" y="314"/>
      <point x="256" y="285"/>
      <point x="295" y="285" type="curve" smooth="yes"/>
      <point x="305" y="285" type="line" smooth="yes"/>
      <point x="343" y="285"/>
      <point x="374" y="314"/>
      <point x="374" y="351" type="curve" smooth="yes"/>
      <point x="374" y="388"/>
      <point x="343" y="417"/>
      <point x="305" y="417" type="curve" smooth="yes"/>
    </contour>
  </outline>
</glyph>
<glyph name="less" format="1">
  <advance width="600"/>
  <unicode hex="003C"/>
  <outline>
    <contour>
      <point x="72" y="252" type="line"/>
      <point x="489" y="19" type="line"/>
      <point x="494" y="17"/>
      <point x="499" y="15"/>
      <point x="502" y="15" type="curve" smooth="yes"/>
      <point x="508" y="15"/>
      <point x="515" y="19"/>
      <point x="517" y="25" type="curve"/>
      <point x="519" y="28" type="line"/>
      <point x="521" y="32"/>
      <point x="522" y="35"/>
      <point x="522" y="38" type="curve" smooth="yes"/>
      <point x="522" y="44"/>
      <point x="518" y="50"/>
      <point x="508" y="55" type="curve" smooth="yes"/>
      <point x="154" y="252" type="line"/>
      <point x="508" y="449" type="line" smooth="yes"/>
      <point x="518" y="454"/>
      <point x="522" y="459"/>
      <point x="522" y="467" type="curve" smooth="yes"/>
      <point x="522" y="470"/>
      <point x="521" y="473"/>
      <point x="519" y="476" type="curve"/>
      <point x="518" y="479" type="line"/>
      <point x="515" y="485"/>
      <point x="508" y="489"/>
      <point x="502" y="489" type="curve" smooth="yes"/>
      <point x="499" y="489"/>
      <point x="495" y="487"/>
      <point x="490" y="484" type="curve" smooth="yes"/>
    </contour>
  </outline>
</glyph>
<glyph name="equal" format="1">
  <advance width="600"/>
  <unicode hex="003D"/>
  <outline>
    <contour>
      <point x="522" y="303" type="line" smooth="yes"/>
      <point x="540" y="303"/>
      <point x="549" y="311"/>
      <point x="549" y="325" type="curve" smooth="yes"/>
      <point x="549" y="339"/>
      <point x="540" y="345"/>
      <point x="522" y="345" type="curve" smooth="yes"/>
      <point x="78" y="345" type="line" smooth="yes"/>
      <point x="59" y="345"/>
      <point x="51" y="339"/>
      <point x="51" y="325" type="curve" smooth="yes"/>
      <point x="51" y="311"/>
      <point x="59" y="303"/>
      <point x="78" y="303" type="curve" smooth="yes"/>
    </contour>
    <contour>
      <point x="522" y="160" type="line" smooth="yes"/>
      <point x="540" y="160"/>
      <point x="549" y="167"/>
      <point x="549" y="181" type="curve" smooth="yes"/>
      <point x="549" y="194"/>
      <point x="540" y="201"/>
      <point x="522" y="201" type="curve" smooth="yes"/>
      <point x="78" y="201" type="line" smooth="yes"/>
      <point x="59" y="201"/>
      <point x="51" y="194"/>
      <point x="51" y="181" type="curve" smooth="yes"/>
      <point x="51" y="167"/>
      <point x="59" y="160"/>
      <point x="78" y="160" type="curve" smooth="yes"/>
    </contour>
  </outline>
</glyph>
<glyph name="greater" format="1">
  <advance width="600"/>
  <unicode hex="003E"/>
  <outline>
    <contour>
      <point x="528" y="251" type="line"/>
      <point x="110" y="483" type="line" smooth="yes"/>
      <point x="106" y="485"/>
      <point x="101" y="488"/>
      <point x="98" y="488" type="curve" smooth="yes"/>
      <point x="92" y="488"/>
      <point x="86" y="484"/>
      <point x="83" y="478" type="curve"/>
      <point x="81" y="475" type="line" smooth="yes"/>
      <point x="79" y="472"/>
      <point x="78" y="468"/>
      <point x="78" y="466" type="curve" smooth="yes"/>
      <point x="78" y="459"/>
      <point x="83" y="453"/>
      <point x="91" y="448" type="curve"/>
      <point x="447" y="251" type="line"/>
      <point x="91" y="53" type="line" smooth="yes"/>
      <point x="83" y="49"/>
      <point x="78" y="44"/>
      <point x="78" y="36" type="curve" smooth="yes"/>
      <point x="78" y="33"/>
      <point x="79" y="30"/>
      <point x="81" y="27" type="curve" smooth="yes"/>
      <point x="83" y="24" type="line"/>
      <point x="85" y="18"/>
      <point x="92" y="15"/>
      <point x="98" y="15" type="curve" smooth="yes"/>
      <point x="101" y="15"/>
      <point x="106" y="16"/>
      <point x="110" y="19" type="curve"/>
    </contour>
  </outline>
</glyph>
<glyph name="question" format="1">
  <advance width="600"/>
  <unicode hex="003F"/>
  <outline>
    <contour>
      <point x="322" y="248" type="line"/>
      <point x="447" y="306"/>
      <point x="487" y="350"/>
      <point x="487" y="424" type="curve" smooth="yes"/>
      <point x="487" y="515"/>
      <point x="415" y="576"/>
      <point x="309" y="576" type="curve" smooth="yes"/>
      <point x="258" y="576"/>
      <point x="226" y="569"/>
      <point x="163" y="541" type="curve"/>
      <point x="155" y="538"/>
      <point x="143" y="532"/>
      <point x="133" y="529" type="curve"/>
      <point x="133" y="461" type="line" smooth="yes"/>
      <point x="133" y="443"/>
      <point x="141" y="434"/>
      <point x="155" y="434" type="curve" smooth="yes"/>
      <point x="167" y="434"/>
      <point x="175" y="443"/>
      <point x="175" y="461" type="curve" smooth="yes"/>
      <point x="175" y="502" type="line"/>
      <point x="227" y="528"/>
      <point x="258" y="536"/>
      <point x="303" y="536" type="curve" smooth="yes"/>
      <point x="387" y="536"/>
      <point x="447" y="489"/>
      <point x="447" y="424" type="curve" smooth="yes"/>
      <point x="447" y="367"/>
      <point x="397" y="323"/>
      <point x="282" y="274" type="curve"/>
      <point x="282" y="206" type="line" smooth="yes"/>
      <point x="282" y="188"/>
      <point x="288" y="178"/>
      <point x="302" y="178" type="curve" smooth="yes"/>
      <point x="316" y="178"/>
      <point x="322" y="188"/>
      <point x="322" y="206" type="curve" smooth="yes"/>
    </contour>
    <contour>
      <point x="286" y="85" type="line" smooth="yes"/>
      <point x="252" y="85"/>
      <point x="231" y="66"/>
      <point x="231" y="35" type="curve" smooth="yes"/>
      <point x="231" y="5"/>
      <point x="252" y="-15"/>
      <point x="286" y="-15" type="curve" smooth="yes"/>
      <point x="314" y="-15" type="line" smooth="yes"/>
      <point x="348" y="-15"/>
      <point x="371" y="6"/>
      <point x="371" y="35" type="curve" smooth="yes"/>
      <point x="371" y="66"/>
      <point x="348" y="85"/>
      <point x="314" y="85" type="curve" smooth="yes"/>
    </contour>
  </outline>
</glyph>
<glyph name="at" format="1">
  <advance width="600"/>
  <unicode hex="0040"/>
  <outline>
    <contour>
      <point x="430" y="144" type="line"/>
      <point x="464" y="144" type="line" smooth="yes"/>
      <point x="481" y="144"/>
      <point x="490" y="152"/>
      <point x="490" y="166" type="curve" smooth="yes"/>
      <point x="490" y="177"/>
      <point x="483" y="184"/>
      <point x="471" y="186" type="curve"/>
      <point x="471" y="464" type="line" smooth="yes"/>
      <point x="471" y="555"/>
      <point x="403" y="624"/>
      <point x="312" y="624" type="curve" smooth="yes"/>
      <point x="199" y="624"/>
      <point x="117" y="513"/>
      <point x="117" y="360" type="curve" smooth="yes"/>
      <point x="117" y="198" type="line" smooth="yes"/>
      <point x="117" y="127"/>
      <point x="135" y="66"/>
      <point x="171" y="13" type="curve" smooth="yes"/>
      <point x="208" y="-38"/>
      <point x="251" y="-62"/>
      <point x="311" y="-62" type="curve" smooth="yes"/>
      <point x="385" y="-62"/>
      <point x="461" y="-30"/>
      <point x="461" y="1" type="curve" smooth="yes"/>
      <point x="461" y="11"/>
      <point x="451" y="19"/>
      <point x="441" y="19" type="curve" smooth="yes"/>
      <point x="434" y="19"/>
      <point x="433" y="19"/>
      <point x="422" y="8" type="curve"/>
      <point x="400" y="-8"/>
      <point x="360" y="-21"/>
      <point x="317" y="-21" type="curve" smooth="yes"/>
      <point x="267" y="-21"/>
      <point x="232" y="-2"/>
      <point x="205" y="36" type="curve" smooth="yes"/>
      <point x="175" y="81"/>
      <point x="158" y="138"/>
      <point x="158" y="198" type="curve" smooth="yes"/>
      <point x="158" y="358" type="line" smooth="yes"/>
      <point x="158" y="490"/>
      <point x="222" y="583"/>
      <point x="313" y="583" type="curve" smooth="yes"/>
      <point x="381" y="583"/>
      <point x="430" y="533"/>
      <point x="430" y="464" type="curve" smooth="yes"/>
      <point x="430" y="416" type="line"/>
      <point x="328" y="417"/>
      <point x="254" y="356"/>
      <point x="254" y="272" type="curve" smooth="yes"/>
      <point x="254" y="201"/>
      <point x="312" y="147"/>
      <point x="390" y="147" type="curve" smooth="yes"/>
      <point x="400" y="147"/>
      <point x="410" y="148"/>
      <point x="430" y="150" type="curve"/>
    </contour>
    <contour>
      <point x="430" y="192" type="line"/>
      <point x="417" y="189"/>
      <point x="404" y="188"/>
      <point x="393" y="188" type="curve" smooth="yes"/>
      <point x="335" y="188"/>
      <point x="295" y="223"/>
      <point x="295" y="273" type="curve" smooth="yes"/>
      <point x="295" y="333"/>
      <point x="352" y="376"/>
      <point x="430" y="376" type="curve"/>
    </contour>
  </outline>
</glyph>
<glyph name="A" format="1">
  <advance width="600"/>
  <unicode hex="0041"/>
  <outline>
    <contour>
      <point x="428" y="188" type="line"/>
      <point x="484" y="41" type="line"/>
      <point x="408" y="41" type="line" smooth="yes"/>
      <point x="390" y="41"/>
      <point x="381" y="34"/>
      <point x="381" y="21" type="curve" smooth="yes"/>
      <point x="381" y="7"/>
      <point x="390" y="0"/>
      <point x="408" y="0" type="curve" smooth="yes"/>
      <point x="564" y="0" type="line" smooth="yes"/>
      <point x="583" y="0"/>
      <point x="591" y="7"/>
      <point x="591" y="21" type="curve" smooth="yes"/>
      <point x="591" y="34"/>
      <point x="583" y="41"/>
      <point x="564" y="41" type="curve" smooth="yes"/>
      <point x="527" y="41" type="line"/>
      <point x="330" y="563" type="line"/>
      <point x="126" y="563" type="line" smooth="yes"/>
      <point x="108" y="563"/>
      <point x="100" y="556"/>
      <point x="100" y="542" type="curve" smooth="yes"/>
      <point x="100" y="529"/>
      <point x="108" y="522"/>
      <point x="126" y="522" type="curve" smooth="yes"/>
      <point x="246" y="522" type="line"/>
      <point x="67" y="41" type="line"/>
      <point x="36" y="41" type="line" smooth="yes"/>
      <point x="18" y="41"/>
      <point x="8" y="34"/>
      <point x="8" y="21" type="curve" smooth="yes"/>
      <point x="8" y="7"/>
      <point x="18" y="0"/>
      <point x="36" y="0" type="curve" smooth="yes"/>
      <point x="187" y="0" type="line" smooth="yes"/>
      <point x="205" y="0"/>
      <point x="214" y="7"/>
      <point x="214" y="21" type="curve" smooth="yes"/>
      <point x="214" y="34"/>
      <point x="205" y="41"/>
      <point x="187" y="41" type="curve" smooth="yes"/>
      <point x="108" y="41" type="line"/>
      <point x="161" y="188" type="line"/>
    </contour>
    <contour>
      <point x="413" y="229" type="line"/>
      <point x="178" y="229" type="line"/>
      <point x="286" y="522" type="line"/>
      <point x="301" y="522" type="line"/>
    </contour>
  </outline>
</glyph>
<glyph name="B" format="1">
  <advance width="600"/>
  <unicode hex="0042"/>
  <outline>
    <contour>
      <point x="124" y="41" type="line"/>
      <point x="70" y="41" type="line" smooth="yes"/>
      <point x="52" y="41"/>
      <point x="42" y="34"/>
      <point x="42" y="21" type="curve" smooth="yes"/>
      <point x="42" y="7"/>
      <point x="52" y="0"/>
      <point x="70" y="0" type="curve" smooth="yes"/>
      <point x="376" y="0" type="line" smooth="yes"/>
      <point x="467" y="0"/>
      <point x="541" y="69"/>
      <point x="541" y="153" type="curve" smooth="yes"/>
      <point x="541" y="220"/>
      <point x="498" y="268"/>
      <point x="414" y="299" type="curve"/>
      <point x="473" y="330"/>
      <point x="499" y="367"/>
      <point x="499" y="417" type="curve" smooth="yes"/>
      <point x="499" y="500"/>
      <point x="425" y="563"/>
      <point x="328" y="563" type="curve" smooth="yes"/>
      <point x="70" y="563" type="line" smooth="yes"/>
      <point x="52" y="563"/>
      <point x="42" y="556"/>
      <point x="42" y="542" type="curve" smooth="yes"/>
      <point x="42" y="529"/>
      <point x="52" y="522"/>
      <point x="70" y="522" type="curve" smooth="yes"/>
      <point x="124" y="522" type="line"/>
    </contour>
    <contour>
      <point x="165" y="313" type="line"/>
      <point x="165" y="522" type="line"/>
      <point x="329" y="522" type="line" smooth="yes"/>
      <point x="402" y="522"/>
      <point x="458" y="477"/>
      <point x="458" y="419" type="curve" smooth="yes"/>
      <point x="458" y="357"/>
      <point x="397" y="313"/>
      <point x="312" y="313" type="curve" smooth="yes"/>
    </contour>
    <contour>
      <point x="165" y="41" type="line"/>
      <point x="165" y="272" type="line"/>
      <point x="314" y="272" type="line" smooth="yes"/>
      <point x="375" y="272"/>
      <point x="409" y="265"/>
      <point x="441" y="246" type="curve" smooth="yes"/>
      <point x="478" y="225"/>
      <point x="500" y="189"/>
      <point x="500" y="153" type="curve" smooth="yes"/>
      <point x="500" y="91"/>
      <point x="444" y="41"/>
      <point x="373" y="41" type="curve" smooth="yes"/>
    </contour>
  </outline>
</glyph>
<glyph name="D" format="1">
  <advance width="600"/>
  <unicode hex="0044"/>
  <outline>
    <contour>
      <point x="124" y="41" type="line"/>
      <point x="90" y="41" type="line" smooth="yes"/>
      <point x="72" y="41"/>
      <point x="63" y="34"/>
      <point x="63" y="21" type="curve" smooth="yes"/>
      <point x="63" y="7"/>
      <point x="72" y="0"/>
      <point x="90" y="0" type="curve" smooth="yes"/>
      <point x="309" y="0" type="line" smooth="yes"/>
      <point x="439" y="0"/>
      <point x="540" y="112"/>
      <point x="540" y="254" type="curve" smooth="yes"/>
      <point x="540" y="309" type="line" smooth="yes"/>
      <point x="540" y="451"/>
      <point x="439" y="563"/>
      <point x="309" y="563" type="curve" smooth="yes"/>
      <point x="90" y="563" type="line" smooth="yes"/>
      <point x="72" y="563"/>
      <point x="63" y="556"/>
      <point x="63" y="542" type="curve" smooth="yes"/>
      <point x="63" y="529"/>
      <point x="72" y="522"/>
      <point x="90" y="522" type="curve" smooth="yes"/>
      <point x="124" y="522" type="line"/>
    </contour>
    <contour>
      <point x="165" y="41" type="line"/>
      <point x="165" y="522" type="line"/>
      <point x="308" y="522" type="line" smooth="yes"/>
      <point x="362" y="522"/>
      <point x="399" y="507"/>
      <point x="434" y="472" type="curve" smooth="yes"/>
      <point x="475" y="431"/>
      <point x="499" y="371"/>
      <point x="499" y="318" type="curve" smooth="yes"/>
      <point x="499" y="245" type="line" smooth="yes"/>
      <point x="499" y="140"/>
      <point x="411" y="41"/>
      <point x="316" y="41" type="curve" smooth="yes"/>
    </contour>
  </outline>
</glyph>
<glyph name="H" format="1">
  <advance width="600"/>
  <unicode hex="0048"/>
  <outline>
    <contour>
      <point x="437" y="272" type="line"/>
      <point x="437" y="41" type="line"/>
      <point x="383" y="41" type="line" smooth="yes"/>
      <point x="365" y="41"/>
      <point x="356" y="34"/>
      <point x="356" y="21" type="curve" smooth="yes"/>
      <point x="356" y="7"/>
      <point x="365" y="0"/>
      <point x="383" y="0" type="curve" smooth="yes"/>
      <point x="524" y="0" type="line" smooth="yes"/>
      <point x="541" y="0"/>
      <point x="551" y="7"/>
      <point x="551" y="21" type="curve" smooth="yes"/>
      <point x="551" y="34"/>
      <point x="542" y="41"/>
      <point x="524" y="41" type="curve" smooth="yes"/>
      <point x="478" y="41" type="line"/>
      <point x="478" y="522" type="line"/>
      <point x="502" y="522" type="line" smooth="yes"/>
      <point x="521" y="522"/>
      <point x="530" y="529"/>
      <point x="530" y="542" type="curve" smooth="yes"/>
      <point x="530" y="556"/>
      <point x="521" y="563"/>
      <point x="502" y="563" type="curve" smooth="yes"/>
      <point x="383" y="563" type="line" smooth="yes"/>
      <point x="365" y="563"/>
      <point x="356" y="556"/>
      <point x="356" y="542" type="curve" smooth="yes"/>
      <point x="356" y="529"/>
      <point x="365" y="522"/>
      <point x="383" y="522" type="curve" smooth="yes"/>
      <point x="437" y="522" type="line"/>
      <point x="437" y="313" type="line"/>
      <point x="165" y="313" type="line"/>
      <point x="165" y="522" type="line"/>
      <point x="218" y="522" type="line" smooth="yes"/>
      <point x="237" y="522"/>
      <point x="246" y="529"/>
      <point x="246" y="542" type="curve" smooth="yes"/>
      <point x="246" y="556"/>
      <point x="237" y="563"/>
      <point x="218" y="563" type="curve" smooth="yes"/>
      <point x="100" y="563" type="line" smooth="yes"/>
      <point x="81" y="563"/>
      <point x="72" y="556"/>
      <point x="72" y="542" type="curve" smooth="yes"/>
      <point x="72" y="529"/>
      <point x="81" y="522"/>
      <point x="100" y="522" type="curve" smooth="yes"/>
      <point x="124" y="522" type="line"/>
      <point x="124" y="41" type="line"/>
      <point x="79" y="41" type="line" smooth="yes"/>
      <point x="59" y="41"/>
      <point x="51" y="34"/>
      <point x="51" y="21" type="curve" smooth="yes"/>
      <point x="51" y="7"/>
      <point x="61" y="0"/>
      <point x="79" y="0" type="curve" smooth="yes"/>
      <point x="218" y="0" type="line" smooth="yes"/>
      <point x="237" y="0"/>
      <point x="246" y="7"/>
      <point x="246" y="21" type="curve" smooth="yes"/>
      <point x="246" y="34"/>
      <point x="237" y="41"/>
      <point x="218" y="41" type="curve" smooth="yes"/>
      <point x="165" y="41" type="line"/>
      <point x="165" y="272" type="line"/>
    </contour>
  </outline>
</glyph>
<glyph name="I" format="1">
  <advance width="600"/>
  <unicode hex="0049"/>
  <outline>
    <contour>
      <point x="320" y="522" type="line"/>
      <point x="459" y="522" type="line" smooth="yes"/>
      <point x="478" y="522"/>
      <point x="487" y="529"/>
      <point x="487" y="542" type="curve" smooth="yes"/>
      <point x="487" y="556"/>
      <point x="478" y="563"/>
      <point x="459" y="563" type="curve" smooth="yes"/>
      <point x="140" y="563" type="line" smooth="yes"/>
      <point x="123" y="563"/>
      <point x="113" y="556"/>
      <point x="113" y="542" type="curve" smooth="yes"/>
      <point x="113" y="529"/>
      <point x="123" y="522"/>
      <point x="140" y="522" type="curve" smooth="yes"/>
      <point x="279" y="522" type="line"/>
      <point x="279" y="41" type="line"/>
      <point x="140" y="41" type="line" smooth="yes"/>
      <point x="123" y="41"/>
      <point x="113" y="34"/>
      <point x="113" y="21" type="curve" smooth="yes"/>
      <point x="113" y="7"/>
      <point x="123" y="0"/>
      <point x="140" y="0" type="curve" smooth="yes"/>
      <point x="459" y="0" type="line" smooth="yes"/>
      <point x="477" y="0"/>
      <point x="487" y="7"/>
      <point x="487" y="21" type="curve" smooth="yes"/>
      <point x="487" y="34"/>
      <point x="478" y="41"/>
      <point x="459" y="41" type="curve" smooth="yes"/>
      <point x="320" y="41" type="line"/>
    </contour>
  </outline>
</glyph>
<glyph name="J" format="1">
  <advance width="600"/>
  <unicode hex="004A"/>
  <outline>
    <contour>
      <point x="437" y="522" type="line"/>
      <point x="533" y="522" type="line" smooth="yes"/>
      <point x="551" y="522"/>
      <point x="559" y="529"/>
      <point x="559" y="542" type="curve" smooth="yes"/>
      <point x="559" y="556"/>
      <point x="551" y="563"/>
      <point x="533" y="563" type="curve" smooth="yes"/>
      <point x="237" y="563" type="line" smooth="yes"/>
      <point x="218" y="563"/>
      <point x="210" y="556"/>
      <point x="210" y="542" type="curve" smooth="yes"/>
      <point x="210" y="529"/>
      <point x="218" y="522"/>
      <point x="237" y="522" type="curve" smooth="yes"/>
      <point x="396" y="522" type="line"/>
      <point x="396" y="165" type="line" smooth="yes"/>
      <point x="396" y="87"/>
      <point x="331" y="25"/>
      <point x="250" y="25" type="curve" smooth="yes"/>
      <point x="200" y="25"/>
      <point x="153" y="47"/>
      <point x="102" y="93" type="curve"/>
      <point x="102" y="223" type="line" smooth="yes"/>
      <point x="102" y="242"/>
      <point x="95" y="250"/>
      <point x="83" y="250" type="curve" smooth="yes"/>
      <point x="68" y="250"/>
      <point x="61" y="242"/>
      <point x="61" y="223" type="curve" smooth="yes"/>
      <point x="61" y="74" type="line"/>
      <point x="133" y="8"/>
      <point x="184" y="-16"/>
      <point x="249" y="-16" type="curve" smooth="yes"/>
      <point x="352" y="-16"/>
      <point x="437" y="66"/>
      <point x="437" y="165" type="curve" smooth="yes"/>
    </contour>
  </outline>
</glyph>
<glyph name="K" format="1">
  <advance width="600"/>
  <unicode hex="004B"/>
  <outline>
    <contour>
      <point x="165" y="221" type="line"/>
      <point x="246" y="294" type="line"/>
      <point x="341" y="263"/>
      <point x="385" y="203"/>
      <point x="458" y="0" type="curve"/>
      <point x="545" y="0" type="line" smooth="yes"/>
      <point x="563" y="0"/>
      <point x="572" y="7"/>
      <point x="572" y="21" type="curve" smooth="yes"/>
      <point x="572" y="34"/>
      <point x="563" y="41"/>
      <point x="545" y="41" type="curve" smooth="yes"/>
      <point x="489" y="41" type="line"/>
      <point x="414" y="233"/>
      <point x="377" y="284"/>
      <point x="280" y="324" type="curve"/>
      <point x="502" y="522" type="line"/>
      <point x="518" y="522" type="line" smooth="yes"/>
      <point x="536" y="522"/>
      <point x="546" y="529"/>
      <point x="546" y="542" type="curve" smooth="yes"/>
      <point x="546" y="556"/>
      <point x="536" y="563"/>
      <point x="518" y="563" type="curve" smooth="yes"/>
      <point x="400" y="563" type="line" smooth="yes"/>
      <point x="381" y="563"/>
      <point x="373" y="556"/>
      <point x="373" y="542" type="curve" smooth="yes"/>
      <point x="373" y="529"/>
      <point x="381" y="522"/>
      <point x="400" y="522" type="curve" smooth="yes"/>
      <point x="445" y="522" type="line"/>
      <point x="165" y="273" type="line"/>
      <point x="165" y="522" type="line"/>
      <point x="240" y="522" type="line" smooth="yes"/>
      <point x="258" y="522"/>
      <point x="267" y="529"/>
      <point x="267" y="542" type="curve" smooth="yes"/>
      <point x="267" y="556"/>
      <point x="258" y="563"/>
      <point x="240" y="563" type="curve" smooth="yes"/>
      <point x="70" y="563" type="line" smooth="yes"/>
      <point x="52" y="563"/>
      <point x="42" y="556"/>
      <point x="42" y="542" type="curve" smooth="yes"/>
      <point x="42" y="529"/>
      <point x="52" y="522"/>
      <point x="70" y="522" type="curve" smooth="yes"/>
      <point x="124" y="522" type="line"/>
      <point x="124" y="41" type="line"/>
      <point x="70" y="41" type="line" smooth="yes"/>
      <point x="52" y="41"/>
      <point x="42" y="34"/>
      <point x="42" y="21" type="curve" smooth="yes"/>
      <point x="42" y="7"/>
      <point x="52" y="0"/>
      <point x="70" y="0" type="curve" smooth="yes"/>
      <point x="240" y="0" type="line" smooth="yes"/>
      <point x="258" y="0"/>
      <point x="267" y="7"/>
      <point x="267" y="21" type="curve" smooth="yes"/>
      <point x="267" y="34"/>
      <point x="258" y="41"/>
      <point x="240" y="41" type="curve" smooth="yes"/>
      <point x="165" y="41" type="line"/>
    </contour>
  </outline>
</glyph>
<glyph name="L" format="1">
  <advance width="600"/>
  <unicode hex="004C"/>
  <outline>
    <contour>
      <point x="208" y="522" type="line"/>
      <point x="283" y="522" type="line" smooth="yes"/>
      <point x="301" y="522"/>
      <point x="309" y="529"/>
      <point x="309" y="542" type="curve" smooth="yes"/>
      <point x="309" y="556"/>
      <point x="301" y="563"/>
      <point x="283" y="563" type="curve" smooth="yes"/>
      <point x="90" y="563" type="line" smooth="yes"/>
      <point x="72" y="563"/>
      <point x="63" y="556"/>
      <point x="63" y="542" type="curve" smooth="yes"/>
      <point x="63" y="529"/>
      <point x="72" y="522"/>
      <point x="90" y="522" type="curve" smooth="yes"/>
      <point x="166" y="522" type="line"/>
      <point x="166" y="41" type="line"/>
      <point x="90" y="41" type="line" smooth="yes"/>
      <point x="72" y="41"/>
      <point x="63" y="34"/>
      <point x="63" y="21" type="curve" smooth="yes"/>
      <point x="63" y="7"/>
      <point x="72" y="0"/>
      <point x="90" y="0" type="curve" smooth="yes"/>
      <point x="525" y="0" type="line"/>
      <point x="525" y="201" type="line" smooth="yes"/>
      <point x="525" y="218"/>
      <point x="519" y="228"/>
      <point x="506" y="228" type="curve" smooth="yes"/>
      <point x="492" y="228"/>
      <point x="485" y="218"/>
      <point x="485" y="201" type="curve" smooth="yes"/>
      <point x="485" y="41" type="line"/>
      <point x="208" y="41" type="line"/>
    </contour>
  </outline>
</glyph>
<glyph name="M" format="1">
  <advance width="600"/>
  <unicode hex="004D"/>
  <outline>
    <contour>
      <point x="326" y="169" type="line"/>
      <point x="483" y="522" type="line"/>
      <point x="492" y="522" type="line"/>
      <point x="492" y="41" type="line"/>
      <point x="417" y="41" type="line" smooth="yes"/>
      <point x="399" y="41"/>
      <point x="390" y="34"/>
      <point x="390" y="21" type="curve" smooth="yes"/>
      <point x="390" y="7"/>
      <point x="399" y="0"/>
      <point x="417" y="0" type="curve" smooth="yes"/>
      <point x="566" y="0" type="line" smooth="yes"/>
      <point x="584" y="0"/>
      <point x="593" y="7"/>
      <point x="593" y="21" type="curve" smooth="yes"/>
      <point x="593" y="34"/>
      <point x="584" y="41"/>
      <point x="566" y="41" type="curve" smooth="yes"/>
      <point x="532" y="41" type="line"/>
      <point x="532" y="522" type="line"/>
      <point x="557" y="522" type="line" smooth="yes"/>
      <point x="575" y="522"/>
      <point x="584" y="529"/>
      <point x="584" y="542" type="curve" smooth="yes"/>
      <point x="584" y="556"/>
      <point x="575" y="563"/>
      <point x="557" y="563" type="curve" smooth="yes"/>
      <point x="458" y="563" type="line"/>
      <point x="303" y="215" type="line"/>
      <point x="146" y="563" type="line"/>
      <point x="47" y="563" type="line" smooth="yes"/>
      <point x="29" y="563"/>
      <point x="19" y="556"/>
      <point x="19" y="542" type="curve" smooth="yes"/>
      <point x="19" y="529"/>
      <point x="29" y="522"/>
      <point x="47" y="522" type="curve" smooth="yes"/>
      <point x="72" y="522" type="line"/>
      <point x="72" y="41" type="line"/>
      <point x="38" y="41" type="line" smooth="yes"/>
      <point x="19" y="41"/>
      <point x="11" y="34"/>
      <point x="11" y="21" type="curve" smooth="yes"/>
      <point x="11" y="7"/>
      <point x="19" y="0"/>
      <point x="38" y="0" type="curve" smooth="yes"/>
      <point x="187" y="0" type="line" smooth="yes"/>
      <point x="205" y="0"/>
      <point x="215" y="7"/>
      <point x="215" y="21" type="curve" smooth="yes"/>
      <point x="215" y="34"/>
      <point x="206" y="41"/>
      <point x="187" y="41" type="curve" smooth="yes"/>
      <point x="113" y="41" type="line"/>
      <point x="113" y="522" type="line"/>
      <point x="121" y="522" type="line"/>
      <point x="280" y="169" type="line"/>
    </contour>
  </outline>
</glyph>
<glyph name="O" format="1">
  <advance width="600"/>
  <unicode hex="004F"/>
  <outline>
    <contour>
      <point x="300" y="576" type="curve" smooth="yes"/>
      <point x="161" y="576"/>
      <point x="51" y="445"/>
      <point x="51" y="280" type="curve" smooth="yes"/>
      <point x="51" y="115"/>
      <point x="161" y="-16"/>
      <point x="300" y="-16" type="curve" smooth="yes"/>
      <point x="437" y="-16"/>
      <point x="549" y="115"/>
      <point x="549" y="275" type="curve" smooth="yes"/>
      <point x="549" y="447"/>
      <point x="441" y="576"/>
    </contour>
    <contour>
      <point x="300" y="535" type="curve" smooth="yes"/>
      <point x="416" y="535"/>
      <point x="508" y="421"/>
      <point x="508" y="277" type="curve" smooth="yes"/>
      <point x="508" y="140"/>
      <point x="413" y="25"/>
      <point x="300" y="25" type="curve" smooth="yes"/>
      <point x="186" y="25"/>
      <point x="92" y="140"/>
      <point x="92" y="280" type="curve" smooth="yes"/>
      <point x="92" y="420"/>
      <point x="184" y="535"/>
    </contour>
  </outline>
</glyph>
<glyph name="P" format="1">
  <advance width="600"/>
  <unicode hex="0050"/>
  <outline>
    <contour>
      <point x="165" y="231" type="line"/>
      <point x="333" y="231" type="line" smooth="yes"/>
      <point x="447" y="231"/>
      <point x="535" y="305"/>
      <point x="535" y="398" type="curve" smooth="yes"/>
      <point x="535" y="492"/>
      <point x="451" y="563"/>
      <point x="346" y="563" type="curve" smooth="yes"/>
      <point x="70" y="563" type="line" smooth="yes"/>
      <point x="52" y="563"/>
      <point x="42" y="556"/>
      <point x="42" y="542" type="curve" smooth="yes"/>
      <point x="42" y="529"/>
      <point x="52" y="522"/>
      <point x="70" y="522" type="curve" smooth="yes"/>
      <point x="124" y="522" type="line"/>
      <point x="124" y="41" type="line"/>
      <point x="70" y="41" type="line" smooth="yes"/>
      <point x="52" y="41"/>
      <point x="42" y="34"/>
      <point x="42" y="21" type="curve" smooth="yes"/>
      <point x="42" y="7"/>
      <point x="52" y="0"/>
      <point x="70" y="0" type="curve" smooth="yes"/>
      <point x="303" y="0" type="line" smooth="yes"/>
      <point x="322" y="0"/>
      <point x="331" y="7"/>
      <point x="331" y="21" type="curve" smooth="yes"/>
      <point x="331" y="34"/>
      <point x="322" y="41"/>
      <point x="303" y="41" type="curve" smooth="yes"/>
      <point x="165" y="41" type="line"/>
    </contour>
    <contour>
      <point x="165" y="272" type="line"/>
      <point x="165" y="522" type="line"/>
      <point x="350" y="522" type="line" smooth="yes"/>
      <point x="428" y="522"/>
      <point x="494" y="466"/>
      <point x="494" y="398" type="curve" smooth="yes"/>
      <point x="494" y="329"/>
      <point x="422" y="272"/>
      <point x="335" y="272" type="curve" smooth="yes"/>
    </contour>
  </outline>
</glyph>
<glyph name="Q" format="1">
  <advance width="600"/>
  <unicode hex="0051"/>
  <outline>
    <contour>
      <point x="305" y="-16" type="line"/>
      <point x="443" y="-12"/>
      <point x="549" y="117"/>
      <point x="549" y="280" type="curve" smooth="yes"/>
      <point x="549" y="445"/>
      <point x="439" y="576"/>
      <point x="300" y="576" type="curve" smooth="yes"/>
      <point x="161" y="576"/>
      <point x="51" y="445"/>
      <point x="51" y="280" type="curve" smooth="yes"/>
      <point x="51" y="140"/>
      <point x="135" y="15"/>
      <point x="249" y="-10" type="curve"/>
      <point x="159" y="-75" type="line" smooth="yes"/>
      <point x="152" y="-80"/>
      <point x="148" y="-86"/>
      <point x="148" y="-93" type="curve" smooth="yes"/>
      <point x="148" y="-106"/>
      <point x="157" y="-114"/>
      <point x="167" y="-114" type="curve" smooth="yes"/>
      <point x="171" y="-114"/>
      <point x="174" y="-113"/>
      <point x="178" y="-112" type="curve" smooth="yes"/>
      <point x="221" y="-100"/>
      <point x="288" y="-89"/>
      <point x="318" y="-89" type="curve" smooth="yes"/>
      <point x="343" y="-89"/>
      <point x="359" y="-92"/>
      <point x="386" y="-102" type="curve" smooth="yes"/>
      <point x="415" y="-112"/>
      <point x="426" y="-115"/>
      <point x="442" y="-115" type="curve" smooth="yes"/>
      <point x="484" y="-115"/>
      <point x="546" y="-84"/>
      <point x="546" y="-64" type="curve" smooth="yes"/>
      <point x="546" y="-52"/>
      <point x="536" y="-42"/>
      <point x="525" y="-42" type="curve" smooth="yes"/>
      <point x="522" y="-42"/>
      <point x="518" y="-44"/>
      <point x="515" y="-47" type="curve"/>
      <point x="483" y="-67"/>
      <point x="466" y="-74"/>
      <point x="445" y="-74" type="curve" smooth="yes"/>
      <point x="432" y="-74"/>
      <point x="424" y="-72"/>
      <point x="400" y="-63" type="curve" smooth="yes"/>
      <point x="370" y="-52"/>
      <point x="347" y="-49"/>
      <point x="318" y="-49" type="curve" smooth="yes"/>
      <point x="297" y="-49"/>
      <point x="282" y="-50"/>
      <point x="251" y="-56" type="curve"/>
    </contour>
    <contour>
      <point x="300" y="535" type="curve" smooth="yes"/>
      <point x="416" y="535"/>
      <point x="508" y="421"/>
      <point x="508" y="277" type="curve" smooth="yes"/>
      <point x="508" y="140"/>
      <point x="413" y="25"/>
      <point x="300" y="25" type="curve" smooth="yes"/>
      <point x="186" y="25"/>
      <point x="92" y="140"/>
      <point x="92" y="280" type="curve" smooth="yes"/>
      <point x="92" y="420"/>
      <point x="184" y="535"/>
    </contour>
  </outline>
</glyph>
<glyph name="R" format="1">
  <advance width="600"/>
  <unicode hex="0052"/>
  <outline>
    <contour>
      <point x="165" y="251" type="line"/>
      <point x="297" y="251" type="line"/>
      <point x="373" y="216"/>
      <point x="417" y="161"/>
      <point x="505" y="0" type="curve"/>
      <point x="562" y="0" type="line" smooth="yes"/>
      <point x="580" y="0"/>
      <point x="589" y="7"/>
      <point x="589" y="21" type="curve" smooth="yes"/>
      <point x="589" y="34"/>
      <point x="580" y="41"/>
      <point x="562" y="41" type="curve" smooth="yes"/>
      <point x="532" y="41" type="line"/>
      <point x="450" y="182"/>
      <point x="422" y="218"/>
      <point x="359" y="262" type="curve"/>
      <point x="451" y="294"/>
      <point x="498" y="342"/>
      <point x="498" y="407" type="curve" smooth="yes"/>
      <point x="498" y="492"/>
      <point x="415" y="563"/>
      <point x="318" y="563" type="curve" smooth="yes"/>
      <point x="70" y="563" type="line" smooth="yes"/>
      <point x="52" y="563"/>
      <point x="42" y="556"/>
      <point x="42" y="542" type="curve" smooth="yes"/>
      <point x="42" y="529"/>
      <point x="52" y="522"/>
      <point x="70" y="522" type="curve" smooth="yes"/>
      <point x="124" y="522" type="line"/>
      <point x="124" y="41" type="line"/>
      <point x="70" y="41" type="line" smooth="yes"/>
      <point x="52" y="41"/>
      <point x="42" y="34"/>
      <point x="42" y="21" type="curve" smooth="yes"/>
      <point x="42" y="7"/>
      <point x="52" y="0"/>
      <point x="70" y="0" type="curve" smooth="yes"/>
      <point x="240" y="0" type="line" smooth="yes"/>
      <point x="258" y="0"/>
      <point x="267" y="7"/>
      <point x="267" y="21" type="curve" smooth="yes"/>
      <point x="267" y="34"/>
      <point x="258" y="41"/>
      <point x="240" y="41" type="curve" smooth="yes"/>
      <point x="165" y="41" type="line"/>
    </contour>
    <contour>
      <point x="165" y="292" type="line"/>
      <point x="165" y="522" type="line"/>
      <point x="318" y="522" type="line" smooth="yes"/>
      <point x="390" y="522"/>
      <point x="458" y="468"/>
      <point x="458" y="408" type="curve" smooth="yes"/>
      <point x="458" y="343"/>
      <point x="377" y="292"/>
      <point x="279" y="292" type="curve" smooth="yes"/>
    </contour>
  </outline>
</glyph>
<glyph name="S" format="1">
  <advance width="600"/>
  <unicode hex="0053"/>
  <outline>
    <contour>
      <point x="445" y="517" type="line"/>
      <point x="403" y="558"/>
      <point x="358" y="576"/>
      <point x="299" y="576" type="curve" smooth="yes"/>
      <point x="194" y="576"/>
      <point x="115" y="508"/>
      <point x="115" y="421" type="curve" smooth="yes"/>
      <point x="115" y="379"/>
      <point x="133" y="340"/>
      <point x="167" y="317" type="curve" smooth="yes"/>
      <point x="197" y="295"/>
      <point x="233" y="283"/>
      <point x="303" y="271" type="curve" smooth="yes"/>
      <point x="374" y="258"/>
      <point x="394" y="252"/>
      <point x="419" y="237" type="curve" smooth="yes"/>
      <point x="447" y="220"/>
      <point x="464" y="188"/>
      <point x="464" y="153" type="curve" smooth="yes"/>
      <point x="464" y="79"/>
      <point x="394" y="25"/>
      <point x="301" y="25" type="curve" smooth="yes"/>
      <point x="210" y="25"/>
      <point x="136" y="76"/>
      <point x="133" y="142" type="curve" smooth="yes"/>
      <point x="132" y="158"/>
      <point x="126" y="166"/>
      <point x="113" y="166" type="curve" smooth="yes"/>
      <point x="100" y="166"/>
      <point x="92" y="157"/>
      <point x="92" y="140" type="curve" smooth="yes"/>
      <point x="92" y="27" type="line" smooth="yes"/>
      <point x="92" y="8"/>
      <point x="100" y="0"/>
      <point x="112" y="0" type="curve" smooth="yes"/>
      <point x="126" y="0"/>
      <point x="133" y="8"/>
      <point x="133" y="27" type="curve" smooth="yes"/>
      <point x="133" y="56" type="line"/>
      <point x="174" y="8"/>
      <point x="233" y="-16"/>
      <point x="302" y="-16" type="curve" smooth="yes"/>
      <point x="422" y="-16"/>
      <point x="508" y="53"/>
      <point x="508" y="150" type="curve" smooth="yes"/>
      <point x="508" y="201"/>
      <point x="485" y="245"/>
      <point x="447" y="269" type="curve" smooth="yes"/>
      <point x="416" y="288"/>
      <point x="388" y="296"/>
      <point x="311" y="309" type="curve" smooth="yes"/>
      <point x="249" y="319"/>
      <point x="225" y="326"/>
      <point x="198" y="343" type="curve"/>
      <point x="174" y="360"/>
      <point x="159" y="390"/>
      <point x="159" y="420" type="curve" smooth="yes"/>
      <point x="159" y="485"/>
      <point x="220" y="535"/>
      <point x="302" y="535" type="curve" smooth="yes"/>
      <point x="380" y="535"/>
      <point x="441" y="490"/>
      <point x="445" y="430" type="curve"/>
      <point x="447" y="414"/>
      <point x="453" y="407"/>
      <point x="466" y="407" type="curve" smooth="yes"/>
      <point x="479" y="407"/>
      <point x="485" y="415"/>
      <point x="485" y="433" type="curve" smooth="yes"/>
      <point x="485" y="536" type="line" smooth="yes"/>
      <point x="485" y="553"/>
      <point x="479" y="563"/>
      <point x="466" y="563" type="curve" smooth="yes"/>
      <point x="451" y="563"/>
      <point x="445" y="553"/>
      <point x="445" y="536" type="curve" smooth="yes"/>
    </contour>
  </outline>
</glyph>
<glyph name="V" format="1">
  <advance width="600"/>
  <unicode hex="0056"/>
  <outline>
    <contour>
      <point x="267" y="0" type="line"/>
      <point x="324" y="0" type="line"/>
      <point x="533" y="522" type="line"/>
      <point x="564" y="522" type="line" smooth="yes"/>
      <point x="583" y="522"/>
      <point x="591" y="529"/>
      <point x="591" y="542" type="curve" smooth="yes"/>
      <point x="591" y="557"/>
      <point x="583" y="563"/>
      <point x="564" y="563" type="curve" smooth="yes"/>
      <point x="414" y="563" type="line" smooth="yes"/>
      <point x="394" y="563"/>
      <point x="387" y="556"/>
      <point x="387" y="542" type="curve" smooth="yes"/>
      <point x="387" y="529"/>
      <point x="396" y="522"/>
      <point x="414" y="522" type="curve" smooth="yes"/>
      <point x="492" y="522" type="line"/>
      <point x="299" y="41" type="line"/>
      <point x="296" y="41" type="line"/>
      <point x="110" y="522" type="line"/>
      <point x="187" y="522" type="line" smooth="yes"/>
      <point x="205" y="522"/>
      <point x="214" y="529"/>
      <point x="214" y="542" type="curve" smooth="yes"/>
      <point x="214" y="557"/>
      <point x="205" y="563"/>
      <point x="187" y="563" type="curve" smooth="yes"/>
      <point x="36" y="563" type="line" smooth="yes"/>
      <point x="18" y="563"/>
      <point x="8" y="557"/>
      <point x="8" y="542" type="curve" smooth="yes"/>
      <point x="8" y="529"/>
      <point x="18" y="522"/>
      <point x="36" y="522" type="curve" smooth="yes"/>
      <point x="67" y="522" type="line"/>
    </contour>
  </outline>
</glyph>
<glyph name="W" format="1">
  <advance width="600"/>
  <unicode hex="0057"/>
  <outline>
    <contour>
      <point x="123" y="0" type="line"/>
      <point x="184" y="0" type="line"/>
      <point x="300" y="400" type="line"/>
      <point x="411" y="0" type="line"/>
      <point x="476" y="0" type="line"/>
      <point x="538" y="522" type="line"/>
      <point x="558" y="522" type="line" smooth="yes"/>
      <point x="576" y="522"/>
      <point x="585" y="529"/>
      <point x="585" y="542" type="curve" smooth="yes"/>
      <point x="585" y="556"/>
      <point x="576" y="563"/>
      <point x="558" y="563" type="curve" smooth="yes"/>
      <point x="413" y="563" type="line" smooth="yes"/>
      <point x="394" y="563"/>
      <point x="386" y="556"/>
      <point x="386" y="542" type="curve" smooth="yes"/>
      <point x="386" y="529"/>
      <point x="394" y="522"/>
      <point x="413" y="522" type="curve" smooth="yes"/>
      <point x="499" y="522" type="line"/>
      <point x="442" y="46" type="line"/>
      <point x="333" y="438" type="line"/>
      <point x="271" y="438" type="line"/>
      <point x="159" y="46" type="line"/>
      <point x="103" y="522" type="line"/>
      <point x="186" y="522" type="line" smooth="yes"/>
      <point x="205" y="522"/>
      <point x="214" y="529"/>
      <point x="214" y="542" type="curve" smooth="yes"/>
      <point x="214" y="556"/>
      <point x="205" y="563"/>
      <point x="186" y="563" type="curve" smooth="yes"/>
      <point x="42" y="563" type="line" smooth="yes"/>
      <point x="24" y="563"/>
      <point x="15" y="556"/>
      <point x="15" y="542" type="curve" smooth="yes"/>
      <point x="15" y="529"/>
      <point x="24" y="522"/>
      <point x="42" y="522" type="curve" smooth="yes"/>
      <point x="62" y="522" type="line"/>
    </contour>
  </outline>
</glyph>
<glyph name="X" format="1">
  <advance width="600"/>
  <unicode hex="0058"/>
  <outline>
    <contour>
      <point x="325" y="288" type="line"/>
      <point x="504" y="522" type="line"/>
      <point x="519" y="522" type="line" smooth="yes"/>
      <point x="536" y="522"/>
      <point x="546" y="529"/>
      <point x="546" y="542" type="curve" smooth="yes"/>
      <point x="546" y="557"/>
      <point x="536" y="563"/>
      <point x="519" y="563" type="curve" smooth="yes"/>
      <point x="408" y="563" type="line" smooth="yes"/>
      <point x="390" y="563"/>
      <point x="381" y="556"/>
      <point x="381" y="542" type="curve" smooth="yes"/>
      <point x="381" y="529"/>
      <point x="390" y="522"/>
      <point x="408" y="522" type="curve" smooth="yes"/>
      <point x="453" y="522" type="line"/>
      <point x="300" y="322" type="line"/>
      <point x="144" y="522" type="line"/>
      <point x="188" y="522" type="line" smooth="yes"/>
      <point x="206" y="522"/>
      <point x="215" y="529"/>
      <point x="215" y="542" type="curve" smooth="yes"/>
      <point x="215" y="556"/>
      <point x="206" y="563"/>
      <point x="188" y="563" type="curve" smooth="yes"/>
      <point x="78" y="563" type="line" smooth="yes"/>
      <point x="59" y="563"/>
      <point x="51" y="556"/>
      <point x="51" y="542" type="curve" smooth="yes"/>
      <point x="51" y="529"/>
      <point x="59" y="522"/>
      <point x="78" y="522" type="curve" smooth="yes"/>
      <point x="93" y="522" type="line"/>
      <point x="272" y="288" type="line"/>
      <point x="84" y="41" type="line"/>
      <point x="67" y="41" type="line" smooth="yes"/>
      <point x="49" y="41"/>
      <point x="40" y="34"/>
      <point x="40" y="21" type="curve" smooth="yes"/>
      <point x="40" y="7"/>
      <point x="49" y="0"/>
      <point x="67" y="0" type="curve" smooth="yes"/>
      <point x="198" y="0" type="line" smooth="yes"/>
      <point x="216" y="0"/>
      <point x="225" y="7"/>
      <point x="225" y="21" type="curve" smooth="yes"/>
      <point x="225" y="34"/>
      <point x="216" y="41"/>
      <point x="198" y="41" type="curve" smooth="yes"/>
      <point x="133" y="41" type="line"/>
      <point x="299" y="255" type="line"/>
      <point x="464" y="41" type="line"/>
      <point x="400" y="41" type="line" smooth="yes"/>
      <point x="383" y="41"/>
      <point x="374" y="34"/>
      <point x="374" y="21" type="curve" smooth="yes"/>
      <point x="374" y="7"/>
      <point x="383" y="0"/>
      <point x="400" y="0" type="curve" smooth="yes"/>
      <point x="533" y="0" type="line" smooth="yes"/>
      <point x="551" y="0"/>
      <point x="559" y="7"/>
      <point x="559" y="21" type="curve" smooth="yes"/>
      <point x="559" y="34"/>
      <point x="551" y="41"/>
      <point x="533" y="41" type="curve" smooth="yes"/>
      <point x="516" y="41" type="line"/>
    </contour>
  </outline>
</glyph>
<glyph name="Y" format="1">
  <advance width="600"/>
  <unicode hex="0059"/>
  <outline>
    <contour>
      <point x="322" y="254" type="line"/>
      <point x="498" y="522" type="line"/>
      <point x="532" y="522" type="line" smooth="yes"/>
      <point x="549" y="522"/>
      <point x="559" y="530"/>
      <point x="559" y="542" type="curve" smooth="yes"/>
      <point x="559" y="555"/>
      <point x="549" y="563"/>
      <point x="532" y="563" type="curve" smooth="yes"/>
      <point x="411" y="563" type="line" smooth="yes"/>
      <point x="393" y="563"/>
      <point x="383" y="556"/>
      <point x="383" y="542" type="curve" smooth="yes"/>
      <point x="383" y="529"/>
      <point x="393" y="522"/>
      <point x="411" y="522" type="curve" smooth="yes"/>
      <point x="451" y="522" type="line"/>
      <point x="303" y="295" type="line"/>
      <point x="150" y="522" type="line"/>
      <point x="189" y="522" type="line" smooth="yes"/>
      <point x="208" y="522"/>
      <point x="216" y="529"/>
      <point x="216" y="542" type="curve" smooth="yes"/>
      <point x="216" y="556"/>
      <point x="208" y="563"/>
      <point x="189" y="563" type="curve" smooth="yes"/>
      <point x="68" y="563" type="line" smooth="yes"/>
      <point x="50" y="563"/>
      <point x="41" y="556"/>
      <point x="41" y="542" type="curve" smooth="yes"/>
      <point x="41" y="529"/>
      <point x="50" y="522"/>
      <point x="68" y="522" type="curve" smooth="yes"/>
      <point x="102" y="522" type="line"/>
      <point x="282" y="254" type="line"/>
      <point x="282" y="41" type="line"/>
      <point x="176" y="41" type="line" smooth="yes"/>
      <point x="158" y="41"/>
      <point x="149" y="34"/>
      <point x="149" y="21" type="curve" smooth="yes"/>
      <point x="149" y="7"/>
      <point x="158" y="0"/>
      <point x="176" y="0" type="curve" smooth="yes"/>
      <point x="427" y="0" type="line" smooth="yes"/>
      <point x="445" y="0"/>
      <point x="454" y="7"/>
      <point x="454" y="21" type="curve" smooth="yes"/>
      <point x="454" y="34"/>
      <point x="445" y="41"/>
      <point x="427" y="41" type="curve" smooth="yes"/>
      <point x="322" y="41" type="line"/>
    </contour>
  </outline>
</glyph>
<glyph name="Z" format="1">
  <advance width="600"/>
  <unicode hex="005A"/>
  <outline>
    <contour>
      <point x="498" y="0" type="line"/>
      <point x="498" y="182" type="line" smooth="yes"/>
      <point x="498" y="200"/>
      <point x="490" y="209"/>
      <point x="476" y="209" type="curve" smooth="yes"/>
      <point x="462" y="209"/>
      <point x="456" y="200"/>
      <point x="456" y="182" type="curve" smooth="yes"/>
      <point x="456" y="41" type="line"/>
      <point x="142" y="41" type="line"/>
      <point x="142" y="45" type="line"/>
      <point x="470" y="505" type="line"/>
      <point x="470" y="563" type="line"/>
      <point x="110" y="563" type="line"/>
      <point x="110" y="404" type="line" smooth="yes"/>
      <point x="110" y="385"/>
      <point x="118" y="376"/>
      <point x="132" y="376" type="curve" smooth="yes"/>
      <point x="144" y="376"/>
      <point x="152" y="385"/>
      <point x="152" y="404" type="curve" smooth="yes"/>
      <point x="152" y="522" type="line"/>
      <point x="431" y="522" type="line"/>
      <point x="431" y="519" type="line"/>
      <point x="103" y="59" type="line"/>
      <point x="103" y="0" type="line"/>
    </contour>
  </outline>
</glyph>
<glyph name="bracketleft" format="1">
  <advance width="600"/>
  <unicode hex="005B"/>
  <outline>
    <contour>
      <point x="322" y="563" type="line"/>
      <point x="417" y="563" type="line" smooth="yes"/>
      <point x="436" y="563"/>
      <point x="445" y="570"/>
      <point x="445" y="584" type="curve" smooth="yes"/>
      <point x="445" y="597"/>
      <point x="436" y="604"/>
      <point x="417" y="604" type="curve" smooth="yes"/>
      <point x="280" y="604" type="line"/>
      <point x="280" y="-124" type="line"/>
      <point x="417" y="-124" type="line" smooth="yes"/>
      <point x="436" y="-124"/>
      <point x="445" y="-117"/>
      <point x="445" y="-103" type="curve" smooth="yes"/>
      <point x="445" y="-90"/>
      <point x="436" y="-83"/>
      <point x="417" y="-83" type="curve" smooth="yes"/>
      <point x="322" y="-83" type="line"/>
    </contour>
  </outline>
</glyph>
<glyph name="backslash" format="1">
  <advance width="600"/>
  <unicode hex="005C"/>
  <outline>
    <contour>
      <point x="155" y="650" type="line" smooth="yes"/>
      <point x="148" y="664"/>
      <point x="143" y="667"/>
      <point x="133" y="667" type="curve" smooth="yes"/>
      <point x="123" y="667"/>
      <point x="113" y="659"/>
      <point x="113" y="649" type="curve" smooth="yes"/>
      <point x="113" y="644"/>
      <point x="114" y="641"/>
      <point x="118" y="633" type="curve" smooth="yes"/>
      <point x="445" y="-63" type="line" smooth="yes"/>
      <point x="451" y="-76"/>
      <point x="458" y="-81"/>
      <point x="467" y="-81" type="curve" smooth="yes"/>
      <point x="477" y="-81"/>
      <point x="487" y="-72"/>
      <point x="487" y="-62" type="curve" smooth="yes"/>
      <point x="487" y="-58"/>
      <point x="485" y="-53"/>
      <point x="482" y="-46" type="curve" smooth="yes"/>
    </contour>
  </outline>
</glyph>
<glyph name="bracketright" format="1">
  <advance width="600"/>
  <unicode hex="005D"/>
  <outline>
    <contour>
      <point x="279" y="-83" type="line"/>
      <point x="182" y="-83" type="line" smooth="yes"/>
      <point x="164" y="-83"/>
      <point x="155" y="-90"/>
      <point x="155" y="-104" type="curve" smooth="yes"/>
      <point x="155" y="-117"/>
      <point x="164" y="-124"/>
      <point x="182" y="-124" type="curve" smooth="yes"/>
      <point x="320" y="-124" type="line"/>
      <point x="320" y="604" type="line"/>
      <point x="182" y="604" type="line" smooth="yes"/>
      <point x="164" y="604"/>
      <point x="155" y="597"/>
      <point x="155" y="583" type="curve" smooth="yes"/>
      <point x="155" y="570"/>
      <point x="164" y="563"/>
      <point x="182" y="563" type="curve" smooth="yes"/>
      <point x="279" y="563" type="line"/>
    </contour>
  </outline>
</glyph>
<glyph name="asciicircum" format="1">
  <advance width="600"/>
  <unicode hex="005E"/>
  <outline>
    <contour>
      <point x="300" y="615" type="line"/>
      <point x="123" y="392" type="line"/>
      <point x="115" y="383"/>
      <point x="113" y="380"/>
      <point x="113" y="374" type="curve" smooth="yes"/>
      <point x="113" y="363"/>
      <point x="123" y="354"/>
      <point x="133" y="354" type="curve" smooth="yes"/>
      <point x="141" y="354"/>
      <point x="146" y="357"/>
      <point x="153" y="367" type="curve"/>
      <point x="300" y="552" type="line"/>
      <point x="447" y="367" type="line"/>
      <point x="454" y="357"/>
      <point x="459" y="354"/>
      <point x="467" y="354" type="curve" smooth="yes"/>
      <point x="478" y="354"/>
      <point x="487" y="363"/>
      <point x="487" y="374" type="curve" smooth="yes"/>
      <point x="487" y="379"/>
      <point x="484" y="385"/>
      <point x="478" y="392" type="curve" smooth="yes"/>
    </contour>
  </outline>
</glyph>
<glyph name="underscore" format="1">
  <advance width="600"/>
  <unicode hex="005F"/>
  <outline>
    <contour>
      <point x="612" y="-75" type="line"/>
      <point x="-12" y="-75" type="line"/>
      <point x="-12" y="-125" type="line"/>
      <point x="612" y="-125" type="line"/>
    </contour>
  </outline>
</glyph>
<glyph name="grave" format="1">
  <advance width="600"/>
  <unicode hex="0060"/>
  <outline>
    <contour>
      <point x="194" y="657" type="line"/>
      <point x="186" y="663"/>
      <point x="181" y="666"/>
      <point x="175" y="666" type="curve" smooth="yes"/>
      <point x="164" y="666"/>
      <point x="155" y="657"/>
      <point x="155" y="646" type="curve" smooth="yes"/>
      <point x="155" y="638"/>
      <point x="158" y="633"/>
      <point x="167" y="626" type="curve"/>
      <point x="282" y="525" type="line"/>
      <point x="288" y="519"/>
      <point x="294" y="517"/>
      <point x="299" y="517" type="curve" smooth="yes"/>
      <point x="311" y="517"/>
      <point x="320" y="525"/>
      <point x="320" y="538" type="curve" smooth="yes"/>
      <point x="320" y="544"/>
      <point x="320" y="544"/>
      <point x="316" y="549" type="curve"/>
      <point x="308" y="557" type="line"/>
    </contour>
  </outline>
</glyph>
<glyph name="a" format="1">
  <advance width="600"/>
  <unicode hex="0061"/>
  <outline>
    <contour>
      <point x="419" y="0" type="line"/>
      <point x="515" y="0" type="line" smooth="yes"/>
      <point x="532" y="0"/>
      <point x="541" y="7"/>
      <point x="541" y="21" type="curve" smooth="yes"/>
      <point x="541" y="34"/>
      <point x="532" y="41"/>
      <point x="515" y="41" type="curve" smooth="yes"/>
      <point x="460" y="41" type="line"/>
      <point x="460" y="308" type="line" smooth="yes"/>
      <point x="460" y="379"/>
      <point x="392" y="431"/>
      <point x="299" y="431" type="curve" smooth="yes"/>
      <point x="262" y="431"/>
      <point x="197" y="417"/>
      <point x="142" y="399" type="curve"/>
      <point x="131" y="394"/>
      <point x="125" y="388"/>
      <point x="125" y="377" type="curve" smooth="yes"/>
      <point x="125" y="367"/>
      <point x="133" y="358"/>
      <point x="144" y="358" type="curve" smooth="yes"/>
      <point x="146" y="358"/>
      <point x="150" y="359"/>
      <point x="154" y="360" type="curve" smooth="yes"/>
      <point x="232" y="383"/>
      <point x="260" y="390"/>
      <point x="296" y="390" type="curve" smooth="yes"/>
      <point x="369" y="390"/>
      <point x="419" y="357"/>
      <point x="419" y="308" type="curve" smooth="yes"/>
      <point x="419" y="237" type="line"/>
      <point x="360" y="252"/>
      <point x="329" y="258"/>
      <point x="283" y="258" type="curve" smooth="yes"/>
      <point x="158" y="258"/>
      <point x="72" y="199"/>
      <point x="72" y="112" type="curve" smooth="yes"/>
      <point x="72" y="36"/>
      <point x="135" y="-16"/>
      <point x="228" y="-16" type="curve" smooth="yes"/>
      <point x="299" y="-16"/>
      <point x="358" y="10"/>
      <point x="419" y="67" type="curve"/>
    </contour>
    <contour>
      <point x="419" y="112" type="line"/>
      <point x="352" y="49"/>
      <point x="299" y="25"/>
      <point x="227" y="25" type="curve" smooth="yes"/>
      <point x="158" y="25"/>
      <point x="113" y="59"/>
      <point x="113" y="110" type="curve" smooth="yes"/>
      <point x="113" y="174"/>
      <point x="184" y="217"/>
      <point x="291" y="217" type="curve" smooth="yes"/>
      <point x="335" y="217"/>
      <point x="383" y="211"/>
      <point x="419" y="201" type="curve"/>
    </contour>
  </outline>
</glyph>
<glyph name="b" format="1">
  <advance width="600"/>
  <unicode hex="0062"/>
  <outline>
    <contour>
      <point x="164" y="604" type="line"/>
      <point x="69" y="604" type="line" smooth="yes"/>
      <point x="51" y="604"/>
      <point x="42" y="597"/>
      <point x="42" y="584" type="curve" smooth="yes"/>
      <point x="42" y="570"/>
      <point x="51" y="563"/>
      <point x="69" y="563" type="curve" smooth="yes"/>
      <point x="123" y="563" type="line"/>
      <point x="123" y="41" type="line"/>
      <point x="69" y="41" type="line" smooth="yes"/>
      <point x="51" y="41"/>
      <point x="42" y="34"/>
      <point x="42" y="21" type="curve" smooth="yes"/>
      <point x="42" y="7"/>
      <point x="51" y="0"/>
      <point x="69" y="0" type="curve" smooth="yes"/>
      <point x="164" y="0" type="line"/>
      <point x="164" y="89" type="line"/>
      <point x="211" y="18"/>
      <point x="271" y="-16"/>
      <point x="343" y="-16" type="curve" smooth="yes"/>
      <point x="464" y="-16"/>
      <point x="561" y="85"/>
      <point x="561" y="210" type="curve" smooth="yes"/>
      <point x="561" y="334"/>
      <point x="466" y="431"/>
      <point x="343" y="431" type="curve" smooth="yes"/>
      <point x="269" y="431"/>
      <point x="214" y="399"/>
      <point x="164" y="328" type="curve"/>
    </contour>
    <contour>
      <point x="342" y="390" type="curve" smooth="yes"/>
      <point x="442" y="390"/>
      <point x="519" y="309"/>
      <point x="519" y="205" type="curve" smooth="yes"/>
      <point x="519" y="107"/>
      <point x="439" y="25"/>
      <point x="342" y="25" type="curve" smooth="yes"/>
      <point x="243" y="25"/>
      <point x="164" y="107"/>
      <point x="164" y="208" type="curve" smooth="yes"/>
      <point x="164" y="309"/>
      <point x="243" y="390"/>
    </contour>
  </outline>
</glyph>
<glyph name="c" format="1">
  <advance width="600"/>
  <unicode hex="0063"/>
  <outline>
    <contour>
      <point x="470" y="376" type="line"/>
      <point x="428" y="411"/>
      <point x="375" y="431"/>
      <point x="314" y="431" type="curve" smooth="yes"/>
      <point x="180" y="431"/>
      <point x="84" y="336"/>
      <point x="84" y="204" type="curve" smooth="yes"/>
      <point x="84" y="76"/>
      <point x="178" y="-16"/>
      <point x="309" y="-16" type="curve" smooth="yes"/>
      <point x="375" y="-16"/>
      <point x="441" y="4"/>
      <point x="492" y="39" type="curve" smooth="yes"/>
      <point x="519" y="58"/>
      <point x="535" y="76"/>
      <point x="535" y="89" type="curve" smooth="yes"/>
      <point x="535" y="98"/>
      <point x="525" y="107"/>
      <point x="516" y="107" type="curve" smooth="yes"/>
      <point x="508" y="107"/>
      <point x="506" y="106"/>
      <point x="498" y="97" type="curve"/>
      <point x="447" y="49"/>
      <point x="383" y="25"/>
      <point x="311" y="25" type="curve" smooth="yes"/>
      <point x="201" y="25"/>
      <point x="125" y="100"/>
      <point x="125" y="205" type="curve" smooth="yes"/>
      <point x="125" y="316"/>
      <point x="201" y="390"/>
      <point x="311" y="390" type="curve" smooth="yes"/>
      <point x="394" y="390"/>
      <point x="466" y="348"/>
      <point x="470" y="295" type="curve" smooth="yes"/>
      <point x="472" y="278"/>
      <point x="478" y="271"/>
      <point x="492" y="271" type="curve" smooth="yes"/>
      <point x="504" y="271"/>
      <point x="511" y="280"/>
      <point x="511" y="299" type="curve" smooth="yes"/>
      <point x="511" y="390" type="line" smooth="yes"/>
      <point x="511" y="408"/>
      <point x="504" y="417"/>
      <point x="492" y="417" type="curve" smooth="yes"/>
      <point x="477" y="417"/>
      <point x="470" y="408"/>
      <point x="470" y="390" type="curve" smooth="yes"/>
    </contour>
  </outline>
</glyph>
<glyph name="d" format="1">
  <advance width="600"/>
  <unicode hex="0064"/>
  <outline>
    <contour>
      <point x="485" y="604" type="line"/>
      <point x="391" y="604" type="line" smooth="yes"/>
      <point x="373" y="604"/>
      <point x="364" y="597"/>
      <point x="364" y="584" type="curve" smooth="yes"/>
      <point x="364" y="570"/>
      <point x="373" y="563"/>
      <point x="391" y="563" type="curve" smooth="yes"/>
      <point x="445" y="563" type="line"/>
      <point x="445" y="326" type="line"/>
      <point x="396" y="398"/>
      <point x="339" y="431"/>
      <point x="263" y="431" type="curve" smooth="yes"/>
      <point x="144" y="431"/>
      <point x="47" y="331"/>
      <point x="47" y="208" type="curve" smooth="yes"/>
      <point x="47" y="85"/>
      <point x="144" y="-16"/>
      <point x="263" y="-16" type="curve" smooth="yes"/>
      <point x="339" y="-16"/>
      <point x="398" y="19"/>
      <point x="445" y="89" type="curve"/>
      <point x="445" y="0" type="line"/>
      <point x="540" y="0" type="line" smooth="yes"/>
      <point x="558" y="0"/>
      <point x="567" y="7"/>
      <point x="567" y="21" type="curve" smooth="yes"/>
      <point x="567" y="34"/>
      <point x="558" y="41"/>
      <point x="540" y="41" type="curve" smooth="yes"/>
      <point x="485" y="41" type="line"/>
    </contour>
    <contour>
      <point x="266" y="390" type="curve" smooth="yes"/>
      <point x="367" y="390"/>
      <point x="445" y="309"/>
      <point x="445" y="206" type="curve" smooth="yes"/>
      <point x="445" y="106"/>
      <point x="365" y="25"/>
      <point x="267" y="25" type="curve" smooth="yes"/>
      <point x="167" y="25"/>
      <point x="89" y="106"/>
      <point x="89" y="208" type="curve" smooth="yes"/>
      <point x="89" y="309"/>
      <point x="167" y="390"/>
    </contour>
  </outline>
</glyph>
<glyph name="e" format="1">
  <advance width="600"/>
  <unicode hex="0065"/>
  <outline>
    <contour>
      <point x="519" y="199" type="line"/>
      <point x="519" y="245"/>
      <point x="517" y="265"/>
      <point x="502" y="297" type="curve" smooth="yes"/>
      <point x="467" y="380"/>
      <point x="387" y="431"/>
      <point x="291" y="431" type="curve" smooth="yes"/>
      <point x="163" y="431"/>
      <point x="63" y="339"/>
      <point x="63" y="217" type="curve" smooth="yes"/>
      <point x="63" y="87"/>
      <point x="170" y="-16"/>
      <point x="305" y="-16" type="curve" smooth="yes"/>
      <point x="396" y="-16"/>
      <point x="516" y="32"/>
      <point x="516" y="66" type="curve" smooth="yes"/>
      <point x="516" y="76"/>
      <point x="507" y="86"/>
      <point x="498" y="86" type="curve" smooth="yes"/>
      <point x="492" y="86"/>
      <point x="488" y="84"/>
      <point x="481" y="79" type="curve"/>
      <point x="441" y="47"/>
      <point x="368" y="25"/>
      <point x="306" y="25" type="curve" smooth="yes"/>
      <point x="198" y="25"/>
      <point x="118" y="93"/>
      <point x="104" y="199" type="curve"/>
    </contour>
    <contour>
      <point x="104" y="240" type="line"/>
      <point x="123" y="333"/>
      <point x="194" y="390"/>
      <point x="291" y="390" type="curve" smooth="yes"/>
      <point x="388" y="390"/>
      <point x="462" y="331"/>
      <point x="478" y="240" type="curve"/>
    </contour>
  </outline>
</glyph>
<glyph name="f" format="1">
  <advance width="600"/>
  <unicode hex="0066"/>
  <outline>
    <contour>
      <point x="251" y="376" type="line"/>
      <point x="450" y="376" type="line" smooth="yes"/>
      <point x="468" y="376"/>
      <point x="477" y="383"/>
      <point x="477" y="397" type="curve" smooth="yes"/>
      <point x="477" y="410"/>
      <point x="468" y="417"/>
      <point x="450" y="417" type="curve" smooth="yes"/>
      <point x="251" y="417" type="line"/>
      <point x="251" y="478" type="line" smooth="yes"/>
      <point x="251" y="528"/>
      <point x="296" y="563"/>
      <point x="362" y="563" type="curve" smooth="yes"/>
      <point x="383" y="563"/>
      <point x="424" y="559"/>
      <point x="450" y="557" type="curve" smooth="yes"/>
      <point x="498" y="551"/>
      <point x="498" y="551"/>
      <point x="500" y="551" type="curve" smooth="yes"/>
      <point x="512" y="551"/>
      <point x="521" y="559"/>
      <point x="521" y="572" type="curve" smooth="yes"/>
      <point x="521" y="581"/>
      <point x="515" y="589"/>
      <point x="502" y="591" type="curve" smooth="yes"/>
      <point x="471" y="597"/>
      <point x="402" y="604"/>
      <point x="364" y="604" type="curve" smooth="yes"/>
      <point x="274" y="604"/>
      <point x="210" y="551"/>
      <point x="210" y="478" type="curve" smooth="yes"/>
      <point x="210" y="417" type="line"/>
      <point x="123" y="417" type="line" smooth="yes"/>
      <point x="104" y="417"/>
      <point x="95" y="410"/>
      <point x="95" y="397" type="curve" smooth="yes"/>
      <point x="95" y="383"/>
      <point x="104" y="376"/>
      <point x="123" y="376" type="curve" smooth="yes"/>
      <point x="210" y="376" type="line"/>
      <point x="210" y="41" type="line"/>
      <point x="112" y="41" type="line" smooth="yes"/>
      <point x="93" y="41"/>
      <point x="85" y="34"/>
      <point x="85" y="21" type="curve" smooth="yes"/>
      <point x="85" y="7"/>
      <point x="93" y="0"/>
      <point x="112" y="0" type="curve" smooth="yes"/>
      <point x="439" y="0" type="line" smooth="yes"/>
      <point x="456" y="0"/>
      <point x="466" y="7"/>
      <point x="466" y="21" type="curve" smooth="yes"/>
      <point x="466" y="34"/>
      <point x="458" y="41"/>
      <point x="439" y="41" type="curve" smooth="yes"/>
      <point x="251" y="41" type="line"/>
    </contour>
  </outline>
</glyph>
<glyph name="i" format="1">
  <advance width="600"/>
  <unicode hex="0069"/>
  <outline>
    <contour>
      <point x="320" y="417" type="line"/>
      <point x="161" y="417" type="line" smooth="yes"/>
      <point x="143" y="417"/>
      <point x="133" y="410"/>
      <point x="133" y="397" type="curve" smooth="yes"/>
      <point x="133" y="383"/>
      <point x="143" y="376"/>
      <point x="161" y="376" type="curve" smooth="yes"/>
      <point x="279" y="376" type="line"/>
      <point x="279" y="41" type="line"/>
      <point x="119" y="41" type="line" smooth="yes"/>
      <point x="101" y="41"/>
      <point x="92" y="34"/>
      <point x="92" y="21" type="curve" smooth="yes"/>
      <point x="92" y="7"/>
      <point x="101" y="0"/>
      <point x="119" y="0" type="curve" smooth="yes"/>
      <point x="481" y="0" type="line" smooth="yes"/>
      <point x="498" y="0"/>
      <point x="508" y="7"/>
      <point x="508" y="21" type="curve" smooth="yes"/>
      <point x="508" y="34"/>
      <point x="499" y="41"/>
      <point x="481" y="41" type="curve" smooth="yes"/>
      <point x="320" y="41" type="line"/>
    </contour>
    <contour>
      <point x="275" y="627" type="line" smooth="yes"/>
      <point x="263" y="627"/>
      <point x="256" y="619"/>
      <point x="256" y="601" type="curve" smooth="yes"/>
      <point x="256" y="544" type="line" smooth="yes"/>
      <point x="256" y="525"/>
      <point x="263" y="517"/>
      <point x="275" y="517" type="curve" smooth="yes"/>
      <point x="300" y="517" type="line" smooth="yes"/>
      <point x="313" y="517"/>
      <point x="320" y="525"/>
      <point x="320" y="544" type="curve" smooth="yes"/>
      <point x="320" y="601" type="line" smooth="yes"/>
      <point x="320" y="619"/>
      <point x="313" y="627"/>
      <point x="300" y="627" type="curve" smooth="yes"/>
    </contour>
  </outline>
</glyph>
<glyph name="j" format="1">
  <advance width="600"/>
  <unicode hex="006A"/>
  <outline>
    <contour>
      <point x="397" y="376" type="line"/>
      <point x="397" y="-28" type="line" smooth="yes"/>
      <point x="397" y="-96"/>
      <point x="348" y="-144"/>
      <point x="282" y="-144" type="curve" smooth="yes"/>
      <point x="154" y="-144" type="line" smooth="yes"/>
      <point x="136" y="-144"/>
      <point x="127" y="-152"/>
      <point x="127" y="-165" type="curve" smooth="yes"/>
      <point x="127" y="-178"/>
      <point x="136" y="-186"/>
      <point x="154" y="-186" type="curve" smooth="yes"/>
      <point x="283" y="-186" type="line" smooth="yes"/>
      <point x="374" y="-186"/>
      <point x="438" y="-121"/>
      <point x="438" y="-28" type="curve" smooth="yes"/>
      <point x="438" y="417" type="line"/>
      <point x="157" y="417" type="line" smooth="yes"/>
      <point x="138" y="417"/>
      <point x="129" y="410"/>
      <point x="129" y="397" type="curve" smooth="yes"/>
      <point x="129" y="383"/>
      <point x="138" y="376"/>
      <point x="157" y="376" type="curve" smooth="yes"/>
    </contour>
    <contour>
      <point x="394" y="627" type="line" smooth="yes"/>
      <point x="381" y="627"/>
      <point x="374" y="619"/>
      <point x="374" y="601" type="curve" smooth="yes"/>
      <point x="374" y="544" type="line" smooth="yes"/>
      <point x="374" y="525"/>
      <point x="381" y="517"/>
      <point x="394" y="517" type="curve" smooth="yes"/>
      <point x="417" y="517" type="line" smooth="yes"/>
      <point x="431" y="517"/>
      <point x="438" y="525"/>
      <point x="438" y="544" type="curve" smooth="yes"/>
      <point x="438" y="601" type="line" smooth="yes"/>
      <point x="438" y="619"/>
      <point x="431" y="627"/>
      <point x="417" y="627" type="curve" smooth="yes"/>
    </contour>
  </outline>
</glyph>
<glyph name="k" format="1">
  <advance width="600"/>
  <unicode hex="006B"/>
  <outline>
    <contour>
      <point x="175" y="180" type="line"/>
      <point x="221" y="218" type="line"/>
      <point x="400" y="41" type="line"/>
      <point x="373" y="41" type="line" smooth="yes"/>
      <point x="356" y="41"/>
      <point x="346" y="34"/>
      <point x="346" y="21" type="curve" smooth="yes"/>
      <point x="346" y="7"/>
      <point x="356" y="0"/>
      <point x="373" y="0" type="curve" smooth="yes"/>
      <point x="504" y="0" type="line" smooth="yes"/>
      <point x="522" y="0"/>
      <point x="532" y="7"/>
      <point x="532" y="21" type="curve" smooth="yes"/>
      <point x="532" y="34"/>
      <point x="522" y="41"/>
      <point x="504" y="41" type="curve" smooth="yes"/>
      <point x="459" y="41" type="line"/>
      <point x="252" y="245" type="line"/>
      <point x="409" y="376" type="line"/>
      <point x="456" y="376" type="line" smooth="yes"/>
      <point x="475" y="376"/>
      <point x="483" y="383"/>
      <point x="483" y="397" type="curve" smooth="yes"/>
      <point x="483" y="410"/>
      <point x="475" y="417"/>
      <point x="456" y="417" type="curve" smooth="yes"/>
      <point x="326" y="417" type="line" smooth="yes"/>
      <point x="308" y="417"/>
      <point x="299" y="410"/>
      <point x="299" y="397" type="curve" smooth="yes"/>
      <point x="299" y="383"/>
      <point x="308" y="376"/>
      <point x="326" y="376" type="curve" smooth="yes"/>
      <point x="348" y="376" type="line"/>
      <point x="175" y="229" type="line"/>
      <point x="175" y="604" type="line"/>
      <point x="80" y="604" type="line" smooth="yes"/>
      <point x="62" y="604"/>
      <point x="53" y="597"/>
      <point x="53" y="584" type="curve" smooth="yes"/>
      <point x="53" y="570"/>
      <point x="62" y="563"/>
      <point x="80" y="563" type="curve" smooth="yes"/>
      <point x="133" y="563" type="line"/>
      <point x="133" y="41" type="line"/>
      <point x="80" y="41" type="line" smooth="yes"/>
      <point x="62" y="41"/>
      <point x="53" y="34"/>
      <point x="53" y="21" type="curve" smooth="yes"/>
      <point x="53" y="7"/>
      <point x="62" y="0"/>
      <point x="80" y="0" type="curve" smooth="yes"/>
      <point x="175" y="0" type="line"/>
    </contour>
  </outline>
</glyph>
<glyph name="l" format="1">
  <advance width="600"/>
  <unicode hex="006C"/>
  <outline>
    <contour>
      <point x="320" y="604" type="line"/>
      <point x="161" y="604" type="line" smooth="yes"/>
      <point x="144" y="604"/>
      <point x="135" y="597"/>
      <point x="135" y="584" type="curve" smooth="yes"/>
      <point x="135" y="570"/>
      <point x="144" y="563"/>
      <point x="161" y="563" type="curve" smooth="yes"/>
      <point x="279" y="563" type="line"/>
      <point x="279" y="41" type="line"/>
      <point x="119" y="41" type="line" smooth="yes"/>
      <point x="101" y="41"/>
      <point x="92" y="34"/>
      <point x="92" y="21" type="curve" smooth="yes"/>
      <point x="92" y="7"/>
      <point x="101" y="0"/>
      <point x="119" y="0" type="curve" smooth="yes"/>
      <point x="481" y="0" type="line" smooth="yes"/>
      <point x="498" y="0"/>
      <point x="508" y="7"/>
      <point x="508" y="21" type="curve" smooth="yes"/>
      <point x="508" y="34"/>
      <point x="499" y="41"/>
      <point x="481" y="41" type="curve" smooth="yes"/>
      <point x="320" y="41" type="line"/>
    </contour>
  </outline>
</glyph>
<glyph name="m" format="1">
  <advance width="600"/>
  <unicode hex="006D"/>
  <outline>
    <contour>
      <point x="112" y="417" type="line"/>
      <point x="38" y="417" type="line" smooth="yes"/>
      <point x="19" y="417"/>
      <point x="11" y="410"/>
      <point x="11" y="397" type="curve" smooth="yes"/>
      <point x="11" y="383"/>
      <point x="19" y="376"/>
      <point x="38" y="376" type="curve" smooth="yes"/>
      <point x="72" y="376" type="line"/>
      <point x="72" y="41" type="line"/>
      <point x="38" y="41" type="line" smooth="yes"/>
      <point x="19" y="41"/>
      <point x="11" y="34"/>
      <point x="11" y="21" type="curve" smooth="yes"/>
      <point x="11" y="7"/>
      <point x="19" y="0"/>
      <point x="36" y="0" type="curve" smooth="yes"/>
      <point x="146" y="0" type="line" smooth="yes"/>
      <point x="163" y="0"/>
      <point x="174" y="7"/>
      <point x="174" y="21" type="curve" smooth="yes"/>
      <point x="174" y="34"/>
      <point x="164" y="41"/>
      <point x="146" y="41" type="curve" smooth="yes"/>
      <point x="112" y="41" type="line"/>
      <point x="112" y="308" type="line"/>
      <point x="150" y="365"/>
      <point x="182" y="390"/>
      <point x="217" y="390" type="curve" smooth="yes"/>
      <point x="251" y="390"/>
      <point x="282" y="356"/>
      <point x="282" y="316" type="curve" smooth="yes"/>
      <point x="282" y="0" type="line"/>
      <point x="356" y="0" type="line" smooth="yes"/>
      <point x="374" y="0"/>
      <point x="383" y="7"/>
      <point x="383" y="21" type="curve" smooth="yes"/>
      <point x="383" y="34"/>
      <point x="374" y="41"/>
      <point x="356" y="41" type="curve" smooth="yes"/>
      <point x="322" y="41" type="line"/>
      <point x="322" y="308" type="line"/>
      <point x="360" y="367"/>
      <point x="390" y="390"/>
      <point x="426" y="390" type="curve" smooth="yes"/>
      <point x="461" y="390"/>
      <point x="492" y="357"/>
      <point x="492" y="319" type="curve" smooth="yes"/>
      <point x="492" y="0" type="line"/>
      <point x="566" y="0" type="line" smooth="yes"/>
      <point x="584" y="0"/>
      <point x="593" y="7"/>
      <point x="593" y="21" type="curve" smooth="yes"/>
      <point x="593" y="34"/>
      <point x="584" y="41"/>
      <point x="566" y="41" type="curve" smooth="yes"/>
      <point x="532" y="41" type="line"/>
      <point x="532" y="323" type="line" smooth="yes"/>
      <point x="532" y="382"/>
      <point x="485" y="431"/>
      <point x="427" y="431" type="curve" smooth="yes"/>
      <point x="386" y="431"/>
      <point x="353" y="410"/>
      <point x="314" y="360" type="curve"/>
      <point x="292" y="408"/>
      <point x="260" y="431"/>
      <point x="217" y="431" type="curve" smooth="yes"/>
      <point x="175" y="431"/>
      <point x="146" y="413"/>
      <point x="112" y="365" type="curve"/>
    </contour>
  </outline>
</glyph>
<glyph name="o" format="1">
  <advance width="600"/>
  <unicode hex="006F"/>
  <outline>
    <contour>
      <point x="300" y="431" type="curve" smooth="yes"/>
      <point x="174" y="431"/>
      <point x="72" y="331"/>
      <point x="72" y="208" type="curve" smooth="yes"/>
      <point x="72" y="83"/>
      <point x="174" y="-16"/>
      <point x="300" y="-16" type="curve" smooth="yes"/>
      <point x="426" y="-16"/>
      <point x="528" y="83"/>
      <point x="528" y="205" type="curve" smooth="yes"/>
      <point x="528" y="333"/>
      <point x="428" y="431"/>
    </contour>
    <contour>
      <point x="300" y="390" type="curve" smooth="yes"/>
      <point x="405" y="390"/>
      <point x="487" y="309"/>
      <point x="487" y="205" type="curve" smooth="yes"/>
      <point x="487" y="106"/>
      <point x="403" y="25"/>
      <point x="300" y="25" type="curve" smooth="yes"/>
      <point x="197" y="25"/>
      <point x="113" y="106"/>
      <point x="113" y="208" type="curve" smooth="yes"/>
      <point x="113" y="309"/>
      <point x="197" y="390"/>
    </contour>
  </outline>
</glyph>
<glyph name="p" format="1">
  <advance width="600"/>
  <unicode hex="0070"/>
  <outline>
    <contour>
      <point x="144" y="417" type="line"/>
      <point x="49" y="417" type="line" smooth="yes"/>
      <point x="32" y="417"/>
      <point x="22" y="410"/>
      <point x="22" y="397" type="curve" smooth="yes"/>
      <point x="22" y="383"/>
      <point x="32" y="376"/>
      <point x="49" y="376" type="curve" smooth="yes"/>
      <point x="103" y="376" type="line"/>
      <point x="103" y="-144" type="line"/>
      <point x="49" y="-144" type="line" smooth="yes"/>
      <point x="32" y="-144"/>
      <point x="22" y="-152"/>
      <point x="22" y="-165" type="curve" smooth="yes"/>
      <point x="22" y="-178"/>
      <point x="32" y="-186"/>
      <point x="49" y="-186" type="curve" smooth="yes"/>
      <point x="242" y="-186" type="line" smooth="yes"/>
      <point x="260" y="-186"/>
      <point x="269" y="-178"/>
      <point x="269" y="-165" type="curve" smooth="yes"/>
      <point x="269" y="-152"/>
      <point x="260" y="-144"/>
      <point x="242" y="-144" type="curve" smooth="yes"/>
      <point x="144" y="-144" type="line"/>
      <point x="144" y="106" type="line"/>
      <point x="191" y="40"/>
      <point x="246" y="10"/>
      <point x="323" y="10" type="curve" smooth="yes"/>
      <point x="447" y="10"/>
      <point x="541" y="102"/>
      <point x="541" y="221" type="curve" smooth="yes"/>
      <point x="541" y="340"/>
      <point x="447" y="431"/>
      <point x="323" y="431" type="curve" smooth="yes"/>
      <point x="248" y="431"/>
      <point x="197" y="404"/>
      <point x="144" y="335" type="curve"/>
    </contour>
    <contour>
      <point x="322" y="390" type="curve" smooth="yes"/>
      <point x="424" y="390"/>
      <point x="500" y="316"/>
      <point x="500" y="218" type="curve" smooth="yes"/>
      <point x="500" y="126"/>
      <point x="420" y="51"/>
      <point x="322" y="51" type="curve" smooth="yes"/>
      <point x="223" y="51"/>
      <point x="144" y="126"/>
      <point x="144" y="221" type="curve" smooth="yes"/>
      <point x="144" y="316"/>
      <point x="223" y="390"/>
    </contour>
  </outline>
</glyph>
<glyph name="q" format="1">
  <advance width="600"/>
  <unicode hex="0071"/>
  <outline>
    <contour>
      <point x="459" y="335" type="line"/>
      <point x="411" y="400"/>
      <point x="357" y="431"/>
      <point x="280" y="431" type="curve" smooth="yes"/>
      <point x="157" y="431"/>
      <point x="61" y="340"/>
      <point x="61" y="221" type="curve" smooth="yes"/>
      <point x="61" y="102"/>
      <point x="157" y="10"/>
      <point x="279" y="10" type="curve" smooth="yes"/>
      <point x="357" y="10"/>
      <point x="413" y="40"/>
      <point x="459" y="106" type="curve"/>
      <point x="459" y="-144" type="line"/>
      <point x="360" y="-144" type="line" smooth="yes"/>
      <point x="343" y="-144"/>
      <point x="334" y="-152"/>
      <point x="334" y="-165" type="curve" smooth="yes"/>
      <point x="334" y="-178"/>
      <point x="343" y="-186"/>
      <point x="360" y="-186" type="curve" smooth="yes"/>
      <point x="553" y="-186" type="line" smooth="yes"/>
      <point x="572" y="-186"/>
      <point x="581" y="-178"/>
      <point x="581" y="-165" type="curve" smooth="yes"/>
      <point x="581" y="-152"/>
      <point x="572" y="-144"/>
      <point x="553" y="-144" type="curve" smooth="yes"/>
      <point x="500" y="-144" type="line"/>
      <point x="500" y="376" type="line"/>
      <point x="553" y="376" type="line" smooth="yes"/>
      <point x="572" y="376"/>
      <point x="581" y="383"/>
      <point x="581" y="397" type="curve" smooth="yes"/>
      <point x="581" y="410"/>
      <point x="572" y="417"/>
      <point x="553" y="417" type="curve" smooth="yes"/>
      <point x="459" y="417" type="line"/>
    </contour>
    <contour>
      <point x="280" y="390" type="curve" smooth="yes"/>
      <point x="381" y="390"/>
      <point x="459" y="316"/>
      <point x="459" y="218" type="curve" smooth="yes"/>
      <point x="459" y="126"/>
      <point x="379" y="51"/>
      <point x="280" y="51" type="curve" smooth="yes"/>
      <point x="180" y="51"/>
      <point x="102" y="126"/>
      <point x="102" y="221" type="curve" smooth="yes"/>
      <point x="102" y="316"/>
      <point x="180" y="390"/>
    </contour>
  </outline>
</glyph>
<glyph name="r" format="1">
  <advance width="600"/>
  <unicode hex="0072"/>
  <outline>
    <contour>
      <point x="216" y="417" type="line"/>
      <point x="100" y="417" type="line" smooth="yes"/>
      <point x="83" y="417"/>
      <point x="73" y="409"/>
      <point x="73" y="397" type="curve" smooth="yes"/>
      <point x="73" y="383"/>
      <point x="83" y="376"/>
      <point x="100" y="376" type="curve" smooth="yes"/>
      <point x="175" y="376" type="line"/>
      <point x="175" y="41" type="line"/>
      <point x="79" y="41" type="line" smooth="yes"/>
      <point x="62" y="41"/>
      <point x="52" y="33"/>
      <point x="52" y="21" type="curve" smooth="yes"/>
      <point x="52" y="8"/>
      <point x="62" y="0"/>
      <point x="79" y="0" type="curve" smooth="yes"/>
      <point x="394" y="0" type="line" smooth="yes"/>
      <point x="411" y="0"/>
      <point x="422" y="8"/>
      <point x="422" y="19" type="curve" smooth="yes"/>
      <point x="422" y="33"/>
      <point x="411" y="41"/>
      <point x="394" y="41" type="curve" smooth="yes"/>
      <point x="216" y="41" type="line"/>
      <point x="216" y="262" type="line"/>
      <point x="326" y="363"/>
      <point x="371" y="386"/>
      <point x="416" y="386" type="curve" smooth="yes"/>
      <point x="438" y="386"/>
      <point x="458" y="375"/>
      <point x="482" y="352" type="curve" smooth="yes"/>
      <point x="489" y="345"/>
      <point x="492" y="343"/>
      <point x="498" y="343" type="curve" smooth="yes"/>
      <point x="510" y="343"/>
      <point x="519" y="353"/>
      <point x="519" y="365" type="curve" smooth="yes"/>
      <point x="519" y="374"/>
      <point x="513" y="382"/>
      <point x="496" y="396" type="curve" smooth="yes"/>
      <point x="470" y="417"/>
      <point x="448" y="427"/>
      <point x="419" y="427" type="curve" smooth="yes"/>
      <point x="368" y="427"/>
      <point x="309" y="399"/>
      <point x="216" y="316" type="curve"/>
    </contour>
  </outline>
</glyph>
<glyph name="t" format="1">
  <advance width="600"/>
  <unicode hex="0074"/>
  <outline>
    <contour>
      <point x="197" y="417" type="line"/>
      <point x="197" y="536" type="line" smooth="yes"/>
      <point x="197" y="555"/>
      <point x="191" y="563"/>
      <point x="176" y="563" type="curve" smooth="yes"/>
      <point x="161" y="563"/>
      <point x="155" y="553"/>
      <point x="155" y="536" type="curve" smooth="yes"/>
      <point x="155" y="417" type="line"/>
      <point x="81" y="417" type="line" smooth="yes"/>
      <point x="62" y="417"/>
      <point x="53" y="410"/>
      <point x="53" y="397" type="curve" smooth="yes"/>
      <point x="53" y="383"/>
      <point x="62" y="376"/>
      <point x="81" y="376" type="curve" smooth="yes"/>
      <point x="155" y="376" type="line"/>
      <point x="155" y="107" type="line" smooth="yes"/>
      <point x="155" y="32"/>
      <point x="216" y="-16"/>
      <point x="309" y="-16" type="curve" smooth="yes"/>
      <point x="394" y="-16"/>
      <point x="508" y="22"/>
      <point x="508" y="51" type="curve" smooth="yes"/>
      <point x="508" y="61"/>
      <point x="500" y="72"/>
      <point x="490" y="72" type="curve" smooth="yes"/>
      <point x="485" y="72"/>
      <point x="482" y="70"/>
      <point x="475" y="66" type="curve" smooth="yes"/>
      <point x="434" y="42"/>
      <point x="364" y="25"/>
      <point x="308" y="25" type="curve" smooth="yes"/>
      <point x="239" y="25"/>
      <point x="197" y="58"/>
      <point x="197" y="109" type="curve" smooth="yes"/>
      <point x="197" y="376" type="line"/>
      <point x="416" y="376" type="line" smooth="yes"/>
      <point x="434" y="376"/>
      <point x="443" y="383"/>
      <point x="443" y="397" type="curve" smooth="yes"/>
      <point x="443" y="410"/>
      <point x="434" y="417"/>
      <point x="416" y="417" type="curve" smooth="yes"/>
    </contour>
  </outline>
</glyph>
<glyph name="v" format="1">
  <advance width="600"/>
  <unicode hex="0076"/>
  <outline>
    <contour>
      <point x="336" y="0" type="line"/>
      <point x="502" y="376" type="line"/>
      <point x="542" y="376" type="line" smooth="yes"/>
      <point x="561" y="376"/>
      <point x="570" y="383"/>
      <point x="570" y="397" type="curve" smooth="yes"/>
      <point x="570" y="410"/>
      <point x="561" y="417"/>
      <point x="542" y="417" type="curve" smooth="yes"/>
      <point x="391" y="417" type="line" smooth="yes"/>
      <point x="373" y="417"/>
      <point x="364" y="410"/>
      <point x="364" y="397" type="curve" smooth="yes"/>
      <point x="364" y="383"/>
      <point x="373" y="376"/>
      <point x="391" y="376" type="curve" smooth="yes"/>
      <point x="459" y="376" type="line"/>
      <point x="312" y="41" type="line"/>
      <point x="292" y="41" type="line"/>
      <point x="143" y="376" type="line"/>
      <point x="208" y="376" type="line" smooth="yes"/>
      <point x="227" y="376"/>
      <point x="235" y="383"/>
      <point x="235" y="397" type="curve" smooth="yes"/>
      <point x="235" y="410"/>
      <point x="227" y="417"/>
      <point x="208" y="417" type="curve" smooth="yes"/>
      <point x="57" y="417" type="line" smooth="yes"/>
      <point x="39" y="417"/>
      <point x="30" y="410"/>
      <point x="30" y="397" type="curve" smooth="yes"/>
      <point x="30" y="383"/>
      <point x="39" y="376"/>
      <point x="57" y="376" type="curve" smooth="yes"/>
      <point x="98" y="376" type="line"/>
      <point x="266" y="0" type="line"/>
    </contour>
  </outline>
</glyph>
<glyph name="w" format="1">
  <advance width="600"/>
  <unicode hex="0077"/>
  <outline>
    <contour>
      <point x="441" y="0" type="line"/>
      <point x="524" y="376" type="line"/>
      <point x="542" y="376" type="line" smooth="yes"/>
      <point x="561" y="376"/>
      <point x="570" y="383"/>
      <point x="570" y="397" type="curve" smooth="yes"/>
      <point x="570" y="410"/>
      <point x="561" y="417"/>
      <point x="542" y="417" type="curve" smooth="yes"/>
      <point x="432" y="417" type="line" smooth="yes"/>
      <point x="414" y="417"/>
      <point x="405" y="410"/>
      <point x="405" y="397" type="curve" smooth="yes"/>
      <point x="405" y="383"/>
      <point x="414" y="376"/>
      <point x="432" y="376" type="curve" smooth="yes"/>
      <point x="482" y="376" type="line"/>
      <point x="413" y="56" type="line"/>
      <point x="324" y="311" type="line"/>
      <point x="273" y="311" type="line"/>
      <point x="187" y="56" type="line"/>
      <point x="115" y="376" type="line"/>
      <point x="167" y="376" type="line" smooth="yes"/>
      <point x="186" y="376"/>
      <point x="195" y="383"/>
      <point x="195" y="397" type="curve" smooth="yes"/>
      <point x="195" y="410"/>
      <point x="186" y="417"/>
      <point x="167" y="417" type="curve" smooth="yes"/>
      <point x="57" y="417" type="line" smooth="yes"/>
      <point x="39" y="417"/>
      <point x="30" y="410"/>
      <point x="30" y="397" type="curve" smooth="yes"/>
      <point x="30" y="383"/>
      <point x="39" y="376"/>
      <point x="57" y="376" type="curve" smooth="yes"/>
      <point x="76" y="376" type="line"/>
      <point x="160" y="0" type="line"/>
      <point x="211" y="0" type="line"/>
      <point x="300" y="258" type="line"/>
      <point x="391" y="0" type="line"/>
    </contour>
  </outline>
</glyph>
<glyph name="x" format="1">
  <advance width="600"/>
  <unicode hex="0078"/>
  <outline>
    <contour>
      <point x="329" y="218" type="line"/>
      <point x="492" y="376" type="line"/>
      <point x="499" y="376" type="line" smooth="yes"/>
      <point x="517" y="376"/>
      <point x="525" y="383"/>
      <point x="525" y="397" type="curve" smooth="yes"/>
      <point x="525" y="410"/>
      <point x="517" y="417"/>
      <point x="499" y="417" type="curve" smooth="yes"/>
      <point x="390" y="417" type="line" smooth="yes"/>
      <point x="371" y="417"/>
      <point x="362" y="410"/>
      <point x="362" y="397" type="curve" smooth="yes"/>
      <point x="362" y="383"/>
      <point x="371" y="376"/>
      <point x="390" y="376" type="curve" smooth="yes"/>
      <point x="437" y="376" type="line"/>
      <point x="300" y="246" type="line"/>
      <point x="166" y="376" type="line"/>
      <point x="212" y="376" type="line" smooth="yes"/>
      <point x="231" y="376"/>
      <point x="239" y="383"/>
      <point x="239" y="397" type="curve" smooth="yes"/>
      <point x="239" y="411"/>
      <point x="231" y="417"/>
      <point x="212" y="417" type="curve" smooth="yes"/>
      <point x="101" y="417" type="line" smooth="yes"/>
      <point x="83" y="417"/>
      <point x="74" y="410"/>
      <point x="74" y="397" type="curve" smooth="yes"/>
      <point x="74" y="383"/>
      <point x="83" y="376"/>
      <point x="101" y="376" type="curve" smooth="yes"/>
      <point x="108" y="376" type="line"/>
      <point x="271" y="218" type="line"/>
      <point x="87" y="41" type="line"/>
      <point x="78" y="41" type="line" smooth="yes"/>
      <point x="59" y="41"/>
      <point x="51" y="34"/>
      <point x="51" y="21" type="curve" smooth="yes"/>
      <point x="51" y="7"/>
      <point x="59" y="0"/>
      <point x="78" y="0" type="curve" smooth="yes"/>
      <point x="211" y="0" type="line" smooth="yes"/>
      <point x="229" y="0"/>
      <point x="238" y="7"/>
      <point x="238" y="21" type="curve" smooth="yes"/>
      <point x="238" y="34"/>
      <point x="229" y="41"/>
      <point x="211" y="41" type="curve" smooth="yes"/>
      <point x="143" y="41" type="line"/>
      <point x="300" y="191" type="line"/>
      <point x="455" y="41" type="line"/>
      <point x="390" y="41" type="line" smooth="yes"/>
      <point x="373" y="41"/>
      <point x="363" y="34"/>
      <point x="363" y="21" type="curve" smooth="yes"/>
      <point x="363" y="7"/>
      <point x="373" y="0"/>
      <point x="390" y="0" type="curve" smooth="yes"/>
      <point x="522" y="0" type="line" smooth="yes"/>
      <point x="540" y="0"/>
      <point x="549" y="7"/>
      <point x="549" y="21" type="curve" smooth="yes"/>
      <point x="549" y="34"/>
      <point x="540" y="41"/>
      <point x="522" y="41" type="curve" smooth="yes"/>
      <point x="513" y="41" type="line"/>
    </contour>
  </outline>
</glyph>
<glyph name="y" format="1">
  <advance width="600"/>
  <unicode hex="0079"/>
  <outline>
    <contour>
      <point x="282" y="0" type="line"/>
      <point x="211" y="-144" type="line"/>
      <point x="84" y="-144" type="line" smooth="yes"/>
      <point x="66" y="-144"/>
      <point x="57" y="-152"/>
      <point x="57" y="-165" type="curve" smooth="yes"/>
      <point x="57" y="-178"/>
      <point x="66" y="-186"/>
      <point x="84" y="-186" type="curve" smooth="yes"/>
      <point x="317" y="-186" type="line" smooth="yes"/>
      <point x="335" y="-186"/>
      <point x="343" y="-178"/>
      <point x="343" y="-165" type="curve" smooth="yes"/>
      <point x="343" y="-152"/>
      <point x="335" y="-144"/>
      <point x="317" y="-144" type="curve" smooth="yes"/>
      <point x="252" y="-144" type="line"/>
      <point x="508" y="376" type="line"/>
      <point x="522" y="376" type="line" smooth="yes"/>
      <point x="540" y="376"/>
      <point x="549" y="383"/>
      <point x="549" y="397" type="curve" smooth="yes"/>
      <point x="549" y="410"/>
      <point x="540" y="417"/>
      <point x="522" y="417" type="curve" smooth="yes"/>
      <point x="411" y="417" type="line" smooth="yes"/>
      <point x="394" y="417"/>
      <point x="385" y="410"/>
      <point x="385" y="397" type="curve" smooth="yes"/>
      <point x="385" y="383"/>
      <point x="394" y="376"/>
      <point x="411" y="376" type="curve" smooth="yes"/>
      <point x="466" y="376" type="line"/>
      <point x="305" y="45" type="line"/>
      <point x="141" y="376" type="line"/>
      <point x="193" y="376" type="line" smooth="yes"/>
      <point x="211" y="376"/>
      <point x="220" y="383"/>
      <point x="220" y="397" type="curve" smooth="yes"/>
      <point x="220" y="410"/>
      <point x="211" y="417"/>
      <point x="193" y="417" type="curve" smooth="yes"/>
      <point x="78" y="417" type="line" smooth="yes"/>
      <point x="59" y="417"/>
      <point x="51" y="410"/>
      <point x="51" y="397" type="curve" smooth="yes"/>
      <point x="51" y="383"/>
      <point x="59" y="376"/>
      <point x="78" y="376" type="curve" smooth="yes"/>
      <point x="93" y="376" type="line"/>
    </contour>
  </outline>
</glyph>
<glyph name="z" format="1">
  <advance width="600"/>
  <unicode hex="007A"/>
  <outline>
    <contour>
      <point x="475" y="417" type="line"/>
      <point x="124" y="417" type="line"/>
      <point x="124" y="322" type="line" smooth="yes"/>
      <point x="124" y="303"/>
      <point x="131" y="294"/>
      <point x="144" y="294" type="curve" smooth="yes"/>
      <point x="158" y="294"/>
      <point x="165" y="303"/>
      <point x="165" y="322" type="curve" smooth="yes"/>
      <point x="165" y="376" type="line"/>
      <point x="416" y="376" type="line"/>
      <point x="115" y="36" type="line"/>
      <point x="115" y="0" type="line"/>
      <point x="489" y="0" type="line"/>
      <point x="489" y="97" type="line" smooth="yes"/>
      <point x="489" y="115"/>
      <point x="482" y="124"/>
      <point x="468" y="124" type="curve" smooth="yes"/>
      <point x="455" y="124"/>
      <point x="448" y="115"/>
      <point x="448" y="97" type="curve" smooth="yes"/>
      <point x="448" y="41" type="line"/>
      <point x="171" y="41" type="line"/>
      <point x="475" y="381" type="line"/>
    </contour>
  </outline>
</glyph>
<glyph name="braceleft" format="1">
  <advance width="600"/>
  <unicode hex="007B"/>
  <outline>
    <contour>
      <point x="322" y="499" type="line" smooth="yes"/>
      <point x="322" y="533"/>
      <point x="345" y="559"/>
      <point x="377" y="563" type="curve" smooth="yes"/>
      <point x="396" y="566"/>
      <point x="403" y="570"/>
      <point x="403" y="584" type="curve" smooth="yes"/>
      <point x="403" y="596"/>
      <point x="394" y="604"/>
      <point x="379" y="604" type="curve" smooth="yes"/>
      <point x="324" y="604"/>
      <point x="282" y="558"/>
      <point x="282" y="499" type="curve" smooth="yes"/>
      <point x="282" y="326" type="line" smooth="yes"/>
      <point x="282" y="289"/>
      <point x="257" y="265"/>
      <point x="221" y="261" type="curve" smooth="yes"/>
      <point x="205" y="260"/>
      <point x="197" y="252"/>
      <point x="197" y="240" type="curve" smooth="yes"/>
      <point x="197" y="226"/>
      <point x="205" y="220"/>
      <point x="221" y="218" type="curve"/>
      <point x="257" y="216"/>
      <point x="282" y="191"/>
      <point x="282" y="154" type="curve" smooth="yes"/>
      <point x="282" y="-19" type="line" smooth="yes"/>
      <point x="282" y="-78"/>
      <point x="324" y="-124"/>
      <point x="379" y="-124" type="curve" smooth="yes"/>
      <point x="394" y="-124"/>
      <point x="403" y="-117"/>
      <point x="403" y="-104" type="curve" smooth="yes"/>
      <point x="403" y="-90"/>
      <point x="396" y="-85"/>
      <point x="377" y="-83" type="curve" smooth="yes"/>
      <point x="345" y="-80"/>
      <point x="322" y="-53"/>
      <point x="322" y="-19" type="curve" smooth="yes"/>
      <point x="322" y="154" type="line" smooth="yes"/>
      <point x="322" y="195"/>
      <point x="311" y="216"/>
      <point x="278" y="240" type="curve"/>
      <point x="311" y="265"/>
      <point x="322" y="285"/>
      <point x="322" y="326" type="curve" smooth="yes"/>
    </contour>
  </outline>
</glyph>
<glyph name="bar" format="1">
  <advance width="600"/>
  <unicode hex="007C"/>
  <outline>
    <contour>
      <point x="320" y="576" type="line" smooth="yes"/>
      <point x="320" y="595"/>
      <point x="313" y="604"/>
      <point x="300" y="604" type="curve" smooth="yes"/>
      <point x="286" y="604"/>
      <point x="280" y="595"/>
      <point x="280" y="576" type="curve" smooth="yes"/>
      <point x="280" y="-97" type="line" smooth="yes"/>
      <point x="280" y="-115"/>
      <point x="286" y="-124"/>
      <point x="300" y="-124" type="curve" smooth="yes"/>
      <point x="313" y="-124"/>
      <point x="320" y="-115"/>
      <point x="320" y="-97" type="curve" smooth="yes"/>
    </contour>
  </outline>
</glyph>
<glyph name="braceright" format="1">
  <advance width="600"/>
  <unicode hex="007D"/>
  <outline>
    <contour>
      <point x="278" y="-19" type="line" smooth="yes"/>
      <point x="278" y="-53"/>
      <point x="255" y="-80"/>
      <point x="223" y="-83" type="curve" smooth="yes"/>
      <point x="204" y="-85"/>
      <point x="197" y="-90"/>
      <point x="197" y="-104" type="curve" smooth="yes"/>
      <point x="197" y="-117"/>
      <point x="206" y="-124"/>
      <point x="221" y="-124" type="curve" smooth="yes"/>
      <point x="275" y="-124"/>
      <point x="319" y="-78"/>
      <point x="319" y="-19" type="curve" smooth="yes"/>
      <point x="319" y="154" type="line" smooth="yes"/>
      <point x="319" y="191"/>
      <point x="343" y="216"/>
      <point x="379" y="218" type="curve"/>
      <point x="394" y="220"/>
      <point x="403" y="227"/>
      <point x="403" y="240" type="curve" smooth="yes"/>
      <point x="403" y="254"/>
      <point x="394" y="260"/>
      <point x="379" y="261" type="curve" smooth="yes"/>
      <point x="343" y="265"/>
      <point x="319" y="290"/>
      <point x="319" y="326" type="curve" smooth="yes"/>
      <point x="319" y="499" type="line" smooth="yes"/>
      <point x="319" y="558"/>
      <point x="275" y="604"/>
      <point x="221" y="604" type="curve" smooth="yes"/>
      <point x="206" y="604"/>
      <point x="197" y="596"/>
      <point x="197" y="584" type="curve" smooth="yes"/>
      <point x="197" y="570"/>
      <point x="204" y="566"/>
      <point x="223" y="563" type="curve" smooth="yes"/>
      <point x="255" y="559"/>
      <point x="278" y="533"/>
      <point x="278" y="499" type="curve" smooth="yes"/>
      <point x="278" y="326" type="line" smooth="yes"/>
      <point x="278" y="285"/>
      <point x="289" y="265"/>
      <point x="322" y="240" type="curve"/>
      <point x="289" y="216"/>
      <point x="278" y="195"/>
      <point x="278" y="154" type="curve" smooth="yes"/>
    </contour>
  </outline>
</glyph>
<glyph name="asciitilde" format="1">
  <advance width="600"/>
  <unicode hex="007E"/>
  <outline>
    <contour>
      <point x="488" y="330" type="curve" smooth="yes"/>
      <point x="478" y="330"/>
      <point x="475" y="326"/>
      <point x="459" y="305" type="curve" smooth="yes"/>
      <point x="434" y="269"/>
      <point x="410" y="252"/>
      <point x="386" y="252" type="curve" smooth="yes"/>
      <point x="370" y="252"/>
      <point x="357" y="261"/>
      <point x="313" y="297" type="curve" smooth="yes"/>
      <point x="258" y="340"/>
      <point x="244" y="348"/>
      <point x="212" y="348" type="curve" smooth="yes"/>
      <point x="178" y="348"/>
      <point x="154" y="333"/>
      <point x="120" y="294" type="curve" smooth="yes"/>
      <point x="100" y="271"/>
      <point x="92" y="257"/>
      <point x="92" y="249" type="curve" smooth="yes"/>
      <point x="92" y="239"/>
      <point x="101" y="231"/>
      <point x="110" y="231" type="curve" smooth="yes"/>
      <point x="119" y="231"/>
      <point x="124" y="233"/>
      <point x="131" y="242" type="curve" smooth="yes"/>
      <point x="175" y="299"/>
      <point x="186" y="307"/>
      <point x="212" y="307" type="curve" smooth="yes"/>
      <point x="229" y="307"/>
      <point x="248" y="297"/>
      <point x="273" y="277" type="curve" smooth="yes"/>
      <point x="336" y="225"/>
      <point x="357" y="212"/>
      <point x="390" y="212" type="curve" smooth="yes"/>
      <point x="420" y="212"/>
      <point x="449" y="231"/>
      <point x="483" y="271" type="curve" smooth="yes"/>
      <point x="500" y="291"/>
      <point x="508" y="303"/>
      <point x="508" y="311" type="curve" smooth="yes"/>
      <point x="508" y="322"/>
      <point x="499" y="330"/>
    </contour>
  </outline>
</glyph>
<glyph name="exclamdown" format="1">
  <advance width="600"/>
  <unicode hex="00A1"/>
  <outline>
    <contour>
      <point x="262" y="-161" type="line"/>
      <point x="261" y="-169"/>
      <point x="261" y="-175"/>
      <point x="261" y="-177" type="curve" smooth="yes"/>
      <point x="261" y="-199"/>
      <point x="278" y="-216"/>
      <point x="300" y="-216" type="curve" smooth="yes"/>
      <point x="323" y="-216"/>
      <point x="340" y="-199"/>
      <point x="340" y="-177" type="curve" smooth="yes"/>
      <point x="340" y="-174"/>
      <point x="340" y="-167"/>
      <point x="339" y="-161" type="curve"/>
      <point x="322" y="165" type="line"/>
      <point x="320" y="184"/>
      <point x="314" y="193"/>
      <point x="301" y="193" type="curve" smooth="yes"/>
      <point x="286" y="193"/>
      <point x="282" y="184"/>
      <point x="280" y="165" type="curve" smooth="yes"/>
    </contour>
    <contour>
      <point x="307" y="317" type="line" smooth="yes"/>
      <point x="337" y="317"/>
      <point x="360" y="339"/>
      <point x="360" y="367" type="curve" smooth="yes"/>
      <point x="360" y="394"/>
      <point x="337" y="417"/>
      <point x="307" y="417" type="curve" smooth="yes"/>
      <point x="294" y="417" type="line" smooth="yes"/>
      <point x="265" y="417"/>
      <point x="240" y="394"/>
      <point x="240" y="367" type="curve" smooth="yes"/>
      <point x="240" y="339"/>
      <point x="265" y="317"/>
      <point x="294" y="317" type="curve" smooth="yes"/>
    </contour>
  </outline>
</glyph>
<glyph name="cent" format="1">
  <advance width="600"/>
  <unicode hex="00A2"/>
  <outline>
    <contour>
      <point x="280" y="496" type="line"/>
      <point x="238" y="487"/>
      <point x="217" y="478"/>
      <point x="194" y="464" type="curve"/>
      <point x="143" y="428"/>
      <point x="113" y="373"/>
      <point x="113" y="311" type="curve" smooth="yes"/>
      <point x="113" y="216"/>
      <point x="183" y="138"/>
      <point x="280" y="127" type="curve"/>
      <point x="280" y="15" type="line" smooth="yes"/>
      <point x="280" y="-4"/>
      <point x="286" y="-13"/>
      <point x="301" y="-13" type="curve" smooth="yes"/>
      <point x="314" y="-13"/>
      <point x="322" y="-4"/>
      <point x="322" y="15" type="curve" smooth="yes"/>
      <point x="322" y="127" type="line"/>
      <point x="388" y="130"/>
      <point x="468" y="167"/>
      <point x="468" y="195" type="curve" smooth="yes"/>
      <point x="468" y="208"/>
      <point x="461" y="215"/>
      <point x="450" y="215" type="curve" smooth="yes"/>
      <point x="444" y="215"/>
      <point x="441" y="214"/>
      <point x="432" y="208" type="curve"/>
      <point x="399" y="180"/>
      <point x="353" y="165"/>
      <point x="307" y="165" type="curve" smooth="yes"/>
      <point x="218" y="165"/>
      <point x="154" y="227"/>
      <point x="154" y="311" type="curve" smooth="yes"/>
      <point x="154" y="397"/>
      <point x="220" y="458"/>
      <point x="311" y="458" type="curve" smooth="yes"/>
      <point x="375" y="458"/>
      <point x="420" y="430"/>
      <point x="426" y="387" type="curve" smooth="yes"/>
      <point x="428" y="371"/>
      <point x="434" y="364"/>
      <point x="447" y="364" type="curve" smooth="yes"/>
      <point x="459" y="364"/>
      <point x="466" y="373"/>
      <point x="466" y="392" type="curve" smooth="yes"/>
      <point x="466" y="453" type="line" smooth="yes"/>
      <point x="466" y="468"/>
      <point x="458" y="478"/>
      <point x="445" y="478" type="curve" smooth="yes"/>
      <point x="434" y="478"/>
      <point x="428" y="472"/>
      <point x="425" y="461" type="curve"/>
      <point x="400" y="483"/>
      <point x="359" y="498"/>
      <point x="322" y="498" type="curve"/>
      <point x="322" y="603" type="line" smooth="yes"/>
      <point x="322" y="621"/>
      <point x="314" y="630"/>
      <point x="301" y="630" type="curve" smooth="yes"/>
      <point x="286" y="630"/>
      <point x="280" y="621"/>
      <point x="280" y="603" type="curve" smooth="yes"/>
    </contour>
  </outline>
</glyph>
<glyph name="sterling" format="1">
  <advance width="600"/>
  <unicode hex="00A3"/>
  <outline>
    <contour>
      <point x="182" y="41" type="line"/>
      <point x="218" y="87"/>
      <point x="239" y="148"/>
      <point x="239" y="216" type="curve" smooth="yes"/>
      <point x="239" y="234"/>
      <point x="237" y="252"/>
      <point x="234" y="273" type="curve"/>
      <point x="343" y="273" type="line" smooth="yes"/>
      <point x="362" y="273"/>
      <point x="371" y="280"/>
      <point x="371" y="292" type="curve" smooth="yes"/>
      <point x="371" y="307"/>
      <point x="362" y="314"/>
      <point x="343" y="314" type="curve" smooth="yes"/>
      <point x="225" y="314" type="line"/>
      <point x="223" y="322"/>
      <point x="222" y="326"/>
      <point x="221" y="328" type="curve"/>
      <point x="201" y="397"/>
      <point x="198" y="411"/>
      <point x="198" y="434" type="curve" smooth="yes"/>
      <point x="198" y="490"/>
      <point x="245" y="536"/>
      <point x="299" y="536" type="curve" smooth="yes"/>
      <point x="334" y="536"/>
      <point x="360" y="522"/>
      <point x="390" y="488" type="curve"/>
      <point x="396" y="479"/>
      <point x="400" y="476"/>
      <point x="407" y="476" type="curve" smooth="yes"/>
      <point x="416" y="476"/>
      <point x="427" y="485"/>
      <point x="427" y="495" type="curve" smooth="yes"/>
      <point x="427" y="505"/>
      <point x="415" y="522"/>
      <point x="396" y="539" type="curve" smooth="yes"/>
      <point x="367" y="566"/>
      <point x="334" y="578"/>
      <point x="299" y="578" type="curve" smooth="yes"/>
      <point x="220" y="578"/>
      <point x="157" y="515"/>
      <point x="157" y="434" type="curve" smooth="yes"/>
      <point x="157" y="409"/>
      <point x="163" y="380"/>
      <point x="184" y="314" type="curve"/>
      <point x="110" y="314" type="line" smooth="yes"/>
      <point x="92" y="314"/>
      <point x="83" y="307"/>
      <point x="83" y="294" type="curve" smooth="yes"/>
      <point x="83" y="280"/>
      <point x="92" y="273"/>
      <point x="110" y="273" type="curve" smooth="yes"/>
      <point x="194" y="273" type="line"/>
      <point x="197" y="260"/>
      <point x="198" y="237"/>
      <point x="198" y="220" type="curve" smooth="yes"/>
      <point x="198" y="127"/>
      <point x="155" y="42"/>
      <point x="108" y="40" type="curve" smooth="yes"/>
      <point x="93" y="40"/>
      <point x="86" y="32"/>
      <point x="86" y="21" type="curve" smooth="yes"/>
      <point x="86" y="7"/>
      <point x="95" y="0"/>
      <point x="113" y="0" type="curve" smooth="yes"/>
      <point x="436" y="0" type="line" smooth="yes"/>
      <point x="482" y="0"/>
      <point x="519" y="42"/>
      <point x="519" y="93" type="curve" smooth="yes"/>
      <point x="519" y="106"/>
      <point x="512" y="115"/>
      <point x="500" y="115" type="curve" smooth="yes"/>
      <point x="487" y="115"/>
      <point x="481" y="108"/>
      <point x="479" y="92" type="curve"/>
      <point x="477" y="59"/>
      <point x="459" y="41"/>
      <point x="434" y="41" type="curve" smooth="yes"/>
    </contour>
  </outline>
</glyph>
<glyph name="currency" format="1">
  <advance width="600"/>
  <unicode hex="00A4"/>
  <outline>
    <contour>
      <point x="199" y="161" type="line"/>
      <point x="229" y="140"/>
      <point x="263" y="127"/>
      <point x="300" y="127" type="curve" smooth="yes"/>
      <point x="337" y="127"/>
      <point x="369" y="138"/>
      <point x="400" y="161" type="curve"/>
      <point x="458" y="106" type="line"/>
      <point x="464" y="98"/>
      <point x="470" y="95"/>
      <point x="476" y="95" type="curve" smooth="yes"/>
      <point x="487" y="95"/>
      <point x="496" y="104"/>
      <point x="496" y="115" type="curve" smooth="yes"/>
      <point x="496" y="121"/>
      <point x="492" y="129"/>
      <point x="485" y="135" type="curve"/>
      <point x="431" y="191" type="line"/>
      <point x="454" y="220"/>
      <point x="466" y="256"/>
      <point x="466" y="292" type="curve" smooth="yes"/>
      <point x="466" y="329"/>
      <point x="455" y="362"/>
      <point x="432" y="394" type="curve"/>
      <point x="487" y="450" type="line" smooth="yes"/>
      <point x="496" y="459"/>
      <point x="498" y="461"/>
      <point x="498" y="468" type="curve" smooth="yes"/>
      <point x="498" y="481"/>
      <point x="488" y="489"/>
      <point x="477" y="489" type="curve" smooth="yes"/>
      <point x="470" y="489"/>
      <point x="466" y="487"/>
      <point x="458" y="478" type="curve"/>
      <point x="402" y="424" type="line"/>
      <point x="374" y="445"/>
      <point x="337" y="458"/>
      <point x="300" y="458" type="curve" smooth="yes"/>
      <point x="263" y="458"/>
      <point x="227" y="447"/>
      <point x="198" y="424" type="curve"/>
      <point x="142" y="478" type="line"/>
      <point x="133" y="485"/>
      <point x="130" y="489"/>
      <point x="123" y="489" type="curve" smooth="yes"/>
      <point x="112" y="489"/>
      <point x="103" y="481"/>
      <point x="103" y="468" type="curve" smooth="yes"/>
      <point x="103" y="462"/>
      <point x="106" y="458"/>
      <point x="114" y="450" type="curve" smooth="yes"/>
      <point x="169" y="394" type="line"/>
      <point x="147" y="367"/>
      <point x="135" y="329"/>
      <point x="135" y="292" type="curve" smooth="yes"/>
      <point x="135" y="256"/>
      <point x="146" y="223"/>
      <point x="170" y="191" type="curve"/>
      <point x="114" y="135" type="line" smooth="yes"/>
      <point x="106" y="127"/>
      <point x="103" y="123"/>
      <point x="103" y="115" type="curve" smooth="yes"/>
      <point x="103" y="104"/>
      <point x="112" y="95"/>
      <point x="124" y="95" type="curve" smooth="yes"/>
      <point x="130" y="95"/>
      <point x="133" y="97"/>
      <point x="142" y="106" type="curve" smooth="yes"/>
    </contour>
    <contour>
      <point x="300" y="417" type="curve" smooth="yes"/>
      <point x="369" y="417"/>
      <point x="424" y="360"/>
      <point x="424" y="291" type="curve" smooth="yes"/>
      <point x="424" y="225"/>
      <point x="367" y="167"/>
      <point x="300" y="167" type="curve" smooth="yes"/>
      <point x="232" y="167"/>
      <point x="176" y="225"/>
      <point x="176" y="292" type="curve" smooth="yes"/>
      <point x="176" y="360"/>
      <point x="232" y="417"/>
    </contour>
  </outline>
</glyph>
<glyph name="yen" format="1">
  <advance width="600"/>
  <unicode hex="00A5"/>
  <outline>
    <contour>
      <point x="322" y="238" type="line"/>
      <point x="451" y="238" type="line" smooth="yes"/>
      <point x="468" y="238"/>
      <point x="473" y="243"/>
      <point x="473" y="257" type="curve" smooth="yes"/>
      <point x="473" y="269"/>
      <point x="468" y="275"/>
      <point x="451" y="275" type="curve" smooth="yes"/>
      <point x="334" y="275" type="line"/>
      <point x="498" y="522" type="line"/>
      <point x="522" y="522" type="line" smooth="yes"/>
      <point x="540" y="522"/>
      <point x="549" y="529"/>
      <point x="549" y="542" type="curve" smooth="yes"/>
      <point x="549" y="556"/>
      <point x="540" y="563"/>
      <point x="522" y="563" type="curve" smooth="yes"/>
      <point x="411" y="563" type="line" smooth="yes"/>
      <point x="394" y="563"/>
      <point x="385" y="556"/>
      <point x="385" y="542" type="curve" smooth="yes"/>
      <point x="385" y="529"/>
      <point x="394" y="522"/>
      <point x="411" y="522" type="curve" smooth="yes"/>
      <point x="451" y="522" type="line"/>
      <point x="300" y="295" type="line"/>
      <point x="149" y="522" type="line"/>
      <point x="188" y="522" type="line" smooth="yes"/>
      <point x="206" y="522"/>
      <point x="215" y="529"/>
      <point x="215" y="542" type="curve" smooth="yes"/>
      <point x="215" y="556"/>
      <point x="206" y="563"/>
      <point x="188" y="563" type="curve" smooth="yes"/>
      <point x="78" y="563" type="line" smooth="yes"/>
      <point x="59" y="563"/>
      <point x="51" y="556"/>
      <point x="51" y="542" type="curve" smooth="yes"/>
      <point x="51" y="529"/>
      <point x="59" y="522"/>
      <point x="78" y="522" type="curve" smooth="yes"/>
      <point x="102" y="522" type="line"/>
      <point x="266" y="275" type="line"/>
      <point x="150" y="275" type="line" smooth="yes"/>
      <point x="133" y="275"/>
      <point x="127" y="269"/>
      <point x="127" y="257" type="curve" smooth="yes"/>
      <point x="127" y="243"/>
      <point x="133" y="238"/>
      <point x="150" y="238" type="curve" smooth="yes"/>
      <point x="280" y="238" type="line"/>
      <point x="280" y="178" type="line"/>
      <point x="150" y="178" type="line" smooth="yes"/>
      <point x="133" y="178"/>
      <point x="127" y="174"/>
      <point x="127" y="160" type="curve" smooth="yes"/>
      <point x="127" y="146"/>
      <point x="133" y="141"/>
      <point x="150" y="141" type="curve" smooth="yes"/>
      <point x="280" y="141" type="line"/>
      <point x="280" y="41" type="line"/>
      <point x="194" y="41" type="line" smooth="yes"/>
      <point x="176" y="41"/>
      <point x="167" y="34"/>
      <point x="167" y="21" type="curve" smooth="yes"/>
      <point x="167" y="7"/>
      <point x="176" y="0"/>
      <point x="194" y="0" type="curve" smooth="yes"/>
      <point x="407" y="0" type="line" smooth="yes"/>
      <point x="425" y="0"/>
      <point x="434" y="7"/>
      <point x="434" y="21" type="curve" smooth="yes"/>
      <point x="434" y="34"/>
      <point x="425" y="41"/>
      <point x="407" y="41" type="curve" smooth="yes"/>
      <point x="322" y="41" type="line"/>
      <point x="322" y="141" type="line"/>
      <point x="451" y="141" type="line" smooth="yes"/>
      <point x="467" y="141"/>
      <point x="473" y="146"/>
      <point x="473" y="160" type="curve" smooth="yes"/>
      <point x="473" y="174"/>
      <point x="467" y="178"/>
      <point x="451" y="178" type="curve" smooth="yes"/>
      <point x="322" y="178" type="line"/>
    </contour>
  </outline>
</glyph>
<glyph name="brokenbar" format="1">
  <advance width="600"/>
  <unicode hex="00A6"/>
  <outline>
    <contour>
      <point x="320" y="576" type="line" smooth="yes"/>
      <point x="320" y="595"/>
      <point x="313" y="604"/>
      <point x="300" y="604" type="curve" smooth="yes"/>
      <point x="286" y="604"/>
      <point x="280" y="595"/>
      <point x="280" y="576" type="curve" smooth="yes"/>
      <point x="280" y="309" type="line" smooth="yes"/>
      <point x="280" y="292"/>
      <point x="286" y="283"/>
      <point x="300" y="283" type="curve" smooth="yes"/>
      <point x="313" y="283"/>
      <point x="320" y="292"/>
      <point x="320" y="309" type="curve" smooth="yes"/>
    </contour>
    <contour>
      <point x="320" y="170" type="line" smooth="yes"/>
      <point x="320" y="188"/>
      <point x="313" y="197"/>
      <point x="300" y="197" type="curve" smooth="yes"/>
      <point x="286" y="197"/>
      <point x="280" y="188"/>
      <point x="280" y="170" type="curve" smooth="yes"/>
      <point x="280" y="-97" type="line" smooth="yes"/>
      <point x="280" y="-115"/>
      <point x="286" y="-124"/>
      <point x="300" y="-124" type="curve" smooth="yes"/>
      <point x="313" y="-124"/>
      <point x="320" y="-115"/>
      <point x="320" y="-97" type="curve" smooth="yes"/>
    </contour>
  </outline>
</glyph>
<glyph name="section" format="1">
  <advance width="600"/>
  <unicode hex="00A7"/>
  <outline>
    <contour>
      <point x="496" y="603" type="line"/>
      <point x="284" y="603" type="line" smooth="yes"/>
      <point x="215" y="603"/>
      <point x="157" y="550"/>
      <point x="157" y="487" type="curve" smooth="yes"/>
      <point x="157" y="468"/>
      <point x="160" y="456"/>
      <point x="169" y="441" type="curve"/>
      <point x="107" y="436"/>
      <point x="66" y="403"/>
      <point x="66" y="358" type="curve" smooth="yes"/>
      <point x="66" y="312"/>
      <point x="110" y="266"/>
      <point x="208" y="211" type="curve" smooth="yes"/>
      <point x="273" y="175" type="line" smooth="yes"/>
      <point x="369" y="121"/>
      <point x="404" y="89"/>
      <point x="404" y="53" type="curve" smooth="yes"/>
      <point x="404" y="11"/>
      <point x="364" y="-22"/>
      <point x="311" y="-22" type="curve" smooth="yes"/>
      <point x="146" y="-22" type="line"/>
      <point x="146" y="49" type="line" smooth="yes"/>
      <point x="146" y="64"/>
      <point x="140" y="73"/>
      <point x="126" y="73" type="curve" smooth="yes"/>
      <point x="112" y="73"/>
      <point x="106" y="64"/>
      <point x="106" y="49" type="curve" smooth="yes"/>
      <point x="106" y="-62" type="line"/>
      <point x="312" y="-62" type="line" smooth="yes"/>
      <point x="388" y="-62"/>
      <point x="445" y="-13"/>
      <point x="445" y="52" type="curve" smooth="yes"/>
      <point x="445" y="72"/>
      <point x="441" y="86"/>
      <point x="432" y="101" type="curve"/>
      <point x="466" y="106"/>
      <point x="481" y="110"/>
      <point x="498" y="121" type="curve" smooth="yes"/>
      <point x="521" y="137"/>
      <point x="534" y="159"/>
      <point x="534" y="184" type="curve" smooth="yes"/>
      <point x="534" y="234"/>
      <point x="495" y="275"/>
      <point x="400" y="326" type="curve" smooth="yes"/>
      <point x="345" y="358" type="line" smooth="yes"/>
      <point x="226" y="424"/>
      <point x="197" y="450"/>
      <point x="197" y="487" type="curve" smooth="yes"/>
      <point x="197" y="528"/>
      <point x="238" y="563"/>
      <point x="286" y="563" type="curve" smooth="yes"/>
      <point x="455" y="563" type="line"/>
      <point x="455" y="494" type="line" smooth="yes"/>
      <point x="455" y="479"/>
      <point x="464" y="470"/>
      <point x="476" y="470" type="curve" smooth="yes"/>
      <point x="489" y="470"/>
      <point x="496" y="479"/>
      <point x="496" y="494" type="curve" smooth="yes"/>
    </contour>
    <contour>
      <point x="383" y="290" type="line" smooth="yes"/>
      <point x="449" y="255"/>
      <point x="492" y="214"/>
      <point x="492" y="184" type="curve" smooth="yes"/>
      <point x="492" y="159"/>
      <point x="464" y="143"/>
      <point x="417" y="142" type="curve"/>
      <point x="404" y="141"/>
      <point x="404" y="141"/>
      <point x="400" y="140" type="curve"/>
      <point x="382" y="157"/>
      <point x="351" y="177"/>
      <point x="296" y="208" type="curve" smooth="yes"/>
      <point x="234" y="243" type="line" smooth="yes"/>
      <point x="150" y="290"/>
      <point x="109" y="328"/>
      <point x="109" y="357" type="curve" smooth="yes"/>
      <point x="109" y="383"/>
      <point x="141" y="402"/>
      <point x="183" y="402" type="curve" smooth="yes"/>
      <point x="195" y="402"/>
      <point x="195" y="402"/>
      <point x="201" y="403" type="curve"/>
      <point x="228" y="379"/>
      <point x="256" y="360"/>
      <point x="320" y="326" type="curve" smooth="yes"/>
    </contour>
  </outline>
</glyph>
<glyph name="dieresis" format="1">
  <advance width="600"/>
  <unicode hex="00A8"/>
  <outline>
    <contour>
      <point x="200" y="627" type="line" smooth="yes"/>
      <point x="187" y="627"/>
      <point x="180" y="619"/>
      <point x="180" y="601" type="curve" smooth="yes"/>
      <point x="180" y="544" type="line" smooth="yes"/>
      <point x="180" y="525"/>
      <point x="187" y="517"/>
      <point x="200" y="517" type="curve" smooth="yes"/>
      <point x="225" y="517" type="line" smooth="yes"/>
      <point x="237" y="517"/>
      <point x="244" y="525"/>
      <point x="244" y="544" type="curve" smooth="yes"/>
      <point x="244" y="601" type="line" smooth="yes"/>
      <point x="244" y="619"/>
      <point x="237" y="627"/>
      <point x="225" y="627" type="curve" smooth="yes"/>
    </contour>
    <contour>
      <point x="376" y="627" type="line" smooth="yes"/>
      <point x="363" y="627"/>
      <point x="356" y="619"/>
      <point x="356" y="601" type="curve" smooth="yes"/>
      <point x="356" y="544" type="line" smooth="yes"/>
      <point x="356" y="525"/>
      <point x="363" y="517"/>
      <point x="376" y="517" type="curve" smooth="yes"/>
      <point x="400" y="517" type="line" smooth="yes"/>
      <point x="413" y="517"/>
      <point x="420" y="525"/>
      <point x="420" y="544" type="curve" smooth="yes"/>
      <point x="420" y="601" type="line" smooth="yes"/>
      <point x="420" y="619"/>
      <point x="413" y="627"/>
      <point x="400" y="627" type="curve" smooth="yes"/>
    </contour>
  </outline>
</glyph>
<glyph name="copyright" format="1">
  <advance width="600"/>
  <unicode hex="00A9"/>
  <outline>
    <contour>
      <point x="153" y="260" type="line" smooth="yes"/>
      <point x="153" y="181"/>
      <point x="223" y="110"/>
      <point x="302" y="110" type="curve" smooth="yes"/>
      <point x="339" y="110"/>
      <point x="373" y="125"/>
      <point x="402" y="152" type="curve" smooth="yes"/>
      <point x="417" y="166"/>
      <point x="425" y="177"/>
      <point x="425" y="184" type="curve" smooth="yes"/>
      <point x="425" y="194"/>
      <point x="417" y="201"/>
      <point x="408" y="201" type="curve" smooth="yes"/>
      <point x="400" y="201"/>
      <point x="397" y="200"/>
      <point x="392" y="194" type="curve" smooth="yes"/>
      <point x="363" y="160"/>
      <point x="339" y="147"/>
      <point x="302" y="147" type="curve" smooth="yes"/>
      <point x="240" y="147"/>
      <point x="189" y="200"/>
      <point x="189" y="263" type="curve" smooth="yes"/>
      <point x="189" y="302" type="line" smooth="yes"/>
      <point x="189" y="364"/>
      <point x="235" y="414"/>
      <point x="292" y="414" type="curve" smooth="yes"/>
      <point x="339" y="414"/>
      <point x="377" y="388"/>
      <point x="381" y="357" type="curve" smooth="yes"/>
      <point x="383" y="345"/>
      <point x="390" y="339"/>
      <point x="399" y="339" type="curve" smooth="yes"/>
      <point x="410" y="339"/>
      <point x="417" y="346"/>
      <point x="417" y="358" type="curve" smooth="yes"/>
      <point x="417" y="424" type="line" smooth="yes"/>
      <point x="417" y="434"/>
      <point x="410" y="443"/>
      <point x="399" y="443" type="curve" smooth="yes"/>
      <point x="388" y="443"/>
      <point x="381" y="434"/>
      <point x="381" y="421" type="curve"/>
      <point x="346" y="443"/>
      <point x="324" y="450"/>
      <point x="292" y="450" type="curve" smooth="yes"/>
      <point x="216" y="450"/>
      <point x="153" y="385"/>
      <point x="153" y="305" type="curve" smooth="yes"/>
    </contour>
    <contour>
      <point x="300" y="578" type="curve" smooth="yes"/>
      <point x="136" y="578"/>
      <point x="2" y="445"/>
      <point x="2" y="282" type="curve" smooth="yes"/>
      <point x="2" y="120"/>
      <point x="136" y="-15"/>
      <point x="296" y="-15" type="curve" smooth="yes"/>
      <point x="464" y="-15"/>
      <point x="596" y="117"/>
      <point x="596" y="282" type="curve" smooth="yes"/>
      <point x="596" y="445"/>
      <point x="464" y="578"/>
    </contour>
    <contour>
      <point x="300" y="536" type="curve" smooth="yes"/>
      <point x="441" y="536"/>
      <point x="555" y="422"/>
      <point x="555" y="282" type="curve" smooth="yes"/>
      <point x="555" y="140"/>
      <point x="441" y="25"/>
      <point x="296" y="25" type="curve" smooth="yes"/>
      <point x="159" y="25"/>
      <point x="44" y="142"/>
      <point x="44" y="282" type="curve" smooth="yes"/>
      <point x="44" y="424"/>
      <point x="159" y="536"/>
    </contour>
  </outline>
</glyph>
<glyph name="ordfeminine" format="1">
  <advance width="600"/>
  <unicode hex="00AA"/>
  <outline>
    <contour>
      <point x="360" y="282" type="line"/>
      <point x="424" y="282" type="line" smooth="yes"/>
      <point x="438" y="282"/>
      <point x="447" y="289"/>
      <point x="447" y="300" type="curve" smooth="yes"/>
      <point x="447" y="312"/>
      <point x="439" y="319"/>
      <point x="424" y="319" type="curve" smooth="yes"/>
      <point x="398" y="319" type="line"/>
      <point x="398" y="490" type="line" smooth="yes"/>
      <point x="398" y="539"/>
      <point x="356" y="574"/>
      <point x="299" y="574" type="curve" smooth="yes"/>
      <point x="274" y="574"/>
      <point x="233" y="564"/>
      <point x="203" y="552" type="curve"/>
      <point x="193" y="547"/>
      <point x="189" y="542"/>
      <point x="189" y="533" type="curve" smooth="yes"/>
      <point x="189" y="523"/>
      <point x="197" y="515"/>
      <point x="206" y="515" type="curve" smooth="yes"/>
      <point x="210" y="515"/>
      <point x="212" y="515"/>
      <point x="220" y="518" type="curve" smooth="yes"/>
      <point x="250" y="530"/>
      <point x="278" y="536"/>
      <point x="296" y="536" type="curve" smooth="yes"/>
      <point x="335" y="536"/>
      <point x="360" y="518"/>
      <point x="360" y="490" type="curve" smooth="yes"/>
      <point x="360" y="447" type="line"/>
      <point x="331" y="451"/>
      <point x="311" y="455"/>
      <point x="288" y="455" type="curve" smooth="yes"/>
      <point x="211" y="455"/>
      <point x="155" y="415"/>
      <point x="155" y="358" type="curve" smooth="yes"/>
      <point x="155" y="311"/>
      <point x="195" y="279"/>
      <point x="254" y="279" type="curve" smooth="yes"/>
      <point x="292" y="279"/>
      <point x="320" y="286"/>
      <point x="360" y="308" type="curve"/>
    </contour>
    <contour>
      <point x="360" y="350" type="line"/>
      <point x="326" y="326"/>
      <point x="292" y="316"/>
      <point x="254" y="316" type="curve" smooth="yes"/>
      <point x="217" y="316"/>
      <point x="192" y="333"/>
      <point x="192" y="356" type="curve" smooth="yes"/>
      <point x="192" y="393"/>
      <point x="233" y="420"/>
      <point x="290" y="420" type="curve" smooth="yes"/>
      <point x="313" y="420"/>
      <point x="345" y="415"/>
      <point x="360" y="409" type="curve"/>
    </contour>
  </outline>
</glyph>
<glyph name="guillemotleft" format="1">
  <advance width="600"/>
  <unicode hex="00AB"/>
  <outline>
    <contour>
      <point x="63" y="251" type="line"/>
      <point x="271" y="53" type="line" smooth="yes"/>
      <point x="279" y="46"/>
      <point x="286" y="42"/>
      <point x="292" y="42" type="curve" smooth="yes"/>
      <point x="303" y="42"/>
      <point x="312" y="51"/>
      <point x="312" y="62" type="curve" smooth="yes"/>
      <point x="312" y="69"/>
      <point x="311" y="72"/>
      <point x="301" y="83" type="curve" smooth="yes"/>
      <point x="158" y="251" type="line"/>
      <point x="301" y="419" type="line" smooth="yes"/>
      <point x="311" y="430"/>
      <point x="312" y="432"/>
      <point x="312" y="439" type="curve" smooth="yes"/>
      <point x="312" y="450"/>
      <point x="303" y="459"/>
      <point x="292" y="459" type="curve" smooth="yes"/>
      <point x="285" y="459"/>
      <point x="279" y="456"/>
      <point x="271" y="448" type="curve" smooth="yes"/>
    </contour>
    <contour>
      <point x="292" y="251" type="line"/>
      <point x="500" y="53" type="line" smooth="yes"/>
      <point x="508" y="46"/>
      <point x="515" y="42"/>
      <point x="521" y="42" type="curve" smooth="yes"/>
      <point x="532" y="42"/>
      <point x="541" y="51"/>
      <point x="541" y="62" type="curve" smooth="yes"/>
      <point x="541" y="69"/>
      <point x="540" y="72"/>
      <point x="530" y="83" type="curve" smooth="yes"/>
      <point x="387" y="251" type="line"/>
      <point x="530" y="419" type="line" smooth="yes"/>
      <point x="540" y="430"/>
      <point x="541" y="432"/>
      <point x="541" y="439" type="curve" smooth="yes"/>
      <point x="541" y="450"/>
      <point x="532" y="459"/>
      <point x="521" y="459" type="curve" smooth="yes"/>
      <point x="515" y="459"/>
      <point x="508" y="456"/>
      <point x="500" y="448" type="curve" smooth="yes"/>
    </contour>
  </outline>
</glyph>
<glyph name="logicalnot" format="1">
  <advance width="600"/>
  <unicode hex="00AC"/>
  <outline>
    <contour>
      <point x="487" y="231" type="line"/>
      <point x="487" y="79" type="line" smooth="yes"/>
      <point x="487" y="61"/>
      <point x="494" y="52"/>
      <point x="507" y="52" type="curve" smooth="yes"/>
      <point x="521" y="52"/>
      <point x="528" y="61"/>
      <point x="528" y="79" type="curve" smooth="yes"/>
      <point x="528" y="272" type="line"/>
      <point x="100" y="272" type="line" smooth="yes"/>
      <point x="81" y="272"/>
      <point x="72" y="265"/>
      <point x="72" y="252" type="curve" smooth="yes"/>
      <point x="72" y="238"/>
      <point x="81" y="231"/>
      <point x="100" y="231" type="curve" smooth="yes"/>
    </contour>
  </outline>
</glyph>
<glyph name="registered" format="1">
  <advance width="600"/>
  <unicode hex="00AE"/>
  <outline>
    <contour>
      <point x="233" y="258" type="line"/>
      <point x="296" y="258" type="line"/>
      <point x="331" y="246"/>
      <point x="370" y="198"/>
      <point x="407" y="120" type="curve"/>
      <point x="447" y="120" type="line" smooth="yes"/>
      <point x="458" y="120"/>
      <point x="466" y="127"/>
      <point x="466" y="138" type="curve" smooth="yes"/>
      <point x="466" y="149"/>
      <point x="458" y="157"/>
      <point x="447" y="157" type="curve" smooth="yes"/>
      <point x="431" y="157" type="line"/>
      <point x="390" y="228"/>
      <point x="379" y="243"/>
      <point x="346" y="269" type="curve"/>
      <point x="390" y="282"/>
      <point x="416" y="312"/>
      <point x="416" y="350" type="curve" smooth="yes"/>
      <point x="416" y="404"/>
      <point x="373" y="443"/>
      <point x="311" y="443" type="curve" smooth="yes"/>
      <point x="174" y="443" type="line" smooth="yes"/>
      <point x="160" y="443"/>
      <point x="152" y="436"/>
      <point x="152" y="425" type="curve" smooth="yes"/>
      <point x="152" y="414"/>
      <point x="160" y="407"/>
      <point x="174" y="407" type="curve" smooth="yes"/>
      <point x="197" y="407" type="line"/>
      <point x="197" y="157" type="line"/>
      <point x="174" y="157" type="line" smooth="yes"/>
      <point x="160" y="157"/>
      <point x="152" y="149"/>
      <point x="152" y="138" type="curve" smooth="yes"/>
      <point x="152" y="127"/>
      <point x="160" y="120"/>
      <point x="174" y="120" type="curve" smooth="yes"/>
      <point x="269" y="120" type="line" smooth="yes"/>
      <point x="282" y="120"/>
      <point x="289" y="127"/>
      <point x="289" y="138" type="curve" smooth="yes"/>
      <point x="289" y="149"/>
      <point x="282" y="157"/>
      <point x="269" y="157" type="curve" smooth="yes"/>
      <point x="233" y="157" type="line"/>
    </contour>
    <contour>
      <point x="233" y="294" type="line"/>
      <point x="233" y="407" type="line"/>
      <point x="309" y="407" type="line" smooth="yes"/>
      <point x="351" y="407"/>
      <point x="380" y="383"/>
      <point x="380" y="352" type="curve" smooth="yes"/>
      <point x="380" y="316"/>
      <point x="345" y="294"/>
      <point x="289" y="294" type="curve" smooth="yes"/>
    </contour>
    <contour>
      <point x="300" y="578" type="curve" smooth="yes"/>
      <point x="136" y="578"/>
      <point x="2" y="445"/>
      <point x="2" y="282" type="curve" smooth="yes"/>
      <point x="2" y="120"/>
      <point x="136" y="-15"/>
      <point x="296" y="-15" type="curve" smooth="yes"/>
      <point x="464" y="-15"/>
      <point x="596" y="117"/>
      <point x="596" y="282" type="curve" smooth="yes"/>
      <point x="596" y="445"/>
      <point x="464" y="578"/>
    </contour>
    <contour>
      <point x="300" y="536" type="curve" smooth="yes"/>
      <point x="441" y="536"/>
      <point x="555" y="422"/>
      <point x="555" y="282" type="curve" smooth="yes"/>
      <point x="555" y="140"/>
      <point x="441" y="25"/>
      <point x="296" y="25" type="curve" smooth="yes"/>
      <point x="159" y="25"/>
      <point x="44" y="142"/>
      <point x="44" y="282" type="curve" smooth="yes"/>
      <point x="44" y="424"/>
      <point x="159" y="536"/>
    </contour>
  </outline>
</glyph>
<glyph name="macron" format="1">
  <advance width="600"/>
  <unicode hex="00AF"/>
  <outline>
    <contour>
      <point x="417" y="555" type="line" smooth="yes"/>
      <point x="436" y="555"/>
      <point x="445" y="562"/>
      <point x="445" y="575" type="curve" smooth="yes"/>
      <point x="445" y="589"/>
      <point x="436" y="595"/>
      <point x="417" y="595" type="curve" smooth="yes"/>
      <point x="182" y="595" type="line" smooth="yes"/>
      <point x="164" y="595"/>
      <point x="155" y="589"/>
      <point x="155" y="575" type="curve" smooth="yes"/>
      <point x="155" y="562"/>
      <point x="164" y="555"/>
      <point x="182" y="555" type="curve" smooth="yes"/>
    </contour>
  </outline>
</glyph>
<glyph name="degree" format="1">
  <advance width="600"/>
  <unicode hex="00B0"/>
  <outline>
    <contour>
      <point x="300" y="636" type="curve" smooth="yes"/>
      <point x="221" y="636"/>
      <point x="155" y="572"/>
      <point x="155" y="493" type="curve" smooth="yes"/>
      <point x="155" y="411"/>
      <point x="218" y="346"/>
      <point x="300" y="346" type="curve" smooth="yes"/>
      <point x="380" y="346"/>
      <point x="445" y="411"/>
      <point x="445" y="492" type="curve" smooth="yes"/>
      <point x="445" y="572"/>
      <point x="380" y="636"/>
    </contour>
    <contour>
      <point x="300" y="595" type="curve" smooth="yes"/>
      <point x="357" y="595"/>
      <point x="404" y="549"/>
      <point x="404" y="492" type="curve" smooth="yes"/>
      <point x="404" y="434"/>
      <point x="357" y="387"/>
      <point x="300" y="387" type="curve" smooth="yes"/>
      <point x="242" y="387"/>
      <point x="197" y="434"/>
      <point x="197" y="492" type="curve" smooth="yes"/>
      <point x="197" y="549"/>
      <point x="243" y="595"/>
    </contour>
  </outline>
</glyph>
<glyph name="plusminus" format="1">
  <advance width="600"/>
  <unicode hex="00B1"/>
  <outline>
    <contour>
      <point x="320" y="301" type="line"/>
      <point x="500" y="301" type="line" smooth="yes"/>
      <point x="519" y="301"/>
      <point x="528" y="308"/>
      <point x="528" y="322" type="curve" smooth="yes"/>
      <point x="528" y="335"/>
      <point x="519" y="341"/>
      <point x="500" y="341" type="curve" smooth="yes"/>
      <point x="320" y="341" type="line"/>
      <point x="320" y="502" type="line" smooth="yes"/>
      <point x="320" y="519"/>
      <point x="313" y="529"/>
      <point x="300" y="529" type="curve" smooth="yes"/>
      <point x="286" y="529"/>
      <point x="279" y="519"/>
      <point x="279" y="502" type="curve" smooth="yes"/>
      <point x="279" y="341" type="line"/>
      <point x="100" y="341" type="line" smooth="yes"/>
      <point x="81" y="341"/>
      <point x="72" y="334"/>
      <point x="72" y="322" type="curve" smooth="yes"/>
      <point x="72" y="308"/>
      <point x="81" y="301"/>
      <point x="100" y="301" type="curve" smooth="yes"/>
      <point x="279" y="301" type="line"/>
      <point x="279" y="140" type="line" smooth="yes"/>
      <point x="279" y="121"/>
      <point x="286" y="112"/>
      <point x="300" y="112" type="curve" smooth="yes"/>
      <point x="313" y="112"/>
      <point x="320" y="121"/>
      <point x="320" y="140" type="curve" smooth="yes"/>
    </contour>
    <contour>
      <point x="100" y="40" type="line" smooth="yes"/>
      <point x="81" y="40"/>
      <point x="72" y="33"/>
      <point x="72" y="19" type="curve" smooth="yes"/>
      <point x="72" y="7"/>
      <point x="81" y="0"/>
      <point x="100" y="0" type="curve" smooth="yes"/>
      <point x="501" y="0" type="line" smooth="yes"/>
      <point x="519" y="0"/>
      <point x="528" y="7"/>
      <point x="528" y="19" type="curve" smooth="yes"/>
      <point x="528" y="33"/>
      <point x="519" y="40"/>
      <point x="501" y="40" type="curve" smooth="yes"/>
    </contour>
  </outline>
</glyph>
<glyph name="acute" format="1">
  <advance width="600"/>
  <unicode hex="00B4"/>
  <outline>
    <contour>
      <point x="433" y="625" type="line" smooth="yes"/>
      <point x="442" y="633"/>
      <point x="445" y="637"/>
      <point x="445" y="644" type="curve" smooth="yes"/>
      <point x="445" y="657"/>
      <point x="436" y="665"/>
      <point x="425" y="665" type="curve" smooth="yes"/>
      <point x="419" y="665"/>
      <point x="415" y="663"/>
      <point x="407" y="657" type="curve"/>
      <point x="292" y="556" type="line" smooth="yes"/>
      <point x="282" y="547"/>
      <point x="280" y="544"/>
      <point x="280" y="536" type="curve" smooth="yes"/>
      <point x="280" y="525"/>
      <point x="289" y="516"/>
      <point x="300" y="516" type="curve" smooth="yes"/>
      <point x="306" y="516"/>
      <point x="309" y="518"/>
      <point x="319" y="525" type="curve"/>
    </contour>
  </outline>
</glyph>
<glyph name="paragraph" format="1">
  <advance width="600"/>
  <unicode hex="00B6"/>
  <outline>
    <contour>
      <point x="437" y="563" type="line"/>
      <point x="498" y="563" type="line" smooth="yes"/>
      <point x="515" y="563"/>
      <point x="523" y="572"/>
      <point x="523" y="584" type="curve" smooth="yes"/>
      <point x="523" y="596"/>
      <point x="515" y="604"/>
      <point x="498" y="604" type="curve" smooth="yes"/>
      <point x="288" y="604" type="line" smooth="yes"/>
      <point x="154" y="604"/>
      <point x="73" y="528"/>
      <point x="73" y="443" type="curve" smooth="yes"/>
      <point x="73" y="414" type="line" smooth="yes"/>
      <point x="73" y="365"/>
      <point x="106" y="309"/>
      <point x="163" y="284" type="curve" smooth="yes"/>
      <point x="193" y="271"/>
      <point x="228" y="263"/>
      <point x="275" y="260" type="curve"/>
      <point x="275" y="-21" type="line"/>
      <point x="177" y="-21" type="line" smooth="yes"/>
      <point x="160" y="-21"/>
      <point x="150" y="-28"/>
      <point x="150" y="-41" type="curve" smooth="yes"/>
      <point x="150" y="-53"/>
      <point x="161" y="-62"/>
      <point x="177" y="-62" type="curve" smooth="yes"/>
      <point x="311" y="-62" type="line" smooth="yes"/>
      <point x="326" y="-62"/>
      <point x="336" y="-55"/>
      <point x="336" y="-41" type="curve" smooth="yes"/>
      <point x="336" y="-30"/>
      <point x="328" y="-22"/>
      <point x="316" y="-21" type="curve"/>
      <point x="316" y="563" type="line"/>
      <point x="397" y="563" type="line"/>
      <point x="397" y="-21" type="line"/>
      <point x="383" y="-22"/>
      <point x="376" y="-30"/>
      <point x="376" y="-41" type="curve" smooth="yes"/>
      <point x="376" y="-53"/>
      <point x="386" y="-62"/>
      <point x="400" y="-62" type="curve" smooth="yes"/>
      <point x="499" y="-62" type="line" smooth="yes"/>
      <point x="516" y="-62"/>
      <point x="525" y="-55"/>
      <point x="525" y="-41" type="curve" smooth="yes"/>
      <point x="525" y="-28"/>
      <point x="516" y="-21"/>
      <point x="499" y="-21" type="curve" smooth="yes"/>
      <point x="437" y="-21" type="line"/>
    </contour>
    <contour>
      <point x="275" y="300" type="line"/>
      <point x="201" y="294"/>
      <point x="112" y="346"/>
      <point x="112" y="415" type="curve" smooth="yes"/>
      <point x="112" y="441" type="line" smooth="yes"/>
      <point x="112" y="516"/>
      <point x="197" y="572"/>
      <point x="275" y="563" type="curve"/>
      <point x="275" y="307" type="line"/>
    </contour>
  </outline>
</glyph>
<glyph name="periodcentered" format="1">
  <advance width="600"/>
  <unicode hex="00B7"/>
  <outline>
    <contour>
      <point x="295" y="348" type="line" smooth="yes"/>
      <point x="256" y="348"/>
      <point x="226" y="320"/>
      <point x="226" y="283" type="curve" smooth="yes"/>
      <point x="226" y="246"/>
      <point x="256" y="217"/>
      <point x="295" y="217" type="curve" smooth="yes"/>
      <point x="305" y="217" type="line" smooth="yes"/>
      <point x="343" y="217"/>
      <point x="374" y="245"/>
      <point x="374" y="283" type="curve" smooth="yes"/>
      <point x="374" y="320"/>
      <point x="343" y="348"/>
      <point x="305" y="348" type="curve" smooth="yes"/>
    </contour>
  </outline>
</glyph>
<glyph name="cedilla" format="1">
  <advance width="600"/>
  <unicode hex="00B8"/>
  <outline>
    <contour>
      <point x="274" y="0" type="line"/>
      <point x="274" y="-81" type="line"/>
      <point x="294" y="-81" type="line" smooth="yes"/>
      <point x="325" y="-81"/>
      <point x="340" y="-89"/>
      <point x="340" y="-106" type="curve" smooth="yes"/>
      <point x="340" y="-123"/>
      <point x="322" y="-135"/>
      <point x="296" y="-135" type="curve" smooth="yes"/>
      <point x="282" y="-135"/>
      <point x="267" y="-131"/>
      <point x="245" y="-119" type="curve" smooth="yes"/>
      <point x="237" y="-115"/>
      <point x="234" y="-114"/>
      <point x="231" y="-114" type="curve" smooth="yes"/>
      <point x="218" y="-114"/>
      <point x="210" y="-123"/>
      <point x="210" y="-133" type="curve" smooth="yes"/>
      <point x="210" y="-143"/>
      <point x="214" y="-148"/>
      <point x="228" y="-155" type="curve" smooth="yes"/>
      <point x="248" y="-165"/>
      <point x="278" y="-174"/>
      <point x="299" y="-174" type="curve" smooth="yes"/>
      <point x="345" y="-174"/>
      <point x="377" y="-147"/>
      <point x="377" y="-108" type="curve" smooth="yes"/>
      <point x="377" y="-70"/>
      <point x="353" y="-49"/>
      <point x="312" y="-47" type="curve"/>
      <point x="312" y="0" type="line"/>
    </contour>
  </outline>
</glyph>
<glyph name="ordmasculine" format="1">
  <advance width="600"/>
  <unicode hex="00BA"/>
  <outline>
    <contour>
      <point x="301" y="576" type="curve" smooth="yes"/>
      <point x="220" y="576"/>
      <point x="154" y="511"/>
      <point x="154" y="431" type="curve" smooth="yes"/>
      <point x="154" y="350"/>
      <point x="220" y="284"/>
      <point x="301" y="284" type="curve" smooth="yes"/>
      <point x="381" y="284"/>
      <point x="448" y="350"/>
      <point x="448" y="428" type="curve" smooth="yes"/>
      <point x="448" y="512"/>
      <point x="383" y="576"/>
    </contour>
    <contour>
      <point x="301" y="540" type="curve" smooth="yes"/>
      <point x="363" y="540"/>
      <point x="411" y="492"/>
      <point x="411" y="428" type="curve" smooth="yes"/>
      <point x="411" y="370"/>
      <point x="360" y="322"/>
      <point x="301" y="322" type="curve" smooth="yes"/>
      <point x="242" y="322"/>
      <point x="191" y="370"/>
      <point x="191" y="431" type="curve" smooth="yes"/>
      <point x="191" y="492"/>
      <point x="240" y="540"/>
    </contour>
  </outline>
</glyph>
<glyph name="guillemotright" format="1">
  <advance width="600"/>
  <unicode hex="00BB"/>
  <outline>
    <contour>
      <point x="311" y="251" type="line"/>
      <point x="104" y="449" type="line" smooth="yes"/>
      <point x="96" y="456"/>
      <point x="89" y="460"/>
      <point x="83" y="460" type="curve" smooth="yes"/>
      <point x="72" y="460"/>
      <point x="63" y="451"/>
      <point x="63" y="441" type="curve" smooth="yes"/>
      <point x="63" y="433"/>
      <point x="64" y="431"/>
      <point x="74" y="420" type="curve" smooth="yes"/>
      <point x="216" y="251" type="line"/>
      <point x="74" y="83" type="line" smooth="yes"/>
      <point x="64" y="72"/>
      <point x="63" y="70"/>
      <point x="63" y="63" type="curve" smooth="yes"/>
      <point x="63" y="52"/>
      <point x="72" y="42"/>
      <point x="83" y="42" type="curve" smooth="yes"/>
      <point x="90" y="42"/>
      <point x="96" y="46"/>
      <point x="104" y="53" type="curve" smooth="yes"/>
    </contour>
    <contour>
      <point x="541" y="251" type="line"/>
      <point x="334" y="449" type="line" smooth="yes"/>
      <point x="326" y="456"/>
      <point x="319" y="460"/>
      <point x="313" y="460" type="curve" smooth="yes"/>
      <point x="302" y="460"/>
      <point x="292" y="451"/>
      <point x="292" y="441" type="curve" smooth="yes"/>
      <point x="292" y="433"/>
      <point x="294" y="431"/>
      <point x="303" y="420" type="curve" smooth="yes"/>
      <point x="447" y="251" type="line"/>
      <point x="303" y="83" type="line" smooth="yes"/>
      <point x="294" y="72"/>
      <point x="292" y="70"/>
      <point x="292" y="63" type="curve" smooth="yes"/>
      <point x="292" y="52"/>
      <point x="302" y="42"/>
      <point x="313" y="42" type="curve" smooth="yes"/>
      <point x="320" y="42"/>
      <point x="326" y="46"/>
      <point x="334" y="53" type="curve" smooth="yes"/>
    </contour>
  </outline>
</glyph>
<glyph name="onequarter" format="1">
  <advance width="600"/>
  <unicode hex="00BC"/>
  <outline>
    <contour>
      <point x="144" y="612" type="line"/>
      <point x="17" y="573"/>
      <point x="17" y="573"/>
      <point x="17" y="558" type="curve" smooth="yes"/>
      <point x="17" y="549"/>
      <point x="25" y="540"/>
      <point x="34" y="540" type="curve" smooth="yes"/>
      <point x="36" y="540"/>
      <point x="39" y="541"/>
      <point x="42" y="542" type="curve" smooth="yes"/>
      <point x="108" y="563" type="line"/>
      <point x="108" y="295" type="line"/>
      <point x="86" y="296"/>
      <point x="55" y="296"/>
      <point x="47" y="296" type="curve" smooth="yes"/>
      <point x="25" y="296"/>
      <point x="16" y="290"/>
      <point x="16" y="277" type="curve" smooth="yes"/>
      <point x="16" y="266"/>
      <point x="24" y="258"/>
      <point x="36" y="258" type="curve" smooth="yes"/>
      <point x="215" y="258" type="line" smooth="yes"/>
      <point x="227" y="258"/>
      <point x="235" y="266"/>
      <point x="235" y="277" type="curve" smooth="yes"/>
      <point x="235" y="288"/>
      <point x="228" y="295"/>
      <point x="215" y="295" type="curve" smooth="yes"/>
      <point x="144" y="295" type="line"/>
    </contour>
    <contour>
      <point x="492" y="477" type="line"/>
      <point x="496" y="483"/>
      <point x="500" y="490"/>
      <point x="500" y="494" type="curve" smooth="yes"/>
      <point x="500" y="505"/>
      <point x="492" y="515"/>
      <point x="481" y="515" type="curve" smooth="yes"/>
      <point x="475" y="515"/>
      <point x="471" y="512"/>
      <point x="462" y="502" type="curve" smooth="yes"/>
      <point x="112" y="89" type="line"/>
      <point x="106" y="81"/>
      <point x="103" y="75"/>
      <point x="103" y="72" type="curve" smooth="yes"/>
      <point x="103" y="59"/>
      <point x="112" y="51"/>
      <point x="123" y="51" type="curve" smooth="yes"/>
      <point x="129" y="51"/>
      <point x="133" y="53"/>
      <point x="141" y="63" type="curve" smooth="yes"/>
    </contour>
    <contour>
      <point x="510" y="93" type="line"/>
      <point x="510" y="36" type="line"/>
      <point x="468" y="36"/>
      <point x="468" y="36"/>
      <point x="464" y="35" type="curve"/>
      <point x="458" y="32"/>
      <point x="453" y="25"/>
      <point x="453" y="18" type="curve" smooth="yes"/>
      <point x="453" y="7"/>
      <point x="461" y="0"/>
      <point x="475" y="0" type="curve" smooth="yes"/>
      <point x="559" y="0" type="line" smooth="yes"/>
      <point x="572" y="0"/>
      <point x="580" y="7"/>
      <point x="580" y="18" type="curve" smooth="yes"/>
      <point x="580" y="29"/>
      <point x="572" y="36"/>
      <point x="559" y="36" type="curve" smooth="yes"/>
      <point x="546" y="36" type="line"/>
      <point x="546" y="93" type="line"/>
      <point x="555" y="93" type="line" smooth="yes"/>
      <point x="572" y="93"/>
      <point x="580" y="100"/>
      <point x="580" y="110" type="curve" smooth="yes"/>
      <point x="580" y="123"/>
      <point x="572" y="129"/>
      <point x="559" y="129" type="curve" smooth="yes"/>
      <point x="546" y="129" type="line"/>
      <point x="546" y="345" type="line"/>
      <point x="489" y="345" type="line"/>
      <point x="360" y="127" type="line"/>
      <point x="360" y="93" type="line"/>
    </contour>
    <contour>
      <point x="510" y="129" type="line"/>
      <point x="400" y="129" type="line"/>
      <point x="508" y="309" type="line"/>
      <point x="510" y="309" type="line"/>
    </contour>
  </outline>
</glyph>
